<svg width="24" height="24" viewBox="0 0 24 24" xmlns="http://www.w3.org/2000/svg" fill="none"><g clip-path="url(#a)"><path d="M12.073 5.736c-3.464.306-6.017-2.249-5.712-5.712 3.464-.306 6.017 2.249 5.712 5.712z" fill="#0AA564"/><path d="M12 9c0-1.667.5-5.5 2.5-7.5" stroke="#0AA564"/><path d="M17.817 5.727c-.826-.22-1.68-.175-2.519.095-2.154.694-4.444.694-6.597 0-.838-.27-1.693-.315-2.519-.095-3.298.879-4.889 5.65-3.555 10.657 1.334 5.008 5.089 8.354 8.387 7.475l.011-.003c.641-.173 1.309-.173 1.949 0l.011.003c3.298.879 7.053-2.468 8.387-7.475 1.334-5.007-.258-9.779-3.556-10.657z" fill="#99DF3F"/></g><defs><clipPath id="a"><path fill="#fff" d="M0 0h24v24h-24z"/></clipPath></defs></svg>