<svg width="21" height="19" viewBox="0 0 21 19" fill="none" xmlns="http://www.w3.org/2000/svg">
<path d="M10.501 1.52898C12.85 -0.58002 16.48 -0.51002 18.743 1.75698C21.005 4.02498 21.083 7.63698 18.979 9.99298L10.499 18.485L2.02101 9.99298C-0.082994 7.63698 -0.00399375 4.01898 2.25701 1.75698C4.52201 -0.50702 8.14501 -0.58302 10.501 1.52898ZM17.327 3.16998C15.827 1.66798 13.407 1.60698 11.837 3.01698L10.502 4.21498L9.16601 3.01798C7.59101 1.60598 5.17601 1.66798 3.67201 3.17198C2.18201 4.66198 2.10701 7.04698 3.48001 8.62298L10.5 15.654L17.52 8.62398C18.894 7.04698 18.819 4.66498 17.327 3.16998Z" fill="black"/>
</svg>
