<svg width="200" height="100" viewBox="0 0 200 100" fill="none" xmlns="http://www.w3.org/2000/svg">
<path d="M142.275 44.7894C141.687 44.7894 141.118 44.4868 140.673 43.9706V39.6989H142.292C142.88 39.6989 143.449 40.0015 143.894 40.5177V43.9706C143.449 44.4868 142.88 44.7894 142.275 44.7894ZM145.728 40.2032C145.728 40.0074 145.692 39.865 145.567 39.6871C144.749 38.5301 143.556 37.8716 142.292 37.8716H140.673V35.273H142.203C142.72 35.273 143.129 34.8636 143.129 34.3475C143.129 33.8491 142.72 33.4397 142.203 33.4397C139.765 33.4397 139.765 33.4397 139.765 33.4397C139.249 33.4397 138.839 33.8491 138.839 34.3475V44.2969C138.839 44.4749 138.911 44.6707 139 44.8131C139.818 45.97 141.011 46.6285 142.275 46.6285C143.556 46.6285 144.749 45.97 145.567 44.8131C145.656 44.6529 145.728 44.4749 145.728 44.2791V40.2032Z" fill="white"/>
<path d="M128.391 33.4397C127.893 33.4397 127.466 33.8491 127.466 34.3475C127.466 34.8636 127.893 35.273 128.391 35.273H130.1V43.9765C129.655 44.4927 129.085 44.7953 128.498 44.7953C128.231 44.7953 127.982 44.7419 127.733 44.6351C127.27 44.4215 126.736 44.6351 126.522 45.0979C126.327 45.5606 126.54 46.1124 127.003 46.3082C127.484 46.5218 127.982 46.6285 128.498 46.6285C129.762 46.6285 130.954 45.97 131.773 44.8131C131.862 44.6707 131.933 44.4749 131.933 44.2791V35.273H133.856V45.5428C133.856 46.0412 134.265 46.4506 134.781 46.4506C135.279 46.4506 135.689 46.0412 135.689 45.5428V35.273H136.864C137.362 35.273 137.771 34.8636 137.771 34.3475C137.771 33.8491 137.362 33.4397 136.864 33.4397H128.391Z" fill="white"/>
<path d="M120.335 35.9314C120.762 35.4152 121.349 35.1126 121.937 35.1126C122.524 35.1126 123.094 35.3974 123.539 35.9314V41.9295H120.335V35.9314ZM125.188 35.0948C124.387 33.9379 123.195 33.2794 121.931 33.2794C120.649 33.2794 119.457 33.9379 118.656 35.0948C118.531 35.255 118.478 35.4508 118.478 35.6288V45.5189C118.478 46.0173 118.887 46.4445 119.403 46.4445C119.902 46.4445 120.329 46.0173 120.329 45.5189V43.7569H123.533V45.5189C123.533 46.0173 123.942 46.4445 124.441 46.4445C124.957 46.4445 125.366 46.0173 125.366 45.5189V35.6229C125.372 35.4508 125.319 35.255 125.188 35.0948Z" fill="white"/>
<path d="M115.225 43.9704C114.78 44.5044 114.211 44.7892 113.623 44.7892C113.036 44.7892 112.466 44.5044 112.021 43.9704V35.9254C112.466 35.3915 113.036 35.1067 113.623 35.1067C114.211 35.1067 114.78 35.4093 115.225 35.9254V38.0138L113.73 39.2597C113.499 39.4377 113.392 39.6869 113.392 39.9539C113.392 40.2565 113.499 40.4878 113.73 40.6836L115.225 41.9117V43.9704ZM115.741 39.9776L116.72 39.1589C116.934 38.9809 117.059 38.7317 117.059 38.4469V35.6288C117.059 35.3796 117.005 35.255 116.898 35.0948C116.08 33.9379 114.887 33.2794 113.623 33.2794C112.342 33.2794 111.149 33.9379 110.348 35.0948C110.242 35.255 110.188 35.433 110.188 35.611V44.2968C110.188 44.5637 110.277 44.7061 110.348 44.8129C111.149 45.9698 112.342 46.6284 113.623 46.6284C114.887 46.6284 116.097 45.9698 116.898 44.8129C117.005 44.6527 117.059 44.4747 117.059 44.279V41.4964C117.059 41.2117 116.934 40.9625 116.72 40.7845L115.741 39.9776Z" fill="white"/>
<path d="M102.802 33.4397C102.285 33.4397 101.876 33.8491 101.876 34.3475V45.5072C101.876 46.0234 102.285 46.4328 102.802 46.4328C103.3 46.4328 103.709 46.0234 103.709 45.5072V43.2468L106.931 37.747V45.5072C106.931 46.0234 107.34 46.4328 107.839 46.4328C108.355 46.4328 108.764 46.0234 108.764 45.5072V34.3475C108.764 33.8491 108.355 33.4397 107.839 33.4397C107.5 33.4397 107.198 33.6177 107.038 33.9025L103.709 39.5981V34.3475C103.709 33.8491 103.3 33.4397 102.802 33.4397Z" fill="white"/>
<path d="M95.0312 33.4397C94.5151 33.4397 94.1057 33.8491 94.1057 34.3475C94.1057 34.8636 94.5151 35.273 95.0312 35.273H96.6331V45.5072C96.6331 46.0234 97.0425 46.4328 97.5587 46.4328C98.057 46.4328 98.4664 46.0234 98.4664 45.5072V35.273H100.068C100.584 35.273 100.994 34.8636 100.994 34.3475C100.994 33.8491 100.584 33.4397 100.068 33.4397H95.0312Z" fill="white"/>
<path d="M92.307 41.6803C91.7909 41.6803 91.3815 42.0897 91.3815 42.6059V43.9764C90.9365 44.4925 90.367 44.7951 89.7796 44.7951C89.1922 44.7951 88.6049 44.5103 88.1777 43.9764V35.9314C88.6049 35.3974 89.1922 35.1126 89.7796 35.1126C90.367 35.1126 90.9365 35.3974 91.3815 35.9314V37.1239C91.3815 37.6223 91.7909 38.0316 92.2892 38.0316C92.8054 38.0316 93.2147 37.6223 93.2147 37.1239V35.6288C93.2147 35.433 93.1436 35.2372 93.0368 35.0948C92.2358 33.9379 91.0433 33.2794 89.7796 33.2794C88.4981 33.2794 87.3056 33.9379 86.5046 35.077C86.3979 35.2372 86.3267 35.4152 86.3267 35.611V44.2968C86.3267 44.4925 86.3979 44.6705 86.5046 44.8307C87.3056 45.9698 88.4981 46.6284 89.7796 46.6284C91.0433 46.6284 92.2536 45.9698 93.0546 44.8129C93.1613 44.6527 93.2147 44.4747 93.2147 44.279V42.6059C93.2147 42.0897 92.8054 41.6803 92.307 41.6803Z" fill="white"/>
<path d="M70.7653 41.5144V38.8624C71.0916 38.5717 71.673 38.3107 72.2604 38.1564V42.2205C71.673 42.0662 71.0916 41.8052 70.7653 41.5144ZM74.0284 42.2205V38.1564C74.6098 38.3166 75.215 38.5717 75.5413 38.8624V41.5144C75.2091 41.8052 74.6098 42.0662 74.0284 42.2205ZM77.3034 38.5243C77.3034 38.3522 77.25 38.1802 77.1313 38.0259C76.6685 37.3377 75.8439 36.9283 75.2446 36.6851C74.8471 36.5486 74.42 36.43 74.0284 36.3588V35.6883H75.3158C75.7964 35.6883 76.1939 35.279 76.1939 34.7984C76.1939 34.3 75.7964 33.9085 75.3158 33.9085H70.973C70.4924 33.9085 70.0949 34.306 70.0949 34.7984C70.0949 35.279 70.4924 35.6883 70.973 35.6883H72.2604V36.3588C71.8629 36.43 71.4357 36.5486 71.0442 36.7029C70.4449 36.9283 69.6203 37.3436 69.1575 38.0259C69.0507 38.1742 68.9973 38.3522 68.9973 38.5243V41.8586C68.9973 42.0306 69.0507 42.2027 69.1516 42.3569C69.6143 43.0273 70.439 43.4545 71.0382 43.68C71.4298 43.8342 71.8629 43.9529 72.2545 44.0241V44.6767H70.973C70.4924 44.6767 70.0949 45.0742 70.0949 45.5666C70.0949 46.0472 70.4924 46.4447 70.973 46.4447H75.3158C75.7964 46.4447 76.1939 46.0472 76.1939 45.5666C76.1939 45.0683 75.7964 44.6767 75.3158 44.6767H74.0284V44.0241C74.4259 43.9529 74.8531 43.8342 75.2446 43.68C75.8439 43.4545 76.6685 43.0273 77.1313 42.3569C77.25 42.2027 77.3034 42.0306 77.3034 41.8586V38.5243Z" fill="white"/>
<path fill-rule="evenodd" clip-rule="evenodd" d="M80.7445 39.0458H84.5831V40.5646H80.7445L80.6852 44.326C81.0768 44.682 81.5573 44.8719 82.0557 44.8719C82.7142 44.8719 83.355 44.5159 83.8178 43.8811C84.1203 43.4895 84.6899 43.3827 85.0993 43.6734C85.5086 43.9463 85.6154 44.4921 85.3307 44.8837C84.5119 45.9932 83.3194 46.6458 82.0557 46.6458C80.7742 46.6458 78.8935 46.2305 78.7807 44.8837C78.7392 44.3972 78.8104 44.2904 78.7629 43.8929L78.7689 39.9357L78.7629 36.0259C78.8104 35.6284 78.7392 35.5276 78.7807 35.0351C78.8935 33.6884 80.7742 33.2731 82.0557 33.2731C83.3194 33.2731 84.5119 33.9257 85.3307 35.0351C85.6154 35.4267 85.5086 35.9725 85.0993 36.2454C84.6899 36.5361 84.1203 36.4353 83.8178 36.0378C83.355 35.403 82.7142 35.047 82.0557 35.047C81.5573 35.047 81.0768 35.2368 80.6852 35.5928L80.7445 39.0458Z" fill="white"/>
<path fill-rule="evenodd" clip-rule="evenodd" d="M82.2852 24.5221H85.0262V25.6078H82.2852L82.2437 28.2895C82.5225 28.5446 82.8666 28.6751 83.2226 28.6751C83.6913 28.6751 84.1481 28.42 84.4804 27.9691C84.694 27.6902 85.1033 27.6131 85.394 27.8208C85.6847 28.0165 85.7619 28.4081 85.5602 28.687C84.9787 29.482 84.1244 29.9447 83.2226 29.9447C82.3089 29.9447 80.9681 29.6481 80.885 28.687C80.8554 28.3369 80.9028 28.2657 80.8732 27.981L80.8791 25.1569L80.8732 22.3684C80.9088 22.0837 80.8554 22.0125 80.885 21.6624C80.9681 20.7013 82.3089 20.4046 83.2226 20.4046C84.1244 20.4046 84.9728 20.8674 85.5602 21.6624C85.7619 21.9413 85.6847 22.3328 85.394 22.5286C85.1033 22.7363 84.694 22.6651 84.4804 22.3803C84.1481 21.9294 83.6913 21.6743 83.2226 21.6743C82.8666 21.6743 82.5225 21.8107 82.2437 22.0599L82.2852 24.5221Z" fill="white"/>
<path d="M73.7304 25.8448C73.8846 25.9753 73.9736 26.1533 73.9736 26.3609V28.3722C73.9736 28.5146 73.9321 28.6451 73.855 28.7578C73.2735 29.5944 72.3955 30.0749 71.4818 30.0749C70.5503 30.0749 69.6901 29.5944 69.1086 28.7578C69.0553 28.6807 68.99 28.5798 68.99 28.384V22.1011C68.99 21.9706 69.0315 21.8401 69.1086 21.7273C69.6901 20.8908 70.5563 20.4102 71.4818 20.4102C72.4014 20.4102 73.2617 20.8908 73.855 21.7273C73.9321 21.846 73.9736 21.935 73.9736 22.113V24.1539C73.9736 24.3615 73.8846 24.5395 73.7304 24.6701L73.0184 25.2633L73.7304 25.8448ZM72.6506 26.6694L71.5649 25.7795C71.3987 25.6371 71.3216 25.471 71.3216 25.2515C71.3216 25.0557 71.3987 24.8777 71.5649 24.7472L72.6506 23.8454V22.3384C72.3302 21.9647 71.9149 21.7451 71.4877 21.7451C71.0606 21.7451 70.6512 21.9528 70.3249 22.3384V28.1586C70.6453 28.5442 71.0606 28.7519 71.4877 28.7519C71.9149 28.7519 72.3243 28.5442 72.6506 28.1586V26.6694Z" fill="white"/>
<path d="M80.0016 27.1741V28.3844C80.0016 28.5268 79.9601 28.6573 79.8829 28.77C79.3015 29.6066 78.4234 30.0871 77.5098 30.0871C76.5783 30.0871 75.7181 29.6066 75.1366 28.7819C75.0595 28.6632 75.0061 28.5386 75.0061 28.3963V22.0955C75.0061 21.9531 75.0595 21.8226 75.1366 21.7099C75.7181 20.8852 76.5843 20.4046 77.5098 20.4046C78.4234 20.4046 79.2897 20.8852 79.8711 21.7218C79.9482 21.8226 80.0016 21.965 80.0016 22.1074V23.1931C80.0016 23.555 79.705 23.8517 79.3312 23.8517C78.9693 23.8517 78.6726 23.555 78.6726 23.1931V22.3269C78.3523 21.9413 77.937 21.7336 77.5098 21.7336C77.0826 21.7336 76.6554 21.9413 76.3469 22.3269V28.1589C76.6554 28.5446 77.0826 28.7522 77.5098 28.7522C77.937 28.7522 78.3463 28.5327 78.6726 28.1589V27.1622C78.6726 26.7884 78.9693 26.4918 79.343 26.4918C79.705 26.5037 80.0016 26.8003 80.0016 27.1741Z" fill="white"/>
<path d="M91.5229 26.7762C91.5229 26.9186 91.4814 27.061 91.3924 27.1619C90.811 27.9984 89.9448 28.479 89.0311 28.479C88.5565 28.479 88.1293 28.3247 87.8683 28.0815V29.2918C87.8683 29.6655 87.5716 29.9622 87.1979 29.9622C86.836 29.9622 86.5393 29.6655 86.5393 29.2918V21.2112C86.5393 20.8374 86.836 20.5408 87.1979 20.5408C87.4055 20.5408 87.5716 20.6298 87.7022 20.7603C88.0997 20.5289 88.5684 20.4102 89.0311 20.4102C89.9507 20.4102 90.8229 20.8908 91.4043 21.7273C91.4814 21.846 91.5229 21.9706 91.5229 22.113V26.7762ZM90.194 26.5567V22.3384C89.8736 21.9528 89.4702 21.7451 89.0311 21.7451C88.604 21.7451 88.1946 21.9528 87.8683 22.3384V26.5567C88.1887 26.9305 88.604 27.15 89.0311 27.15C89.4702 27.15 89.8736 26.9305 90.194 26.5567Z" fill="white"/>
<path d="M97.5507 28.3722C97.5507 28.5264 97.4973 28.6688 97.4201 28.7697C96.8387 29.6062 95.9725 30.0868 95.0589 30.0868C94.1274 30.0868 93.2671 29.6062 92.6857 28.7815C92.6086 28.6629 92.5552 28.5383 92.5552 28.3959V22.113C92.5552 21.9825 92.5967 21.8401 92.6857 21.7273C93.2671 20.8908 94.1333 20.4102 95.0589 20.4102C95.9725 20.4102 96.8387 20.8908 97.432 21.7273C97.5091 21.846 97.5507 21.9825 97.5507 22.113V28.3722ZM96.2217 28.1645V22.3325C95.9013 21.9587 95.486 21.7392 95.0589 21.7392C94.6198 21.7392 94.2045 21.9587 93.8841 22.3325V28.1645C94.2045 28.5502 94.6198 28.7578 95.0589 28.7578C95.486 28.7638 95.8954 28.5561 96.2217 28.1645Z" fill="white"/>
<path d="M103.572 27.1741V28.3844C103.572 28.5268 103.531 28.6573 103.454 28.77C102.872 29.6066 101.994 30.0871 101.08 30.0871C100.149 30.0871 99.2887 29.6066 98.7073 28.7819C98.6302 28.6632 98.5768 28.5386 98.5768 28.3963V22.0955C98.5768 21.9531 98.6302 21.8226 98.7073 21.7099C99.2887 20.8852 100.155 20.4046 101.08 20.4046C101.994 20.4046 102.86 20.8852 103.442 21.7218C103.519 21.8226 103.572 21.965 103.572 22.1074V23.1931C103.572 23.555 103.276 23.8517 102.902 23.8517C102.54 23.8517 102.243 23.555 102.243 23.1931V22.3269C101.923 21.9413 101.508 21.7336 101.08 21.7336C100.653 21.7336 100.226 21.9413 99.9176 22.3269V28.1589C100.226 28.5446 100.653 28.7522 101.08 28.7522C101.508 28.7522 101.917 28.5327 102.243 28.1589V27.1622C102.243 26.7884 102.54 26.4918 102.914 26.4918C103.276 26.5037 103.572 26.8003 103.572 27.1741Z" fill="white"/>
<path d="M109.6 27.1741V28.3844C109.6 28.5268 109.559 28.6573 109.482 28.77C108.9 29.6066 108.022 30.0871 107.108 30.0871C106.177 30.0871 105.317 29.6066 104.735 28.7819C104.658 28.6632 104.605 28.5386 104.605 28.3963V22.0955C104.605 21.9531 104.658 21.8226 104.735 21.7099C105.317 20.8852 106.183 20.4046 107.108 20.4046C108.022 20.4046 108.888 20.8852 109.47 21.7218C109.547 21.8226 109.6 21.965 109.6 22.1074V23.1931C109.6 23.555 109.304 23.8517 108.93 23.8517C108.568 23.8517 108.271 23.555 108.271 23.1931V22.3269C107.951 21.9413 107.536 21.7336 107.108 21.7336C106.681 21.7336 106.254 21.9413 105.946 22.3269V28.1589C106.254 28.5446 106.681 28.7522 107.108 28.7522C107.536 28.7522 107.945 28.5327 108.271 28.1589V27.1622C108.271 26.7884 108.568 26.4918 108.942 26.4918C109.304 26.5037 109.6 26.8003 109.6 27.1741Z" fill="white"/>
<path d="M111.962 21.2001V25.009L114.377 20.8797C114.495 20.6721 114.715 20.5415 114.958 20.5415C115.332 20.5415 115.629 20.8382 115.629 21.2001V29.2926C115.629 29.6663 115.332 29.963 114.958 29.963C114.596 29.963 114.3 29.6663 114.3 29.2926V23.6682L111.962 27.6551V29.2926C111.962 29.6663 111.665 29.963 111.303 29.963C110.93 29.963 110.633 29.6663 110.633 29.2926V21.2001C110.633 20.8382 110.93 20.5415 111.303 20.5415C111.665 20.5415 111.962 20.8382 111.962 21.2001Z" fill="white"/>
<path d="M116.833 19.1232C116.59 18.8502 116.613 18.429 116.886 18.1798C117.159 17.9366 117.569 17.9484 117.83 18.2214C118.15 18.5833 118.643 18.8028 119.159 18.8028C119.675 18.8028 120.167 18.5833 120.5 18.2214C120.743 17.9484 121.158 17.9247 121.443 18.168C121.716 18.429 121.728 18.8384 121.484 19.1113C120.903 19.758 120.049 20.1317 119.159 20.1317C118.269 20.1258 117.432 19.752 116.833 19.1232ZM117.996 21.1997V25.0086L120.411 20.8793C120.529 20.6716 120.749 20.5411 120.992 20.5411C121.366 20.5411 121.662 20.8378 121.662 21.1997V29.2921C121.662 29.6659 121.366 29.9625 120.992 29.9625C120.63 29.9625 120.333 29.6659 120.333 29.2921V23.6677L117.996 27.6547V29.2921C117.996 29.6659 117.699 29.9625 117.337 29.9625C116.964 29.9625 116.667 29.6659 116.667 29.2921V21.1997C116.667 20.8378 116.964 20.5411 117.337 20.5411C117.699 20.5411 117.996 20.8378 117.996 21.1997Z" fill="white"/>
<path d="M127.69 27.1741V28.3844C127.69 28.5268 127.648 28.6573 127.571 28.77C126.99 29.6066 126.112 30.0871 125.198 30.0871C124.267 30.0871 123.406 29.6066 122.825 28.7819C122.748 28.6632 122.694 28.5386 122.694 28.3963V22.0955C122.694 21.9531 122.748 21.8226 122.825 21.7099C123.406 20.8852 124.272 20.4046 125.198 20.4046C126.112 20.4046 126.978 20.8852 127.559 21.7218C127.636 21.8226 127.69 21.965 127.69 22.1074V23.1931C127.69 23.555 127.393 23.8517 127.019 23.8517C126.658 23.8517 126.361 23.555 126.361 23.1931V22.3269C126.04 21.9413 125.625 21.7336 125.198 21.7336C124.771 21.7336 124.344 21.9413 124.035 22.3269V28.1589C124.344 28.5446 124.771 28.7522 125.198 28.7522C125.625 28.7522 126.035 28.5327 126.361 28.1589V27.1622C126.361 26.7884 126.658 26.4918 127.031 26.4918C127.393 26.5037 127.69 26.8003 127.69 27.1741Z" fill="white"/>
<path d="M132.989 24.8486C133.362 24.8486 133.659 25.1452 133.659 25.519V29.2864C133.659 29.6601 133.362 29.9568 132.989 29.9568C132.627 29.9568 132.33 29.6601 132.33 29.2864V26.1775H130.046V29.2864C130.046 29.6601 129.749 29.9568 129.387 29.9568C129.014 29.9568 128.717 29.6601 128.717 29.2864V21.1939C128.717 20.832 129.014 20.5353 129.387 20.5353C129.749 20.5353 130.046 20.832 130.046 21.1939V24.8486H130.663L132.366 20.9506C132.508 20.6125 132.894 20.4464 133.244 20.5769C133.582 20.7193 133.748 21.1049 133.606 21.4549L132.134 24.8486H132.989Z" fill="white"/>
<path d="M136.02 21.2001V25.009L138.434 20.8797C138.553 20.6721 138.772 20.5415 139.016 20.5415C139.389 20.5415 139.686 20.8382 139.686 21.2001V29.2926C139.686 29.6663 139.389 29.963 139.016 29.963C138.654 29.963 138.357 29.6663 138.357 29.2926V23.6682L136.02 27.6551V29.2926C136.02 29.6663 135.723 29.963 135.361 29.963C134.987 29.963 134.691 29.6663 134.691 29.2926V21.2001C134.691 20.8382 134.987 20.5415 135.361 20.5415C135.723 20.5415 136.02 20.8382 136.02 21.2001Z" fill="white"/>
<path d="M140.896 19.1232C140.653 18.8502 140.677 18.429 140.95 18.1798C141.223 17.9366 141.632 17.9484 141.893 18.2214C142.214 18.5833 142.706 18.8028 143.222 18.8028C143.738 18.8028 144.231 18.5833 144.563 18.2214C144.806 17.9484 145.222 17.9247 145.506 18.168C145.779 18.429 145.791 18.8384 145.548 19.1113C144.966 19.758 144.112 20.1317 143.222 20.1317C142.332 20.1258 141.49 19.752 140.896 19.1232ZM142.059 21.1997V25.0086L144.474 20.8793C144.593 20.6716 144.812 20.5411 145.055 20.5411C145.429 20.5411 145.726 20.8378 145.726 21.1997V29.2921C145.726 29.6659 145.429 29.9625 145.055 29.9625C144.694 29.9625 144.397 29.6659 144.397 29.2921V23.6677L142.059 27.6547V29.2921C142.059 29.6659 141.763 29.9625 141.401 29.9625C141.027 29.9625 140.73 29.6659 140.73 29.2921V21.1997C140.73 20.8378 141.027 20.5411 141.401 20.5411C141.763 20.5411 142.059 20.8378 142.059 21.1997Z" fill="white"/>
<path d="M145.43 58.405V58.4109L143.899 54.958L144.214 54.252L145.661 50.9474C145.822 50.5973 145.661 50.1879 145.311 50.0278C144.961 49.8794 144.54 50.0278 144.392 50.3956L143.229 53.0476L143.146 53.4154L143.081 53.0476L141.918 50.3956C141.758 50.0278 141.348 49.8794 140.998 50.0278C140.648 50.1879 140.482 50.5973 140.63 50.9474L142.042 54.163L142.392 54.958L142.09 55.6462H142.096L140.672 58.8678C140.494 59.3305 140.832 59.8586 141.307 59.8586C141.58 59.8586 141.835 59.6984 141.959 59.4373L143.081 56.8624L143.164 56.4946L143.229 56.8624L144.35 59.4373C144.475 59.6924 144.73 59.8586 145.003 59.8586C145.519 59.8586 145.816 59.289 145.638 58.8678L145.43 58.405Z" fill="white"/>
<path d="M70.3901 50.6626V54.6613L72.9235 50.3244C73.0481 50.1049 73.2735 49.9744 73.5346 49.9744C73.9261 49.9744 74.2406 50.2888 74.2406 50.6626V59.1585C74.2406 59.5501 73.9261 59.8645 73.5346 59.8645C73.1549 59.8645 72.8463 59.5501 72.8463 59.1585V53.2493L70.3961 57.4379V59.1585C70.3961 59.5501 70.0816 59.8645 69.7078 59.8645C69.3163 59.8645 69.0018 59.5501 69.0018 59.1585V50.6626C69.0018 50.2829 69.3163 49.9744 69.7078 49.9744C70.0816 49.9684 70.3901 50.2829 70.3901 50.6626Z" fill="white"/>
<path d="M80.5652 50.6626V59.1585C80.5652 59.5501 80.2508 59.8645 79.8592 59.8645C79.4795 59.8645 79.171 59.5501 79.171 59.1585V55.8776H76.7326V59.1585C76.7326 59.5501 76.4063 59.8645 76.0266 59.8645C75.635 59.8645 75.3206 59.5501 75.3206 59.1585V50.6626C75.3206 50.2829 75.635 49.9744 76.0266 49.9744C76.4063 49.9744 76.7326 50.2888 76.7326 50.6626V54.4834H79.171V50.6626C79.171 50.2829 79.4854 49.9744 79.8592 49.9744C80.2567 49.9684 80.5652 50.2829 80.5652 50.6626Z" fill="white"/>
<path d="M86.1364 54.4951C86.528 54.4951 86.8425 54.8095 86.8425 55.2011V59.1583C86.8425 59.5499 86.528 59.8643 86.1364 59.8643C85.7567 59.8643 85.4482 59.5499 85.4482 59.1583V55.8952H83.0513V59.1583C83.0513 59.5499 82.7369 59.8643 82.3631 59.8643C81.9715 59.8643 81.6571 59.5499 81.6571 59.1583V50.6624C81.6571 50.2827 81.9715 49.9742 82.3631 49.9742C82.7428 49.9742 83.0513 50.2886 83.0513 50.6624V54.4951H83.704L85.4898 50.4014C85.6381 50.0513 86.0474 49.8733 86.4093 50.0098C86.7594 50.1581 86.9374 50.5675 86.7891 50.9294L85.2465 54.4951H86.1364Z" fill="white"/>
<path d="M95.5935 49.9683C95.9732 49.9683 96.2817 50.2828 96.2817 50.6565C96.2817 51.0481 95.9673 51.3626 95.5935 51.3626H94.6976V59.1643C94.6976 59.544 94.3832 59.8525 94.0094 59.8525C93.6178 59.8525 93.3034 59.5381 93.3034 59.1643V51.3626H91.838V58.2032C91.838 58.3515 91.7846 58.4998 91.7134 58.6126C91.0904 59.4906 90.1827 59.9949 89.2216 59.9949C88.83 59.9949 88.4503 59.9119 88.0824 59.7517C87.7324 59.6033 87.5663 59.1821 87.7146 58.8321C87.8748 58.482 88.2842 58.3159 88.6342 58.482C88.8241 58.5651 89.0139 58.6066 89.2156 58.6066C89.6606 58.6066 90.0937 58.3752 90.4378 57.9837V51.3744H89.1385C88.7588 51.3744 88.4325 51.06 88.4325 50.6684C88.4325 50.2887 88.7588 49.9802 89.1385 49.9802H95.5935V49.9683Z" fill="white"/>
<path d="M104.481 58.2033C104.481 58.3813 104.428 58.5 104.345 58.6127C103.734 59.4789 102.826 59.995 101.853 59.995C100.892 59.995 99.9839 59.4908 99.361 58.6127C99.3076 58.5474 99.2364 58.3694 99.2364 58.2211V55.6996H98.5066V59.1704C98.5066 59.5501 98.1803 59.8586 97.8006 59.8586C97.409 59.8586 97.0946 59.5441 97.0946 59.1704V50.6626C97.0946 50.2829 97.409 49.9744 97.8006 49.9744C98.1803 49.9744 98.5066 50.2888 98.5066 50.6626V54.3054H99.2364V51.6119C99.2364 51.4517 99.2898 51.3152 99.361 51.2203C99.9839 50.3422 100.892 49.8379 101.853 49.8379C102.826 49.8379 103.734 50.3422 104.345 51.2203C104.428 51.3152 104.481 51.4636 104.481 51.6297V58.2033ZM100.631 54.3054H103.069V51.8551C102.743 51.4457 102.298 51.2322 101.847 51.2322C101.402 51.2322 100.969 51.4517 100.625 51.8551V54.3054H100.631ZM103.069 57.9779V55.6996H100.631V57.9779C100.969 58.3694 101.402 58.6008 101.853 58.6008C102.298 58.6008 102.743 58.3694 103.069 57.9779Z" fill="white"/>
<path d="M110.265 58.2033C110.265 58.3635 110.182 58.5415 110.141 58.6127C109.518 59.4908 108.61 59.995 107.637 59.995C106.676 59.995 105.768 59.4908 105.145 58.6127C104.926 58.2982 105.009 57.8651 105.323 57.6397C105.638 57.4202 106.083 57.5032 106.296 57.8177C106.646 58.322 107.139 58.6008 107.637 58.6008C108.082 58.6008 108.533 58.3694 108.871 57.9779V55.7708H106.99C106.717 55.7708 106.486 55.6225 106.367 55.3793C106.243 55.1479 106.272 54.8631 106.433 54.6495L108.669 51.6712C108.373 51.3983 108.005 51.25 107.637 51.25C107.133 51.25 106.646 51.5347 106.296 52.0331C106.077 52.3475 105.632 52.4247 105.323 52.1933C105.009 51.9738 104.932 51.5407 105.145 51.2322C105.768 50.3541 106.676 49.8379 107.637 49.8379C108.61 49.8379 109.518 50.3541 110.141 51.2322C110.319 51.4873 110.289 51.8136 110.111 52.045C109.963 52.2348 108.379 54.3766 108.379 54.3766H109.559C109.951 54.3766 110.265 54.691 110.265 55.0648V58.2033Z" fill="white"/>
<path d="M112.746 50.6626V54.6613L115.279 50.3244C115.403 50.1049 115.629 49.9744 115.89 49.9744C116.282 49.9744 116.596 50.2888 116.596 50.6626V59.1585C116.596 59.5501 116.282 59.8645 115.89 59.8645C115.51 59.8645 115.202 59.5501 115.202 59.1585V53.2493L112.751 57.4379V59.1585C112.751 59.5501 112.437 59.8645 112.063 59.8645C111.672 59.8645 111.357 59.5501 111.357 59.1585V50.6626C111.357 50.2829 111.672 49.9744 112.063 49.9744C112.431 49.9684 112.746 50.2829 112.746 50.6626Z" fill="white"/>
<path d="M122.647 55.5394C122.808 55.6759 122.903 55.8658 122.903 56.0793V58.1914C122.903 58.3398 122.861 58.4762 122.778 58.6008C122.167 59.4789 121.247 59.9832 120.286 59.9832C119.313 59.9832 118.405 59.4789 117.794 58.6008C117.741 58.5178 117.67 58.411 117.67 58.2092V51.6119C117.67 51.4754 117.711 51.339 117.794 51.2203C118.405 50.3422 119.313 49.8379 120.286 49.8379C121.247 49.8379 122.155 50.3422 122.778 51.2203C122.861 51.3449 122.903 51.4398 122.903 51.6297V53.7714C122.903 53.991 122.808 54.1808 122.647 54.3113L121.9 54.9343L122.647 55.5394ZM121.508 56.4057L120.369 55.4683C120.191 55.3199 120.114 55.1419 120.114 54.9106C120.114 54.7088 120.197 54.519 120.369 54.3825L121.508 53.4333V51.8492C121.17 51.4576 120.737 51.2262 120.286 51.2262C119.835 51.2262 119.408 51.4457 119.064 51.8492V57.9601C119.402 58.3694 119.835 58.583 120.286 58.583C120.737 58.583 121.164 58.3635 121.508 57.9601V56.4057Z" fill="white"/>
<path d="M129.233 50.6626V59.1585C129.233 59.5501 128.918 59.8645 128.527 59.8645C128.147 59.8645 127.839 59.5501 127.839 59.1585V55.8776H125.4V59.1585C125.4 59.5501 125.074 59.8645 124.694 59.8645C124.303 59.8645 123.988 59.5501 123.988 59.1585V50.6626C123.988 50.2829 124.303 49.9744 124.694 49.9744C125.074 49.9744 125.4 50.2888 125.4 50.6626V54.4834H127.839V50.6626C127.839 50.2829 128.153 49.9744 128.527 49.9744C128.918 49.9684 129.233 50.2829 129.233 50.6626Z" fill="white"/>
<path d="M135.557 58.2034C135.557 58.3517 135.504 58.4882 135.433 58.595C135.433 58.6068 135.433 58.6068 135.433 58.6068C134.81 59.4849 133.902 59.9892 132.929 59.9892C131.968 59.9892 131.06 59.4849 130.437 58.6068C130.372 58.5 130.312 58.3517 130.312 58.1975V50.6627C130.312 50.283 130.627 49.9982 131.019 49.9567H132.876C133.255 49.9567 133.582 50.283 133.582 50.6627C133.582 51.0424 133.255 51.3687 132.876 51.3687H131.713V53.3206H132.947C133.908 53.3206 134.816 53.8249 135.439 54.703C135.522 54.8394 135.563 54.9462 135.563 55.0946V58.2034H135.557ZM134.163 57.9779V55.3497C133.825 54.9403 133.392 54.7267 132.941 54.7267H131.707V57.9779C132.045 58.3695 132.478 58.6009 132.929 58.6009C133.392 58.6009 133.825 58.3695 134.163 57.9779ZM140.054 59.301C140.054 59.6807 139.74 59.9892 139.348 59.9892H136.572C136.192 59.9892 135.866 59.6747 135.866 59.301C135.866 58.9094 136.192 58.595 136.572 58.595H137.26V51.3746H136.572C136.192 51.3746 135.866 51.0483 135.866 50.6686C135.866 50.2889 136.192 49.9626 136.572 49.9626H139.348C139.74 49.9626 140.054 50.2889 140.054 50.6686C140.054 51.0483 139.74 51.3746 139.348 51.3746H138.66V58.595H139.348C139.746 58.6009 140.054 58.9094 140.054 59.301Z" fill="white"/>
<path fill-rule="evenodd" clip-rule="evenodd" d="M82.903 71.1903H88.2367V73.3024H82.9089L82.8259 78.5234C83.3717 79.0158 84.0362 79.2828 84.7303 79.2828C85.644 79.2828 86.5339 78.7903 87.1806 77.9063C87.6018 77.3605 88.3909 77.2181 88.9605 77.6216C89.53 78.0013 89.6784 78.7607 89.2809 79.3065C88.1417 80.8491 86.4865 81.7568 84.7303 81.7568C82.9505 81.7568 80.34 81.1813 80.1798 79.3065C80.1205 78.6302 80.2213 78.4818 80.1561 77.9301L80.1679 72.4362H80.1739L80.162 67.0076C80.2273 66.4559 80.1323 66.3135 80.1857 65.6312C80.34 63.7564 82.9564 63.1809 84.7363 63.1809C86.4924 63.1809 88.1477 64.0827 89.2868 65.6312C89.6843 66.1711 89.536 66.9364 88.9664 67.3161C88.3969 67.7196 87.6078 67.5772 87.1865 67.0313C86.5458 66.1533 85.6559 65.6549 84.7363 65.6549C84.0421 65.6549 83.3776 65.916 82.8318 66.4143L82.903 71.1903Z" fill="white"/>
<path d="M77.4042 63.43C78.134 63.43 78.7095 64.0055 78.7095 64.7115C78.7095 65.4413 78.134 66.0168 77.4042 66.0168H75.1438V80.4456C75.1438 81.1753 74.5683 81.7508 73.8623 81.7508C73.1325 81.7508 72.557 81.1753 72.557 80.4456V66.0168H70.3026C69.5728 66.0168 68.9973 65.4413 68.9973 64.7115C68.9973 64.0055 69.5728 63.43 70.3026 63.43H77.4042Z" fill="white"/>
<path d="M100.394 66.4974V80.4515C100.394 81.1575 99.819 81.7567 99.0892 81.7567C98.3832 81.7567 97.8077 81.1575 97.8077 80.4515V77.9656H93.2928V80.4515C93.2928 81.1575 92.6936 81.7567 91.9875 81.7567C91.2578 81.7567 90.6823 81.1575 90.6823 80.4515V66.4974C90.6823 66.2482 90.7594 65.9693 90.9315 65.7439C92.0587 64.1123 93.7437 63.1868 95.5473 63.1868C97.3272 63.1868 99.0121 64.1123 100.139 65.7439C100.323 65.9693 100.394 66.2422 100.394 66.4974ZM93.2928 75.3789H97.8077V66.9186C97.1788 66.1651 96.3779 65.7617 95.5473 65.7617C94.7167 65.7617 93.892 66.1888 93.2869 66.9186V75.3789H93.2928Z" fill="white"/>
<path d="M110.059 63.43C110.789 63.43 111.364 64.0055 111.364 64.7115C111.364 65.4413 110.789 66.0168 110.059 66.0168H107.799V80.4456C107.799 81.1753 107.223 81.7508 106.517 81.7508C105.787 81.7508 105.212 81.1753 105.212 80.4456V66.0168H102.951C102.222 66.0168 101.646 65.4413 101.646 64.7115C101.646 64.0055 102.222 63.43 102.951 63.43H110.059Z" fill="white"/>
<path d="M122.31 75.5569C122.31 75.8357 122.233 76.1086 122.061 76.3103C120.934 77.9419 119.249 78.8674 117.469 78.8674C116.538 78.8674 115.713 78.5648 115.209 78.0902V80.4515C115.209 81.1813 114.633 81.7567 113.903 81.7567C113.203 81.7567 112.622 81.1813 112.622 80.4515V64.7412C112.622 64.0115 113.197 63.436 113.903 63.436C114.307 63.436 114.633 63.614 114.882 63.8631C115.659 63.4122 116.561 63.1868 117.469 63.1868C119.249 63.1868 120.958 64.1123 122.085 65.7439C122.233 65.9693 122.31 66.2185 122.31 66.4974V75.5569ZM119.723 75.1297V66.9245C119.095 66.171 118.317 65.7676 117.463 65.7676C116.632 65.7676 115.832 66.171 115.203 66.9245V75.1297C115.832 75.8595 116.632 76.2866 117.463 76.2866C118.317 76.2807 119.095 75.8595 119.723 75.1297Z" fill="white"/>
<path d="M134.028 78.6657C134.028 78.9683 133.928 79.2412 133.779 79.4429C132.652 81.0744 130.967 82 129.187 82C127.378 82 125.699 81.0685 124.571 79.4666C124.423 79.2412 124.322 78.992 124.322 78.7132V66.4914C124.322 66.2422 124.399 65.9634 124.571 65.7379C125.699 64.1064 127.384 63.1808 129.187 63.1808C130.967 63.1808 132.652 64.1064 133.803 65.7379C133.951 65.9634 134.028 66.2422 134.028 66.4914V78.6657ZM131.448 78.2682V66.9245C130.819 66.1948 130.018 65.7676 129.187 65.7676C128.333 65.7676 127.532 66.1948 126.903 66.9245V78.2682C127.532 79.0217 128.333 79.4251 129.187 79.4251C130.012 79.4192 130.819 79.0157 131.448 78.2682Z" fill="white"/>
<path d="M145.247 73.7473C145.549 73.9964 145.721 74.3524 145.721 74.7499V78.6656C145.721 78.9445 145.644 79.1937 145.496 79.4191C144.369 81.0507 142.66 81.9821 140.88 81.9821C139.071 81.9821 137.392 81.0507 136.264 79.4191C136.164 79.2708 136.039 79.0691 136.039 78.6894V66.4676C136.039 66.2184 136.116 65.9633 136.264 65.7379C137.392 64.1063 139.077 63.1808 140.88 63.1808C142.66 63.1808 144.345 64.1063 145.496 65.7379C145.644 65.9633 145.721 66.1413 145.721 66.4913V70.4545C145.721 70.8579 145.543 71.208 145.247 71.4572L143.864 72.6141L145.247 73.7473ZM143.141 75.3551L141.034 73.6227C140.708 73.3438 140.56 73.0235 140.56 72.5963C140.56 72.2225 140.708 71.8665 141.034 71.6174L143.141 69.8612V66.9244C142.512 66.1947 141.711 65.7675 140.88 65.7675C140.05 65.7675 139.249 66.171 138.62 66.9244V78.2444C139.249 78.9979 140.05 79.4013 140.88 79.4013C141.711 79.4013 142.512 78.9979 143.141 78.2444V75.3551Z" fill="white"/>
<path fill-rule="evenodd" clip-rule="evenodd" d="M19.5345 76.2468C5.53786 76.9105 -2.82117 79.3762 0.874339 81.7444C4.56985 84.1188 18.9135 85.5008 32.9102 84.8311C46.9069 84.1675 55.2659 81.7018 51.5704 79.3335C47.8749 76.9652 33.5312 75.5832 19.5345 76.2468Z" fill="#C5C6C6" fill-opacity="0.3"/>
<path d="M42.0119 21.0942V51.7359H11.9547V21.0942C11.9547 17.7336 14.6944 15 18.049 15H35.9177C39.2844 15 42.0119 17.7336 42.0119 21.0942Z" fill="#0070BB"/>
<path d="M42.1641 51.7298H11.9547V58.4999H42.1641V51.7298Z" fill="#E72D34"/>
<path d="M51.2416 60.5334C51.2416 61.0935 51.0164 61.5988 50.645 61.9702C50.2858 62.3415 49.7805 62.5668 49.2082 62.5668L43.7958 62.993L39.7594 63.3096C30.7428 64.0219 21.6897 64.0219 12.6732 63.3096L3.23046 62.5607C2.10416 62.5607 1.19702 61.6475 1.19702 60.5273C1.19702 59.9672 1.42228 59.4618 1.79366 59.0905C2.15286 58.7191 2.67035 58.4938 3.23046 58.4938H49.2143C50.3406 58.4999 51.2416 59.4131 51.2416 60.5334Z" fill="#0070BB"/>
<path d="M29.0438 73.5802V77.7749C29.0438 77.7749 34.0969 81.2878 36.5809 79.9301C37.3419 79.5161 37.8168 78.7308 38.0603 77.781C38.0664 77.7749 38.0664 77.7749 38.0664 77.7749C38.6448 75.6197 38.0481 72.6487 36.9584 71.4311C35.3754 69.6838 29.0438 73.5802 29.0438 73.5802Z" fill="#E72D34"/>
<path d="M25.6103 73.5802V77.7749C25.6103 77.7749 20.5572 81.2878 18.0732 79.9301C17.3122 79.5161 16.8373 78.7308 16.5938 77.781C16.5877 77.7749 16.5877 77.7749 16.5877 77.7749C16.0093 75.6197 16.606 72.6487 17.6957 71.4311C19.2787 69.6838 25.6103 73.5802 25.6103 73.5802Z" fill="#E72D34"/>
<path d="M30.0363 74.5726V76.7826C30.0363 77.3305 29.5918 77.775 29.0439 77.775H25.6163C25.0683 77.775 24.6239 77.3305 24.6239 76.7826V74.5726C24.6239 74.0247 25.0683 73.5802 25.6163 73.5802H29.0439C29.5918 73.5802 30.0363 74.0247 30.0363 74.5726Z" fill="#E72D34"/>
</svg>
