<svg width="48" height="60" viewBox="0 0 48 60" fill="none" xmlns="http://www.w3.org/2000/svg">
<path d="M8.88 28.9719C8.47523 28.9719 8.07 28.8592 7.78615 28.671C7.42154 28.4079 7.17877 28.0316 7.098 27.8812C6.81462 27.4299 6.69277 26.9409 7.098 26.1887C7.34077 25.7002 7.86738 25.3616 8.35338 24.9853C8.92062 24.2332 9.32539 23.5187 8.19185 23.1047L8.47523 22.8416C9.28523 23.2552 9.528 23.8946 8.63677 25.1357C8.02938 25.6997 7.94862 26.3392 8.51538 27.0163C8.75862 27.3549 9.08261 27.6558 9.48738 27.9566C9.89262 28.2575 10.4598 28.4829 11.148 28.7087C12.2418 29.4986 13.0112 30.2885 13.3758 31.1156C14.024 32.1119 14.4252 33.2296 14.5505 34.3877C14.5911 34.7263 14.5911 35.2903 14.3885 36.0425C13.9025 37.6599 13.0925 38.9388 12.2825 40.1422C11.4725 40.932 10.5406 41.5337 9.48785 41.985V41.1579C11.0266 40.932 11.8772 39.9917 12.2825 38.7879C13.2138 35.4785 12.8086 32.9207 11.7965 30.4012C11.5934 29.9876 11.1886 29.649 10.824 29.2727C10.4192 29.1227 9.97385 29.0473 9.48738 29.0096C9.28523 29.0096 9.08261 28.9719 8.88 28.9719ZM9.48738 45.144L4.87015 47.0623C3.77631 47.3255 3.25015 47.7768 2.92615 48.228L3.12877 48.9802L2.88554 49.0933L2.44015 48.3035C2.35892 48.0399 2.39954 47.7768 2.76415 47.5886C3.29031 47.0246 3.65492 46.4606 3.49338 46.0093C3.858 45.4449 4.30338 45.2572 4.83 45.2945H6.36877C7.17877 45.2572 7.908 45.1445 8.51538 44.9186L8.96123 44.7682L6.69277 42.8122C6.49062 42.6245 6.00415 42.0978 5.84215 41.9096C5.68062 41.7215 5.07277 41.1952 4.87015 40.9693C1.26554 37.0959 0.455538 34.1246 0.090923 31.3415C-0.111692 28.6333 -0.0706154 26.1887 1.22492 22.917C2.19692 21.6005 2.96677 20.2466 4.91077 19.344C6.49062 18.93 7.98923 19.4567 9.48738 20.4347V22.014C9.204 21.6382 8.88 21.2996 8.556 20.961C6.89538 19.5322 5.35615 19.0055 4.01954 20.5475C3.08815 21.1115 2.35892 22.8789 2.31877 23.481C1.99477 27.4676 1.38692 33.786 5.154 38.4498C5.478 37.848 6.20677 37.5472 6.97662 37.7349C7.584 37.8853 7.908 38.4875 9.12277 39.1265C9.24462 39.1265 9.366 39.1642 9.48738 39.2019V39.8413C9.204 39.8413 8.83938 39.8036 8.43462 39.7282C7.66477 39.6532 7.30062 40.0667 6.936 40.5557V40.6312L7.66523 41.007C7.94862 41.0825 8.232 41.1575 8.59661 41.1952C8.92062 41.1952 9.204 41.1952 9.48738 41.1575V41.9846C9.28523 42.06 9.08261 42.1355 8.92062 42.2105C8.19138 42.3236 7.78661 42.3236 7.46215 42.2482L7.09754 42.1355L7.13862 42.2482C7.46262 42.7749 7.908 43.2262 8.43462 43.6775L9.48738 44.4296V45.144ZM9.48738 44.4296L9.56861 44.5046L9.77123 44.4296C10.176 44.2038 10.5812 43.9783 10.986 43.7152C12.7685 41.985 13.9025 40.6312 14.7125 39.4273V41.5338C13.3352 42.8876 11.8772 43.9406 10.2978 44.8432L10.1358 44.9186L10.176 44.9559C11.6746 45.4449 13.1732 45.8212 14.7125 45.8962V46.4229L13.9025 46.3475C12.444 46.122 11.2698 45.8212 10.2978 45.4076L9.64938 45.1068L9.48785 45.144V44.4296H9.48738ZM14.7125 45.8962C14.9151 45.9339 15.1177 45.9339 15.3605 45.9339H16.0897L16.5351 45.8212L16.8591 45.7835L17.7498 44.7305L18.1957 44.1665L18.4389 43.8656L20.5449 41.007L20.748 40.7816L20.5449 40.5557L19.4917 39.3523L18.4389 37.8853V31.3037L20.0188 27.3172L18.4389 22.3903L18.0337 21.0737C17.9525 20.7729 17.8311 20.472 17.7503 20.2089V16.0719C17.9931 16.6359 18.1957 17.2003 18.4389 17.7643C19.0503 19.2078 19.6309 20.6624 20.1803 22.1272L20.5449 23.1429L21.0314 24.3836L21.4357 23.4056L22.1243 21.7886L22.5702 20.8106V25.1357C22.3269 25.8879 22.0846 26.64 21.8815 27.4299L21.7602 27.054L21.8815 27.5426L22.3675 29.4986C22.4483 29.724 22.4889 29.9872 22.5702 30.2507V35.0649L22.1649 34.1246C21.9097 33.4514 21.6666 32.7743 21.4357 32.0936C21.3955 31.9432 21.3138 31.755 21.2742 31.605L20.868 30.2507L20.5449 31.0779L20.0589 32.4322L18.7223 35.403C19.2814 36.443 19.8895 37.4595 20.5449 38.4498C20.6663 38.6375 20.8283 38.8256 20.9497 38.976L21.3558 39.5405L21.4357 39.3519V41.7592L21.0711 42.2482C20.9095 42.474 20.748 42.6995 20.5449 42.8876C19.8954 43.7043 19.192 44.483 18.4389 45.219L18.3171 45.3322L18.0337 45.5953H18.0743L18.4389 45.4826V46.0093C18.3577 46.0466 18.2769 46.0466 18.1957 46.0843L17.7503 46.197L17.3045 46.3102L17.0617 46.5356C16.8591 46.7238 16.6971 46.9119 16.5351 47.1C16.4137 47.25 16.2918 47.3632 16.2111 47.5136C16.3325 47.5136 16.4543 47.5513 16.5351 47.5513V48.4539C15.9678 48.4162 15.3605 48.4162 14.7937 48.4162C14.7531 48.4539 14.7125 48.4539 14.7125 48.4539C14.3478 48.4916 13.9832 48.5289 13.6592 48.6793C12.8492 49.0933 11.9986 49.3565 10.986 49.6196C9.89262 49.6573 9.20446 49.5069 9.97385 48.5666C11.148 47.9272 12.8086 47.6263 14.7125 47.5886H14.7531L15.4417 47.5136L16.2918 46.5356L14.7125 46.4229V45.8962ZM21.4357 39.3519L22.5702 36.87V40.0672L22.3269 40.4808L22.5702 40.7439V42.6618L22.0846 42.2482L21.5169 41.6465L21.4357 41.7592V39.3523V39.3519ZM14.7125 39.4273C15.3198 38.5247 15.7251 37.7349 16.0897 36.945L16.5351 36.0052L16.8997 35.328L16.5351 34.4632L15.7657 32.5072C15.4011 31.7173 15.0365 30.9652 14.7125 30.2507V26.64C15.2797 27.7685 15.9678 29.16 16.5351 30.3635C17.0211 31.3792 17.4665 32.2817 17.7097 32.8457L17.7503 32.8835L17.7905 32.9962L18.4389 31.3037V37.8857L17.9525 37.1713L17.7503 37.5476L17.2237 38.3748C17.0211 38.7133 16.7783 39.0519 16.5351 39.3905C15.993 40.151 15.3833 40.868 14.7125 41.5342V39.4277V39.4273ZM17.7097 33.0339V33.0716L17.7503 33.1089V33.0716L17.7097 33.0339ZM9.48738 20.4343C9.48738 20.4377 9.48969 20.4716 9.528 20.4716C10.9865 21.6755 12.4445 23.1797 13.9025 25.248C14.1452 25.6243 14.3885 26.1133 14.7125 26.6396V30.2503C13.8618 28.6329 13.0112 27.204 12.2017 25.7747C11.3912 24.3832 10.4192 23.1047 9.48785 22.0136L9.48738 20.4343ZM9.48738 39.2015C10.5 39.3515 10.986 38.9756 10.7838 37.8099L11.2292 37.8476C11.4318 39.1637 10.986 39.8782 9.48785 39.8405V39.2015H9.48738ZM12.3632 10.3547L11.2694 10.3925C11.0266 10.4675 10.7838 10.6933 10.5812 10.9565L10.1358 10.6556C9.81185 10.2043 10.5005 9.86575 11.0672 9.52717H14.7125V10.2043C14.5098 10.1666 14.3478 10.0916 14.2265 9.97846L12.9711 9.90346V10.1666C13.5378 10.3547 14.0645 10.6933 14.7125 11.2573C14.8338 11.4077 14.9557 11.5205 15.1177 11.6713L15.0365 11.5582C15.1878 11.3475 15.3977 11.1787 15.6438 11.0696L16.4137 10.9565L16.2517 10.8437C16.1705 10.6933 16.1705 10.5052 16.2111 10.317C15.6438 10.317 15.1578 10.3547 14.7125 10.2043V9.52717H16.5351V13.2129L16.4945 13.2506L16.5351 13.326V13.3637L17.7503 16.0715V20.2085C17.3045 18.9296 16.9805 17.6512 16.5351 16.2969V13.3637V16.2969C16.2111 15.1689 15.7657 14.0405 15.1578 12.7997C14.9963 12.6112 14.8338 12.4235 14.7125 12.2726C14.0645 11.4455 13.4165 10.6556 12.3632 10.3547ZM16.5351 9.5276H18.4389V10.6556L17.7503 10.7683L17.0211 10.8815L17.7503 10.806L18.4389 10.6933V12.1599C18.3577 12.1226 18.2769 12.0472 18.1957 12.0099L17.7503 12.2353L17.2237 12.4607C17.4263 12.6112 17.5883 12.7616 17.7498 12.837V13.5892C17.4665 13.401 17.2237 13.2129 16.9403 13.0252L16.5351 13.2129V9.5276ZM16.5351 49.2433C16.9403 49.2056 17.3451 49.2056 17.7503 49.2056V49.92C17.6691 49.92 17.5883 49.92 17.5071 49.9578C16.6163 50.0332 16.3731 50.7849 17.7097 50.9358H17.7503V51.462C17.3045 51.4248 16.9403 51.387 16.5351 51.312V49.2433ZM15.6845 51.0485C14.7531 50.5599 14.2671 50.0705 15.2797 49.5065C15.6845 49.356 16.1298 49.2806 16.5351 49.2433V51.3116C16.2517 51.2366 15.9678 51.1616 15.6845 51.0485ZM16.5351 55.5613H15.1985C15.0771 55.5613 15.0365 55.524 15.0365 55.4486C15.0365 55.4113 15.1177 55.3736 15.2797 55.3736C15.4818 55.3359 15.6037 55.2982 15.6443 55.2609C15.6845 55.1855 15.7251 55.1105 15.7251 54.9973V53.0045C15.7251 52.8536 15.7251 52.7786 15.6845 52.7032C15.6845 52.6655 15.6438 52.6282 15.5631 52.5905C15.5225 52.5528 15.4011 52.515 15.2391 52.515C15.1985 52.515 15.0365 52.4778 14.9958 52.4778C14.9151 52.44 14.8343 52.44 14.8343 52.4023C14.8343 52.3273 15.0771 52.2896 15.1989 52.2896H16.5351V55.5617V55.5613ZM16.5351 55.8626C16.9403 55.8999 17.3451 55.9376 17.7503 56.088V56.9152C16.9403 56.9906 16.5351 57.3669 16.6565 57.9686C16.7783 58.3822 17.2237 58.7958 17.7503 58.9466V59.6237C17.3451 59.4729 16.9403 59.3225 16.5351 59.0966V55.8626ZM15.2797 58.2695C15.0365 58.044 14.8338 57.8182 14.7125 57.555C14.5911 57.2915 14.5505 57.0283 14.7125 56.6898C14.7125 56.6898 14.7125 56.6525 14.7531 56.6147L15.9678 55.8999C16.1709 55.8626 16.3731 55.8626 16.5351 55.8626V59.097C16.0897 58.8712 15.6443 58.608 15.2797 58.2699V58.2695ZM17.7503 48.5285C17.3451 48.4912 16.9403 48.4912 16.5351 48.4535V47.5509C16.9403 47.5882 17.3451 47.5882 17.7503 47.6259V48.5285ZM17.7503 55.524L16.5351 55.5617V52.2896H17.5477C17.6691 52.2896 17.7092 52.3273 17.7092 52.4023C17.7092 52.4778 17.6285 52.515 17.4665 52.515C17.3451 52.515 17.2237 52.5528 17.1831 52.5905C17.1023 52.6282 17.0617 52.6655 17.0617 52.7409C17.0211 52.7786 17.0211 52.8913 17.0211 53.004V55.2609C17.0211 55.2982 17.0617 55.2982 17.1023 55.2982H17.7503V55.524ZM18.4389 14.0027C18.1957 13.89 17.9931 13.7396 17.7503 13.5892V12.837C18.0337 13.0625 18.1957 13.1756 18.4389 13.2883V14.0027ZM17.7503 48.5285V47.6259C17.9931 47.6636 18.1957 47.7013 18.4389 47.7386C19.1682 47.814 19.8563 47.9272 20.5449 48.1149C20.8283 48.1526 21.0711 48.2276 21.3554 48.303L21.4357 48.3408L22.5702 48.7543L22.9749 48.9043V50.2586C22.8535 50.2963 22.7322 50.334 22.5702 50.3713C22.3269 50.4468 22.0846 50.5599 21.8409 50.6349L21.4357 50.7476V50.0705L22.5702 49.6569L22.6915 49.6192L22.5702 49.5815L21.6388 49.356C21.5575 49.3183 21.5169 49.3183 21.4357 49.2806C21.1518 49.2056 20.868 49.0929 20.5449 49.0552C19.8563 48.867 19.1271 48.7166 18.4389 48.6416C18.1957 48.6039 17.9931 48.5662 17.7503 48.5285ZM17.7503 49.2056C17.8311 49.2056 17.9118 49.2433 17.9931 49.2433C18.1145 49.2433 18.2769 49.2433 18.4389 49.2806V49.9578C18.1551 49.92 17.9525 49.92 17.7503 49.92V49.2056ZM18.4389 49.2806C18.8035 49.3183 19.1682 49.431 19.5318 49.5815L20.5449 50.0705V51.0485C19.9375 51.2366 19.3297 51.3493 18.7218 51.462H18.4389V50.8603C18.7223 50.8226 19.0057 50.7853 19.3297 50.7476L20.0492 50.514C19.6435 50.1806 19.0015 49.9955 18.4385 49.9578L18.4389 49.2806ZM17.7503 51.462V50.9358C17.9525 50.898 18.1551 50.898 18.4389 50.8603V51.462H17.7503ZM18.4389 52.515H18.3983C18.2769 52.515 18.1957 52.4778 18.1957 52.4023C18.1957 52.3273 18.2769 52.2896 18.3983 52.2896H18.4389V52.515ZM18.4389 52.2896H20.5449V52.5528C20.4646 52.5528 20.4226 52.5905 20.3829 52.5905C20.3026 52.6282 20.2606 52.6655 20.2606 52.7405C20.2606 52.7786 20.2209 52.8913 20.2209 53.004V54.8469C20.2209 54.9973 20.2606 55.0727 20.2606 55.1477C20.2606 55.1855 20.3423 55.2609 20.4226 55.2982C20.4642 55.2982 20.5043 55.3359 20.5449 55.3359V55.8245C20.2606 56.3516 20.0995 56.9906 18.4786 56.8779H18.4389V56.3143C19.1682 56.427 19.7751 56.3893 20.0188 55.8253L20.0589 55.7499C20.0188 55.6749 19.9375 55.6372 19.8152 55.5999C19.7003 55.5529 19.5766 55.5272 19.4511 55.5245H18.4389V55.2986H18.6817C18.7629 55.2986 18.8031 55.2986 18.8437 55.2613C18.8843 55.2613 18.924 55.1859 18.924 55.1109V52.8918C18.924 52.779 18.8843 52.7413 18.8843 52.6659C18.8437 52.6286 18.8031 52.5909 18.7223 52.5909C18.6817 52.5532 18.6009 52.5155 18.4389 52.5155V52.29V52.2896ZM18.4389 55.524H17.7503V55.2982H18.4389V55.524ZM17.7503 56.088L17.9931 56.2012C18.1145 56.2385 18.2769 56.2762 18.4389 56.3139V56.8779C18.1551 56.8779 17.9525 56.8779 17.7503 56.9156V56.088ZM17.7503 59.6237V58.9466C17.7503 58.9466 17.7905 58.9466 17.7905 58.9839C18.0337 59.097 18.1957 59.2097 18.4389 59.2847C19.1271 59.5106 19.8152 59.3979 20.4646 59.0593C20.5043 59.0216 20.5043 59.0216 20.5449 59.0216V59.6987C20.1587 59.8558 19.7489 59.9573 19.3297 59.9996C19.0463 59.9996 18.8035 59.9619 18.5603 59.9242C18.5197 59.8869 18.4786 59.8869 18.4389 59.8869C18.1957 59.8115 17.9931 59.6983 17.7503 59.6233V59.6237ZM20.5449 59.0216C20.8283 58.9089 21.1117 58.683 21.4357 58.3822C21.8003 58.0436 22.2055 57.555 22.5702 57.066V58.3072C22.2239 58.6636 21.8442 58.9907 21.4357 59.2847C21.3554 59.3225 21.3138 59.3602 21.2335 59.4356C21.0314 59.5106 20.7877 59.6233 20.5449 59.6987V59.0216ZM18.4389 46.0089V45.4822C19.086 45.219 19.8152 44.8805 20.5449 44.4292L21.4357 43.9025C21.5575 43.8275 21.6789 43.7525 21.8003 43.6393L22.5702 43.0376V44.1283C22.2055 44.3538 21.8409 44.6169 21.4357 44.8055C21.1518 44.9555 20.868 45.1063 20.5449 45.2568C19.9375 45.5576 19.2083 45.783 18.4389 46.0089ZM20.0995 4.07403L20.5449 2.64475L21.4357 1.8176C21.5869 1.72057 21.7356 1.62011 21.8815 1.51632L21.5972 1.06503C21.5575 0.952316 21.4763 0.801887 21.5169 0.651459L22.0029 0.275173L22.5702 0.0128874V7.49746C22.1243 7.57246 21.8003 7.34703 21.8003 6.82032L21.4357 6.48175C21.1117 6.18089 20.7877 5.84232 20.5449 5.46603C20.2606 5.05246 20.0589 4.56389 20.0995 4.07489V4.07403ZM20.6257 4.07403C20.6257 4.63803 20.91 5.12703 21.4357 5.61603C21.6388 5.76603 21.8409 5.91689 22.0846 6.1046C22.2462 4.78889 22.3269 3.47232 22.1649 2.19346C21.903 2.30032 21.6577 2.43942 21.4357 2.60703C20.868 3.02103 20.6257 3.54732 20.6257 4.07403ZM19.0463 10.6556C19.5734 10.7683 20.0589 11.0692 20.5449 11.4455V15.0935C20.3423 14.7549 20.1406 14.454 19.9375 14.1159C19.3698 14.2659 18.8843 14.1909 18.4389 14.0027V13.2883C18.7223 13.4387 18.9651 13.4765 19.2891 13.5515L19.5318 13.326C19.2489 12.912 18.924 12.4989 18.4389 12.1603V10.6933L19.0463 10.6556ZM20.5449 11.4455C20.7065 11.5582 20.868 11.6713 21.0314 11.784C21.1934 11.934 21.3554 12.0849 21.4357 12.1976C21.8003 12.6862 21.6789 13.0247 21.4357 13.3633C21.3554 13.4387 21.2742 13.5519 21.1934 13.6269C21.2737 13.7396 21.3554 13.8523 21.4357 13.9655C21.8409 14.5295 22.2055 15.0935 22.5702 15.6579C22.7317 15.8456 22.8535 16.0715 22.9749 16.2969V19.569L22.5702 18.7419L21.8409 17.2749C21.7195 17.0495 21.5575 16.7863 21.4357 16.5605C21.1518 16.0715 20.868 15.5825 20.5449 15.0935V11.4455ZM20.5449 8.58689C20.3423 7.94789 19.6542 7.75975 18.6817 7.90975C18.5202 7.83475 18.6009 7.68432 18.7629 7.4966L20.5445 7.5716H20.7877L21.4357 7.98517L21.8409 8.24875C22.8535 8.85046 22.4483 9.33946 21.8409 9.75303C21.7195 9.86575 21.5575 9.90346 21.4357 9.97846C21.1572 10.1294 20.8574 10.2433 20.5449 10.317C20.1803 10.4302 19.8152 10.5056 19.4917 10.5429L18.4389 10.6556V9.52717H19.6943C20.0995 9.52717 20.4226 9.45218 20.5449 9.07589C20.586 9.00089 20.586 8.92589 20.6257 8.81275C20.586 8.73775 20.586 8.66232 20.5449 8.58732V8.58689ZM21.4357 50.8603L21.5575 50.9358C21.8003 51.1612 22.0846 51.462 22.2868 51.7629C22.3675 51.876 22.4889 52.0265 22.5702 52.1392V53.3803C22.3671 52.8913 22.0846 52.4778 21.7602 52.1015L21.4357 51.7629V50.8603ZM20.748 50.973L20.586 51.0485H20.5445V50.0705L20.9497 50.259L21.4362 50.0705V50.7476L21.3554 50.7853L21.4357 50.8603V51.7629L20.748 50.973ZM20.9903 50.2586H20.9497L20.5449 50.3713L20.9903 50.2586ZM20.5449 55.3359H20.7877C20.8283 55.3359 21.1938 55.3359 21.4357 55.3736C21.5575 55.3736 21.6388 55.4113 21.6388 55.4486L21.7195 56.2012C21.7195 56.3512 21.5972 56.2762 21.4763 56.2762H21.4357C21.394 56.2768 21.353 56.2665 21.3173 56.2466C21.2816 56.2267 21.2526 56.1979 21.2335 56.1635C21.1934 56.088 21.1117 55.9376 21.0715 55.8249C21.0314 55.7872 20.8283 55.8249 20.586 55.7872H20.5445L20.5449 55.3359ZM20.5449 52.2896H20.748C20.868 52.2896 21.2335 52.3273 21.2335 52.4023C21.2335 52.44 20.8685 52.515 20.7065 52.515C20.6257 52.515 20.586 52.515 20.5449 52.5528V52.2896ZM22.9749 41.157V42.7368L22.8125 42.8495L22.8942 42.8872L22.9749 42.8495V43.8275L22.8125 43.9775C22.7322 44.0156 22.6509 44.0906 22.5702 44.1283V43.0376L22.8125 42.8495L22.5702 42.6613V40.7443L22.9749 41.157ZM22.9749 42.8499L23.1369 42.699L23.0963 42.6613L22.9749 42.7368V41.157L23.8255 42.0596L23.8662 42.0223L24.3923 41.4579V43.6393L23.8662 43.2257L23.8255 43.188L22.9749 43.8275V42.8495V42.8499ZM24.3928 41.4579L24.7168 41.157V42.7745L24.5548 42.6613L24.5142 42.699L24.7168 42.8495V43.8275L24.3928 43.6393V41.4579ZM22.9749 39.4269L22.5702 40.0663V36.87L22.9749 36.0052L22.5702 35.0649V30.2507C22.6915 30.6643 22.8535 31.0779 22.9749 31.5296C23.0963 31.8305 23.2182 32.0936 23.2989 32.3945L23.8662 33.786L23.9068 33.8615L24.3928 32.6203V38.7506L24.2709 38.5247L23.9063 37.8103L23.8662 37.8853L23.5015 38.5625L22.9754 39.4273L22.9749 39.4269ZM24.3928 32.6199L24.5142 32.394C24.5548 32.2059 24.636 32.0555 24.7168 31.8673V39.2015L24.3928 38.7502V32.6203V32.6199ZM22.5692 25.1357V20.8106L22.9745 19.908L23.0557 19.7576L22.9745 19.5695V16.2973L23.8652 17.9525L23.9063 18.0275L24.1085 17.6516C24.2303 17.463 24.3115 17.313 24.3923 17.1249C24.5137 16.9749 24.594 16.7863 24.7163 16.6363V23.556L24.3923 22.8416L23.9063 21.6382L23.8657 21.7132L23.6225 22.2776C23.4203 22.8416 23.1771 23.4056 22.9745 23.97C22.8531 24.3459 22.6911 24.7222 22.5697 25.1357H22.5692ZM24.7163 16.6359C24.8377 16.3727 24.9997 16.1096 25.1617 15.846V18.93L24.7971 19.7199L25.1617 20.547V24.9476L24.8774 23.9319L24.7158 23.556V16.6359H24.7163ZM22.9749 0.200602C23.0963 0.275602 23.1775 0.388745 23.2578 0.539173L23.8662 0.312887C24.0688 0.275173 24.2308 0.275173 24.3923 0.275173H24.7168V1.21546C24.636 1.17817 24.5945 1.14046 24.5548 1.14046C24.4735 1.10274 24.4325 1.06503 24.3928 1.06503C24.2308 0.952316 24.0282 0.952316 23.8662 0.99003C23.7849 1.02774 23.6635 1.06503 23.5828 1.14003L23.1775 1.55403L23.3802 3.24689C23.5417 3.24689 23.7032 3.17146 23.8662 3.09603L24.3923 2.75746V4.63803C24.2709 4.56303 24.0277 4.56303 23.8662 4.56303H23.7849C23.6635 4.60032 23.5828 4.67575 23.5417 4.86389C23.6635 4.9766 23.4609 5.99189 23.5828 5.99189C23.6635 5.87917 23.7443 5.61603 23.8662 5.42789C23.9469 5.27746 24.0688 5.12703 24.1491 5.0516L24.3928 4.9016V5.31517C24.2709 5.57832 24.2709 5.91689 24.3115 6.25546C24.3522 6.29275 24.3928 6.36817 24.3928 6.40546V7.53389C24.2308 7.45889 24.0688 7.34617 23.8662 7.23303C23.8255 7.19575 23.7849 7.12032 23.7037 7.08303C23.3395 6.85717 23.1369 7.08303 22.9749 7.38346C22.8538 7.45499 22.7137 7.49414 22.5702 7.4966V0.0124588L22.9749 0.200602ZM24.3928 2.75789L24.7168 2.49475V3.36003L24.5548 3.6236C24.5866 3.69055 24.6442 3.74405 24.7163 3.7736C24.8382 3.88675 25.0002 3.96217 25.1622 3.99946C25.3237 4.03717 25.4455 4.07489 25.5674 4.03717C25.7691 4.1126 26.0128 4.22532 26.2145 4.30032C26.4988 4.37575 26.7822 4.48889 26.9848 4.60117C27.2682 4.7516 27.39 4.90203 27.39 5.05246L26.9848 6.18089C26.8228 6.55717 26.5394 6.85803 26.2145 7.15889C26.1748 7.23389 26.1342 7.2716 26.0945 7.30889C25.7294 7.49746 25.4455 7.61017 25.1622 7.64746H24.7168C24.5945 7.61017 24.5137 7.57246 24.3928 7.53475V6.40675L24.7168 6.74532C24.8382 6.82032 24.9595 6.85803 25.1622 6.89532C25.2835 6.89532 25.4054 6.89532 25.5674 6.85803L26.2145 6.33132C26.4582 6.06817 26.5795 5.80503 26.5394 5.7296C26.5394 5.39103 26.4185 5.20289 26.2145 5.09017C26.1748 5.09017 26.1342 5.05246 26.0945 5.01517C25.8508 4.90203 25.5272 4.8266 25.1622 4.90203C25.0403 4.90203 24.9189 4.93975 24.8382 4.97746C24.7569 5.01517 24.7168 5.01517 24.7168 5.05246C24.5834 5.10903 24.4707 5.20066 24.3928 5.31603V4.90203C24.5945 4.78932 24.5543 4.6766 24.3928 4.63889V2.75789ZM22.7728 53.8693C22.7322 53.6816 22.6509 53.5308 22.5697 53.3808V52.1396C22.7322 52.365 22.8535 52.5909 22.9749 52.779C23.2578 53.3053 23.5015 53.832 23.6635 54.3583L23.8662 54.81L24.0688 54.3583C24.1902 54.0575 24.2709 53.7943 24.3928 53.4935C24.5142 53.3053 24.5945 53.1176 24.7168 52.9295V54.6596C24.636 54.8473 24.5548 55.0355 24.5137 55.2236L24.3928 55.4118L24.2709 55.6749C24.3115 55.7499 24.3522 55.8249 24.3928 55.863V57.3296C24.3522 57.2919 24.3115 57.2169 24.2709 57.1415L23.8662 56.4643L23.7037 56.7279C23.4609 57.1792 23.2182 57.555 22.9749 57.8563C22.8535 58.0063 22.6915 58.1572 22.5702 58.3076V57.0665C22.7317 56.8783 22.8535 56.6529 22.9749 56.4648C23.167 56.2184 23.33 55.9536 23.4609 55.6749V55.6372L23.2578 55.2236C23.1775 54.9605 23.0963 54.7346 22.9749 54.4338C22.9343 54.2456 22.8535 54.0575 22.7723 53.8698L22.7728 53.8693ZM24.3928 55.863C24.5142 56.0508 24.5945 56.2016 24.7168 56.3516V57.7432C24.5945 57.6305 24.5137 57.48 24.3928 57.3296V55.863ZM23.8662 49.206L24.3923 49.0179V50.1463L23.8662 49.9582L23.1775 50.184C23.1369 50.184 23.0562 50.2213 22.9749 50.259V48.9048L23.8255 49.2433L23.8662 49.206ZM24.3923 49.0179L24.7168 48.9429V50.2213H24.636L24.3928 50.1463V49.0179H24.3923ZM25.1622 40.6685L25.4455 40.4053L25.1622 39.954V36.7569L26.2145 39.0137L26.4582 39.5023L26.8228 39.0892C26.8634 38.976 26.9442 38.9006 26.9848 38.8256L28.0786 37.1709C28.4132 36.6313 28.7239 36.0793 29.01 35.5162V35.4785L28.0782 33.297L27.7135 32.5072L26.9848 30.6266L26.904 30.3635L26.5394 31.6423C26.4582 31.9432 26.3363 32.2063 26.2145 32.5072V22.9543L26.8228 24.3459L26.9848 23.8573L27.6328 22.1645C27.7948 21.7886 27.9162 21.4123 28.0782 21.0365V26.565L27.7948 27.4299L28.0782 28.107L29.0908 30.7397V38.2993L28.2808 39.4273L28.0782 39.6909L27.1057 40.8189L28.0782 42.0978V43.8279L26.9848 42.5868L26.7415 42.2482L26.3368 41.6842L26.2145 41.7969L25.6883 42.3236L25.1622 42.7372V40.6685ZM28.0782 21.0365C28.4022 20.1712 28.7266 19.3436 29.0908 18.5165V23.2929L28.0782 26.565V21.0365ZM28.0782 42.0978L29.0908 43.452V44.8809C28.7262 44.5423 28.4022 44.2038 28.0782 43.8279V42.0978ZM25.1622 42.7372L24.9189 42.9253L25.1622 43.1507V44.2038L24.7168 43.8279V42.8499L24.8783 42.9626L24.9189 42.9253L24.7168 42.7749V41.1575L25.1622 40.6689V42.7372ZM25.1622 43.1507L25.9726 43.7525L26.2145 43.941L26.9848 44.4296L28.0786 44.9936V45.7085C27.6734 45.558 27.3494 45.4076 26.9848 45.2572C26.7415 45.144 26.4988 44.9936 26.2145 44.8809C25.9716 44.7301 25.7286 44.5797 25.4852 44.4296L25.1622 44.2038V43.1507ZM28.0782 44.9936C28.4022 45.144 28.7663 45.2945 29.0908 45.4449V46.0466C28.7509 45.9398 28.4133 45.8269 28.0782 45.708V44.9936ZM25.1622 35.1776L24.8382 36.0047L25.1622 36.7573V39.954L24.7168 39.2019V31.8678C24.8783 31.4165 25.0398 30.9279 25.1622 30.4762C25.2835 30.1376 25.3652 29.799 25.4455 29.4986L25.8914 27.6557V27.618L25.9311 27.3549L25.1622 24.9476V20.5475L25.7294 21.7509L26.2145 22.9543V32.5072C26.019 33.0485 25.8166 33.5877 25.6075 34.1246L25.1622 35.1776ZM25.1622 0.313316C25.6075 0.35103 25.9726 0.388745 26.2145 0.501459V1.89303C26.0128 2.19389 25.6486 2.53246 25.1622 2.94603V0.313316ZM25.1622 2.94603C25.0403 3.05875 24.8778 3.17189 24.7569 3.2846L24.7168 3.3596V2.49475C24.7975 2.34432 24.9189 2.15617 25.0002 2.00617C25.1215 1.6676 24.9595 1.40403 24.7168 1.21589V0.275602C24.8783 0.275602 25.0002 0.313316 25.1622 0.313316V2.94603ZM25.0002 53.8698C24.8778 54.1329 24.7975 54.4338 24.7168 54.6596V52.9295C24.8382 52.6659 25.0002 52.4028 25.1622 52.1396C25.2434 52.0269 25.3652 51.8765 25.4455 51.7633C25.6818 51.4721 25.9387 51.1958 26.2145 50.9362V51.8765L26.0128 52.1019C25.6888 52.4782 25.4054 52.929 25.1622 53.4185C25.0841 53.5605 25.0295 53.7126 25.0002 53.8698ZM26.2145 50.9362V50.8985L26.4185 50.7858L26.2145 50.7103L25.9311 50.6353C25.6888 50.5599 25.4455 50.4468 25.1622 50.3717C25.0002 50.3345 24.8382 50.259 24.7168 50.2218V48.9429L25.1622 48.7543V49.5819L25.0403 49.6196L25.1622 49.6573L25.9726 49.9582L26.2145 50.0336V50.7108V50.0336L26.8228 50.259L26.9848 50.1463V50.2963L26.8634 50.259H26.8228L26.9848 50.2968V50.1463L27.5109 49.9205C27.714 49.8078 27.8755 49.7323 28.0786 49.6573C28.3994 49.5056 28.7395 49.3919 29.0908 49.3188V49.9959C28.7262 50.0709 28.3615 50.184 28.0782 50.3345C27.9567 50.3743 27.8461 50.4384 27.7542 50.5222L27.1874 50.3722L27.6734 50.5222C27.7948 50.5599 27.9568 50.5976 28.0782 50.6353C28.2 50.6726 28.362 50.7103 28.4834 50.748L29.0908 50.8608V51.5002H29.0497L28.0782 51.2743L27.228 51.0489L27.0249 51.0112L26.9848 51.0489L26.2145 51.876V50.9362ZM29.0908 49.3188C29.334 49.281 29.5768 49.2438 29.8606 49.2438C29.9008 49.2438 29.982 49.206 30.0632 49.206V49.9205C29.7794 49.9205 29.4148 49.9582 29.0908 49.9959V49.3188ZM25.1622 48.7548L26.2145 48.3785L26.4582 48.3035C26.6202 48.2658 26.8228 48.228 26.9848 48.153L28.0786 47.9272V48.8298C27.714 48.9052 27.3494 49.0183 26.9848 49.0933C26.7415 49.1683 26.4988 49.2433 26.2145 49.3188C26.2145 49.3188 26.1748 49.3188 26.1748 49.3565L25.1622 49.5819V48.7548ZM25.1622 57.0288C25.5272 57.5177 25.8914 57.9313 26.2145 58.3076C26.4988 58.5707 26.7822 58.7962 26.9848 58.9093C27.1057 58.9843 27.228 59.022 27.3088 59.0597C27.552 59.1725 27.7948 59.2852 28.0782 59.3229C28.4022 59.436 28.7266 59.436 29.0908 59.3606V59.9246C28.8886 59.9623 28.6454 60 28.4428 60C28.3209 60 28.2 59.9623 28.0782 59.9623C27.7135 59.8873 27.3489 59.7742 26.9848 59.6237C26.8634 59.5487 26.7018 59.511 26.5394 59.436C26.4582 59.3606 26.3363 59.2852 26.2145 59.2102C25.8914 58.947 25.5272 58.6835 25.1622 58.2699V57.0288ZM29.0908 59.3606C29.419 59.2767 29.7327 59.15 30.0226 58.9843C30.0226 58.947 30.0628 58.947 30.0628 58.947V59.6615C29.7794 59.7369 29.4951 59.8496 29.172 59.9246H29.0908V59.3606ZM24.7168 57.7432V56.352C24.8382 56.5775 25.0002 56.8033 25.1622 57.0292V58.2699C24.9918 58.1112 24.8423 57.9344 24.7168 57.7432ZM26.2145 52.29V53.343C26.0945 53.2303 26.0128 52.8545 26.0945 52.7036C26.0945 52.7036 26.0945 52.6286 26.1342 52.5536C26.1748 52.4405 26.2145 52.365 26.2145 52.29ZM25.9726 9.75346C25.3652 9.37717 24.9595 8.8886 25.9726 8.28646L26.2145 8.13646L26.9848 7.60932H27.0254L28.0782 7.57203L29.01 7.53432C29.0497 7.53432 29.0497 7.57203 29.0908 7.57203V7.9106C28.686 7.87289 28.3615 7.87289 28.0782 7.94832C27.5922 8.06103 27.2682 8.32417 27.1874 8.85089C27.2682 9.37718 27.5922 9.52803 28.0782 9.52803V10.5056C27.7135 10.4679 27.3489 10.3929 26.9848 10.2802C26.7415 10.167 26.4988 10.0543 26.2145 9.9416C26.1342 9.86617 26.0529 9.82846 25.9726 9.75346ZM28.0782 9.5276H29.0908V10.656L28.3209 10.5433C28.2402 10.5056 28.1594 10.5056 28.0782 10.5056V9.5276ZM25.1622 15.846C25.498 15.2988 25.8489 14.7596 26.2145 14.229V16.899C25.8395 17.5523 25.4885 18.2173 25.1622 18.8927V15.846ZM26.2145 14.229C26.3765 14.0409 26.4988 13.8155 26.6603 13.6273C26.4988 13.4392 26.3368 13.2887 26.2145 13.0629C26.1748 12.9129 26.1342 12.7243 26.2145 12.4989C26.3368 12.2735 26.4988 12.0476 26.8228 11.7845L26.9848 11.634V15.5829C26.7415 15.9965 26.4988 16.4477 26.2145 16.8995V14.2286V14.229ZM26.9848 52.1396V52.6659C26.9442 52.7036 26.8634 52.7413 26.7822 52.779C26.6603 52.854 26.4988 53.3808 26.3765 53.3808C26.3368 53.4185 26.2962 53.4185 26.2149 53.343V52.29C26.2565 52.2523 26.2962 52.2146 26.3368 52.1773C26.4185 52.1396 26.5394 52.1396 26.7415 52.1396H26.9848ZM28.0786 55.6749H27.6328C27.4302 55.6749 27.2682 55.6372 27.2682 55.5995C27.2682 55.5622 27.7948 55.4495 27.7948 55.4118C27.8354 55.4118 27.9162 55.374 27.9974 55.3363H28.0782L28.0786 55.6749ZM27.8755 52.4778C27.5922 52.4778 27.3494 52.5155 27.228 52.5532C27.1472 52.5909 27.1057 52.6286 26.9848 52.6659V52.1396H29.0908V55.6749H28.0782V55.3363C28.1594 55.2986 28.2 55.2613 28.2 55.2236C28.2402 55.1859 28.2402 55.1482 28.2402 55.0732V52.7413C28.2402 52.6286 28.2402 52.5909 28.2 52.5532C28.2 52.5532 28.1188 52.5155 28.0782 52.5155C27.9974 52.4782 27.9568 52.4782 27.876 52.4782L27.8755 52.4778ZM28.0786 56.2389C28.3209 56.3893 28.686 56.427 29.0908 56.352V56.8783C28.7484 56.9092 28.4029 56.8708 28.0782 56.7656L28.0786 56.2389ZM27.066 55.5995L27.6734 55.7126C27.7542 55.9757 27.876 56.1262 28.0782 56.2389V56.7656C27.4708 56.5025 27.39 55.9757 27.066 55.5999V55.5995ZM26.9848 11.634C27.3494 11.3705 27.714 11.1073 28.0786 10.9192C28.3209 10.8065 28.524 10.6937 28.7663 10.656L29.0908 10.6937V12.4239C28.7663 12.687 28.524 13.0256 28.3209 13.3265L28.5646 13.5519C28.7663 13.5146 28.9292 13.4769 29.0908 13.4392L30.0632 12.9125C30.2248 12.7997 30.4278 12.6493 30.6706 12.4612L30.0632 12.198V10.8065L29.0908 10.6565V9.52717H31.2775V13.2129L30.9545 13.0252C30.6673 13.25 30.37 13.4633 30.0632 13.6646C29.7388 13.8523 29.4148 14.0032 29.0908 14.1159C28.7663 14.1909 28.4428 14.2286 28.0782 14.1532C28.038 14.1532 27.9568 14.1532 27.9166 14.1159C27.5922 14.6045 27.3088 15.0935 26.9848 15.5825V11.634ZM31.2771 9.5276H33.1412V10.2047C32.6958 10.3552 32.1688 10.3175 31.6426 10.3175C31.6832 10.5433 31.6832 10.7315 31.6025 10.8819L31.4811 10.9569L32.25 11.0696C32.4964 11.1787 32.7064 11.3477 32.8578 11.5586L33.1412 11.2955V12.2735C33.0198 12.4612 32.8578 12.6493 32.6958 12.8375C32.088 14.0786 31.6426 15.2443 31.2775 16.3727L30.0632 20.2466V16.1846C30.4539 15.2767 30.8586 14.374 31.2771 13.4769C31.2771 13.4392 31.2771 13.4015 31.3191 13.3642L31.3994 13.251L31.2775 13.2133L31.2771 9.5276ZM29.0908 10.6933L30.0632 10.8065V12.198L29.6571 12.0099C29.4148 12.123 29.2528 12.2735 29.0908 12.4239V10.6933ZM29.0908 48.6793C28.7262 48.717 28.4022 48.7925 28.0782 48.8298V47.9272C28.4022 47.8522 28.7266 47.8145 29.0908 47.7772V48.6793ZM29.982 52.5536C29.9409 52.5909 29.9409 52.6286 29.9409 52.7413V55.2236C29.9409 55.2613 29.982 55.2986 30.0632 55.3363H30.1846C30.2658 55.374 30.306 55.374 30.3462 55.4118C30.3863 55.449 30.9138 55.5617 30.9138 55.5995C30.9138 55.7126 30.4278 55.6749 30.0632 55.6749H29.0908V52.1392H30.0628V52.5155C30.0226 52.5155 29.982 52.5532 29.982 52.5532V52.5536ZM30.0632 44.7305V46.3102L29.5366 46.197C29.3746 46.1598 29.2528 46.0843 29.0908 46.047V45.4449L29.6991 45.6708L29.9409 45.7085L29.4554 45.2945C29.334 45.1445 29.2117 45.0313 29.0908 44.8809V43.4516L29.5366 44.1288L30.0632 44.7305ZM30.0632 44.7305L31.0754 45.8962L31.2775 45.9339L31.7229 46.0093C31.9666 46.0466 32.2103 46.0466 32.4526 46.0466C32.6958 46.0466 32.898 46.0466 33.1412 46.0093V46.4979L31.6426 46.611L32.412 47.4759L33.1006 47.5513H33.1412C35.0446 47.6263 36.7052 47.8899 37.8798 48.5666C38.6497 49.4692 37.9611 49.6573 36.8672 49.6196C35.8551 49.3188 35.004 49.0556 34.1534 48.642C33.8294 48.5289 33.4652 48.4916 33.1412 48.4535C33.1006 48.4535 33.1006 48.4535 33.06 48.4162C32.4526 48.4162 31.8858 48.4162 31.2775 48.4539C30.8737 48.4539 30.468 48.4916 30.0632 48.5289V47.6263L31.2771 47.5136C31.3994 47.5136 31.5212 47.5136 31.6426 47.4759C31.5212 47.3632 31.3994 47.2127 31.2775 47.0623C31.116 46.8742 30.9545 46.686 30.792 46.4979L30.7117 46.4606L30.0632 46.3102V44.7305ZM29.2528 56.8783H29.0912V56.352C29.2934 56.3143 29.5366 56.2766 29.82 56.2012L30.0632 56.0885C30.4486 55.9418 30.8606 55.8653 31.2771 55.863V59.0975C30.8737 59.3229 30.468 59.4733 30.0632 59.6615V58.947C30.5903 58.7966 31.0357 58.3826 31.1571 57.969C31.2771 57.3673 30.8322 56.991 30.0632 56.916C29.82 56.8783 29.5768 56.8783 29.2528 56.8783ZM30.0632 51.5002H29.0908V50.8608C29.4554 50.8985 29.82 50.9362 30.0632 50.9362H30.1445C31.4811 50.823 31.2374 50.0709 30.3466 49.9582C30.2658 49.9205 30.1846 49.9205 30.0632 49.9205V49.206C30.468 49.206 30.8737 49.206 31.2775 49.2438V51.3498V49.2438C31.7229 49.281 32.1286 49.3565 32.5745 49.5069C33.546 50.0709 33.1006 50.5976 32.1683 51.0489C31.8858 51.1616 31.6025 51.2743 31.2775 51.3498C30.9134 51.4248 30.5086 51.4625 30.0632 51.5002ZM29.0908 48.6793V47.7767C29.4148 47.7018 29.7388 47.664 30.0632 47.6268V48.5289C29.7388 48.5666 29.4148 48.6043 29.0908 48.6793ZM29.0908 38.2993V30.7393L30.0226 33.1093L30.0628 32.9585V37.6599L29.8606 37.2463L29.0908 38.2993ZM30.0632 20.2466C29.982 20.5097 29.8602 20.7729 29.7794 21.0737L29.0908 23.2929V18.5165C29.4148 17.7266 29.7388 16.9367 30.0628 16.185V20.2466H30.0632ZM29.0908 7.9106V7.57203C29.2117 7.72246 29.2528 7.83517 29.0908 7.9106ZM30.0632 52.5155V52.1396H31.3994C31.6025 52.1396 31.7645 52.1396 31.8046 52.1773C31.8858 52.2146 31.9666 52.3273 32.0478 52.5532C32.1688 52.779 32.088 53.6062 31.8046 53.3803C31.6832 53.3803 31.5212 52.854 31.3592 52.779L31.2775 52.7413C31.1575 52.6659 31.0357 52.6286 30.9545 52.5532C30.7295 52.5002 30.4979 52.4749 30.2658 52.4782C30.1846 52.4782 30.1029 52.5155 30.0628 52.5155H30.0632ZM30.0632 32.9585L30.306 32.4322C30.5483 31.8678 30.9134 31.1533 31.2775 30.4012C31.8858 29.1223 32.5745 27.7312 33.1412 26.6027V30.2885C32.7766 31.0406 32.412 31.7927 32.0474 32.6199L31.2775 34.5005V30.4012V34.5005L30.9134 35.403L31.2775 36.1556L31.7229 37.0582L33.1412 39.6155V41.6842C32.4932 41.0448 31.8452 40.3299 31.2775 39.5028C31.0357 39.1642 30.792 38.8256 30.5483 38.4498L30.0632 37.6599V33.1843L30.1029 33.1089L30.0632 33.1466V32.9585ZM31.2771 59.097V55.863C31.4811 55.863 31.6426 55.863 31.8448 55.9003L33.0198 56.6152C33.1006 56.7279 33.1412 56.8033 33.1412 56.916C33.1818 57.1042 33.1818 57.2546 33.1412 57.4046C33.06 57.7432 32.7766 58.0068 32.5338 58.2703C32.152 58.5915 31.7303 58.8692 31.2775 59.0975L31.2771 59.097ZM38.3262 39.9168C36.828 39.9545 36.3406 39.2396 36.5843 37.9239L37.0302 37.8857C36.828 39.0515 37.3135 39.4278 38.3262 39.2773V39.9168ZM38.3262 39.2773V39.9168C38.6095 39.9168 38.9742 39.879 39.3378 39.804C40.1488 39.7286 40.5125 40.1799 40.8378 40.6312L40.8775 40.7066L40.1483 41.0829C39.8252 41.1956 39.5008 41.2706 39.1758 41.2706C38.8925 41.2706 38.5689 41.2706 38.3262 41.2333V42.0982C38.4877 42.1736 38.6908 42.2486 38.8925 42.324C39.5815 42.399 39.9863 42.399 40.3108 42.3613L40.6745 42.2113L40.6348 42.3613C40.3509 42.8503 39.8649 43.3393 39.3378 43.7529L38.3262 44.505V45.2199L42.9434 47.1378C43.9966 47.4013 44.5228 47.8526 44.8463 48.3416L44.6446 49.0938L44.8878 49.2065L45.3734 48.4166C45.4551 48.1158 45.414 47.8526 45.0088 47.6645C44.4826 47.1005 44.1586 46.536 44.2795 46.0848C43.9555 45.5208 43.5097 45.3326 42.984 45.3703C42.4574 45.408 41.9308 45.408 41.4452 45.3703C40.6348 45.3326 39.8649 45.2199 39.2575 44.994L38.8528 44.844L41.1203 42.888C41.3234 42.6999 41.8094 42.2109 41.9714 41.9855C42.1329 41.7973 42.7408 41.2706 42.9434 41.0452C46.548 37.1713 47.3575 34.2378 47.682 31.4169C47.9252 28.7092 47.844 26.2646 46.5882 23.0297C45.6171 21.6763 44.8066 20.3597 42.9028 19.4195C41.3234 19.0059 39.7837 19.5322 38.3262 20.5102V22.0899C38.6095 21.7136 38.9335 21.3755 39.2169 21.0369C40.9182 19.6076 42.4569 19.0809 43.7935 20.6229C44.6843 21.225 45.4551 22.9925 45.4948 23.5942C45.8192 27.543 46.4266 33.8615 42.66 38.5256C42.2949 37.9235 41.6077 37.6226 40.7968 37.8107C40.2291 37.9989 39.8649 38.5629 38.6903 39.2023C38.5689 39.2023 38.4471 39.24 38.3257 39.2773H38.3262ZM36.9895 29.4236C36.6249 29.7622 36.1795 30.063 36.0175 30.5143C35.004 32.9966 34.5591 35.5543 35.5315 38.8638C35.8952 40.0672 36.7865 41.0075 38.3262 41.2333V42.0982C37.2738 41.6096 36.3406 41.0075 35.5315 40.2176C34.6809 39.0519 33.8709 37.7353 33.4251 36.1183C33.2225 35.3662 33.2225 34.8395 33.2635 34.4636C33.384 33.4102 33.7491 32.2445 34.3971 31.1915C34.7622 30.3643 35.5717 29.574 36.666 28.8219C37.3537 28.5965 37.8803 28.3706 38.3262 28.0697C38.7305 27.7689 39.0554 27.4303 39.2575 27.0917C39.8252 26.4146 39.7029 25.8133 39.1362 25.2116C38.2454 23.9705 38.5283 23.331 39.2977 22.9547L39.5815 23.2183C38.4877 23.5942 38.8523 24.3086 39.42 25.0612C39.9055 25.437 40.4723 25.7756 40.6745 26.2646C41.0806 27.0167 40.9583 27.5057 40.716 27.957C40.6348 28.107 40.392 28.4833 39.9868 28.7469C39.7029 28.9723 39.2982 29.0477 38.9335 29.0477C38.7305 29.085 38.5283 29.085 38.3262 29.085C37.7995 29.1605 37.3542 29.1982 36.9895 29.4236ZM38.3262 45.2199L38.1642 45.1822L37.5162 45.483C36.5446 45.8966 35.3695 46.2352 33.8709 46.4233L33.1417 46.4983V46.0098C34.6809 45.9343 36.1389 45.5585 37.6371 45.0317L37.6782 44.994L37.5162 44.919C35.8999 44.0394 34.4269 42.9503 33.1417 41.6846V39.6159C33.9517 40.7816 35.0451 42.0982 36.828 43.7906C37.2318 44.0538 37.6375 44.2792 38.0423 44.505L38.2454 44.5805L38.3262 44.505V45.2199ZM33.1417 26.6027C33.4251 26.1142 33.6277 25.6629 33.8294 25.3243C35.3695 23.2933 36.828 21.7886 38.2855 20.5479C38.2855 20.5479 38.2855 20.5102 38.3262 20.5102V22.0899C37.3542 23.1806 36.4223 24.4595 35.6118 25.8506C34.8023 27.2799 33.9517 28.7092 33.1417 30.2889V26.6027ZM33.1417 9.52846H36.7865C37.3542 9.86703 38.0423 10.2429 37.7188 10.6942L37.2734 10.995C37.0703 10.6942 36.828 10.5065 36.5843 10.3933L35.4914 10.3556C34.3975 10.6565 33.7897 11.4463 33.1417 12.2739V11.2959L33.1823 11.2582C33.7897 10.7319 34.3163 10.3556 34.8023 10.1675V9.90432L33.6277 9.97975C33.4835 10.0843 33.3183 10.1609 33.1417 10.2052V9.52846Z" fill="white"/>
</svg>
