<svg width="160" height="70" viewBox="0 0 160 70" fill="none" xmlns="http://www.w3.org/2000/svg">
<path fill-rule="evenodd" clip-rule="evenodd" d="M4.73164 44.6183C2.11605 44.6183 0 46.7343 0 49.3499C0 51.9655 2.11605 54.0816 4.73164 54.0816C7.34723 54.0816 9.46328 51.9655 9.46328 49.3499C9.46328 46.7343 7.34162 44.6183 4.73164 44.6183Z" fill="#E72D34"/>
<path fill-rule="evenodd" clip-rule="evenodd" d="M34.9794 0.231857C37.595 0.231857 39.711 2.34791 39.711 4.9635C39.711 7.5791 37.595 9.69515 34.9794 9.69515C32.3638 9.69515 30.2477 7.5791 30.2477 4.9635C30.2477 2.34791 32.3638 0.231857 34.9794 0.231857Z" fill="#E72D34"/>
<path fill-rule="evenodd" clip-rule="evenodd" d="M24.6124 61.6982C7.09465 62.31 -3.36211 64.5833 1.26289 66.7667C5.88788 68.9557 23.8322 70.2298 41.3555 69.6124C58.8733 69.0006 69.33 66.7274 64.705 64.544C60.08 62.3549 42.1301 61.0808 24.6124 61.6982Z" fill="#C5C6C6" fill-opacity="0.3"/>
<path d="M31.2186 40.0158L27.0034 45.3199V60.1996C27.0034 60.8115 26.8855 61.3784 26.6498 61.906C26.414 62.4336 26.0997 62.8938 25.7124 63.298C25.3251 63.7021 24.8649 64.0108 24.3429 64.2353C23.8153 64.4542 23.2484 64.5665 22.6366 64.5665C22.0248 64.5665 21.4579 64.4542 20.9303 64.2353C20.4027 64.0164 19.9424 63.7021 19.5383 63.298C19.1341 62.8938 18.8254 62.4336 18.6009 61.906C18.382 61.3784 18.2698 60.8115 18.2698 60.1996V45.3143L6.39293 30.1484C6.00564 29.6769 5.74184 29.1605 5.60152 28.588C5.46119 28.0211 5.42752 27.4598 5.49487 26.9041C5.56223 26.3484 5.73622 25.8208 6.01687 25.3269C6.29751 24.833 6.66796 24.3839 7.13944 23.9967C7.61092 23.6374 8.12169 23.3792 8.67737 23.2277C9.23304 23.0761 9.7831 23.0312 10.3388 23.1042C10.8945 23.1716 11.4221 23.3456 11.916 23.6262C12.4155 23.9012 12.859 24.2773 13.2462 24.7488L22.6815 36.7603L31.2186 25.9499V40.0158Z" fill="#E72D34"/>
<path fill-rule="evenodd" clip-rule="evenodd" d="M22.7826 15.1567C25.0614 15.1567 26.9137 17.0033 26.9137 19.2878C26.9137 21.5666 25.0614 23.4188 22.7826 23.4188C20.5038 23.4188 18.6515 21.5722 18.6515 19.2878C18.6515 17.0089 20.4982 15.1567 22.7826 15.1567ZM22.7826 9.82446C28.0082 9.82446 32.2459 14.0622 32.2459 19.2878C32.2459 24.5133 28.0082 28.7511 22.7826 28.7511C17.557 28.7511 13.3193 24.5133 13.3193 19.2878C13.3137 14.0622 17.5514 9.82446 22.7826 9.82446Z" fill="#E72D34"/>
<path fill-rule="evenodd" clip-rule="evenodd" d="M37.6734 23.2109C38.2853 23.2109 38.8409 23.3288 39.3685 23.5645C39.8905 23.8003 40.3508 24.109 40.7549 24.5019C41.159 24.8892 41.4677 25.3494 41.7035 25.8714C41.9392 26.399 42.0571 26.9659 42.0571 27.5777V36.8221C42.3097 36.9512 42.5679 37.0747 42.8317 37.1925C44.1395 37.7538 45.5483 38.0345 47.0469 38.0345C48.5455 38.0345 49.9544 37.7538 51.2622 37.1925C52.5756 36.6256 53.7262 35.8511 54.7085 34.8632C55.4045 34.1672 55.9938 33.3926 56.4821 32.5339H56.4877L57.6945 30.1147C57.919 29.6601 58.2277 29.2672 58.6094 28.9473C58.9911 28.6273 59.4177 28.386 59.8947 28.2288C60.3774 28.0716 60.8826 27.9931 61.4046 27.9931C61.9322 27.9931 62.4486 28.0885 62.9538 28.2962C63.4645 28.4982 63.8911 28.7733 64.2447 29.1269C64.5927 29.4749 64.8621 29.8621 65.053 30.2887C65.2438 30.7153 65.3336 31.1587 65.3336 31.6302C65.3336 32.1017 65.2213 32.5675 64.9968 33.0222L64.11 34.8071C63.8294 35.4357 63.515 36.0475 63.1727 36.6369C62.37 38.0232 61.3934 39.2805 60.2596 40.4143C59.1258 41.5481 57.8685 42.5191 56.4821 43.333C55.107 44.1413 53.614 44.7755 52.0199 45.2189C50.4259 45.668 48.7701 45.8925 47.0525 45.8925C45.3294 45.8925 43.6792 45.668 42.0852 45.2189L42.0627 45.2133V60.4073C42.0627 61.0191 41.9448 61.586 41.7091 62.1136C41.4734 62.6413 41.1646 63.1015 40.7605 63.5056C40.3564 63.9098 39.8961 64.2185 39.3741 64.443C38.8465 64.6619 38.2853 64.7741 37.6791 64.7741C37.0673 64.7741 36.506 64.6619 35.984 64.443C35.462 64.2241 35.0017 63.9098 34.5976 63.5056C34.1935 63.1015 33.8904 62.6413 33.6715 62.1136C33.4526 61.586 33.3403 61.0191 33.3403 60.4073V27.5777C33.3403 26.9659 33.4526 26.399 33.6715 25.8714C33.8904 25.3438 34.1991 24.8892 34.5976 24.5019C35.0017 24.1146 35.462 23.8003 35.984 23.5645C36.5004 23.3288 37.0616 23.2109 37.6734 23.2109Z" fill="#0070BB"/>
<path fill-rule="evenodd" clip-rule="evenodd" d="M50.0892 15.3134C52.3681 15.3134 54.2203 17.16 54.2203 19.4445C54.2203 21.7233 52.3737 23.5755 50.0892 23.5755C47.8104 23.5755 45.9582 21.7289 45.9582 19.4445C45.9582 17.1656 47.8104 15.3134 50.0892 15.3134ZM50.0892 9.98117C55.3148 9.98117 59.5525 14.2189 59.5525 19.4445C59.5525 24.67 55.3148 28.9077 50.0892 28.9077C44.8637 28.9077 40.6259 24.67 40.6259 19.4445C40.6259 14.2189 44.8637 9.98117 50.0892 9.98117Z" fill="#E72D34"/>
<path fill-rule="evenodd" clip-rule="evenodd" d="M60.9727 44.697C58.3571 44.697 56.2411 46.813 56.2411 49.4286C56.2411 52.0442 58.3571 54.1602 60.9727 54.1602C63.5883 54.1602 65.7044 52.0442 65.7044 49.4286C65.7044 46.813 63.5883 44.697 60.9727 44.697Z" fill="#E72D34"/>
<path d="M88.4136 21.2587C87.8748 21.9098 87.1788 22.2522 86.4659 22.2522C85.7531 22.2522 85.0403 21.9042 84.5183 21.2587V16.0668H86.4659C87.1788 16.0668 87.8691 16.4372 88.4136 17.0603V21.2587ZM90.4454 16.0443C89.452 14.6411 88.0039 13.8385 86.4659 13.8385H84.5239V10.7009H87.7906V11.8964C87.7906 12.5307 88.2901 13.0302 88.8907 13.0302C89.5193 13.0302 90.0133 12.5307 90.0133 11.8964V9.57271C90.0133 8.96653 89.5137 8.46698 88.8907 8.46698C83.3957 8.46698 83.3957 8.46698 83.3957 8.46698C82.767 8.46698 82.2731 8.96653 82.2731 9.57271V21.6404C82.2731 21.8761 82.3573 22.095 82.492 22.269C83.463 23.6722 84.9168 24.4973 86.4715 24.4973C88.0095 24.4973 89.4576 23.6778 90.4511 22.269C90.5802 22.095 90.6475 21.8593 90.6475 21.6179V16.6898C90.6419 16.4541 90.597 16.2632 90.4454 16.0443Z" fill="white"/>
<path d="M96.569 22.2745C95.8337 22.2745 95.1433 21.9265 94.5988 21.281V11.509C95.1377 10.8804 95.8337 10.5156 96.569 10.5156C97.2818 10.5156 97.9722 10.8804 98.5166 11.509V21.281C97.9722 21.9265 97.2818 22.2745 96.569 22.2745ZM100.739 11.1386C100.739 10.9197 100.672 10.684 100.543 10.4875C99.5494 9.0843 98.1013 8.28166 96.5633 8.28166C95.0086 8.28166 93.5548 9.0843 92.5838 10.4875C92.4323 10.684 92.3649 10.9197 92.3649 11.1386V21.6683C92.3649 21.904 92.4491 22.1229 92.5838 22.3194C93.5548 23.7058 95.0086 24.5028 96.5633 24.5028C98.1013 24.5028 99.5494 23.7001 100.52 22.2969C100.65 22.1229 100.739 21.8872 100.739 21.629V11.1386Z" fill="white"/>
<path d="M104.416 8.47821C103.81 8.47821 103.293 8.97775 103.293 9.58394C103.293 10.2126 103.81 10.7065 104.416 10.7065H106.493V21.2811C105.954 21.9098 105.258 22.2746 104.545 22.2746C104.219 22.2746 103.916 22.2073 103.613 22.0782C103.052 21.82 102.401 22.0782 102.143 22.6395C101.907 23.2007 102.165 23.8743 102.726 24.11C103.31 24.3682 103.916 24.4973 104.545 24.4973C106.083 24.4973 107.531 23.6947 108.524 22.2915C108.631 22.1175 108.721 21.8817 108.721 21.6404V10.6953H111.056V23.1727C111.056 23.7789 111.555 24.2784 112.178 24.2784C112.785 24.2784 113.279 23.7789 113.279 23.1727V10.6953H114.704C115.31 10.6953 115.804 10.1957 115.804 9.57271C115.804 8.96653 115.305 8.46698 114.704 8.46698H104.416V8.47821Z" fill="white"/>
<path d="M121.283 22.2744C120.57 22.2744 119.879 21.9096 119.335 21.2809V16.089H121.305C122.018 16.089 122.708 16.4595 123.253 17.0825V21.2753C122.714 21.9039 122.024 22.2744 121.283 22.2744ZM125.481 16.6952C125.481 16.4595 125.436 16.2855 125.285 16.0666C124.291 14.6634 122.843 13.8607 121.305 13.8607H119.335V10.7007H121.193C121.821 10.7007 122.315 10.2011 122.315 9.5781C122.315 8.97191 121.816 8.47237 121.193 8.47237C118.229 8.47237 118.229 8.47237 118.229 8.47237C117.601 8.47237 117.107 8.97191 117.107 9.5781V21.6682C117.107 21.8871 117.191 22.1228 117.303 22.2968C118.297 23.7001 119.745 24.5027 121.283 24.5027C122.837 24.5027 124.291 23.7001 125.285 22.2968C125.391 22.1004 125.481 21.8871 125.481 21.6458V16.6952Z" fill="white"/>
<path d="M139.732 9.60618C139.732 8.97754 139.233 8.478 138.632 8.478C138.003 8.478 137.51 8.97754 137.51 9.60618V21.3258C137.1 21.932 136.578 22.28 136.061 22.28C135.545 22.28 135.023 21.932 134.591 21.3258V9.60618C134.591 8.97754 134.091 8.478 133.491 8.478C132.862 8.478 132.368 8.97754 132.368 9.60618V21.3258C131.958 21.932 131.436 22.28 130.92 22.28H130.898C130.853 22.28 130.117 22.2576 129.449 21.3258V9.60618C129.449 8.97754 128.95 8.478 128.349 8.478C127.721 8.478 127.227 8.97754 127.227 9.60618V21.6458C127.227 21.8815 127.333 22.1229 127.401 22.2295C128.652 24.368 130.516 24.5027 130.903 24.5027H130.926C131.857 24.5027 132.744 24.1154 133.502 23.4419C134.237 24.1098 135.124 24.5027 136.073 24.5027C137.459 24.5027 138.733 23.6833 139.598 22.2295C139.704 22.0331 139.749 21.8198 139.749 21.6458V9.60618H139.732Z" fill="white"/>
<path d="M145.659 22.2745C144.924 22.2745 144.233 21.9265 143.689 21.281V11.509C144.228 10.8804 144.924 10.5156 145.659 10.5156C146.372 10.5156 147.062 10.8804 147.607 11.509V21.281C147.062 21.9265 146.372 22.2745 145.659 22.2745ZM149.829 11.1386C149.829 10.9197 149.762 10.684 149.633 10.4875C148.64 9.0843 147.191 8.28166 145.653 8.28166C144.099 8.28166 142.645 9.0843 141.674 10.4875C141.522 10.684 141.455 10.9197 141.455 11.1386V21.6683C141.455 21.904 141.539 22.1229 141.674 22.3194C142.645 23.7058 144.099 24.5028 145.653 24.5028C147.191 24.5028 148.64 23.7001 149.611 22.2969C149.74 22.1229 149.829 21.8872 149.829 21.629V11.1386Z" fill="white"/>
<path d="M155.757 7.80418C157.25 7.80418 158.675 7.17554 159.652 6.09787C160.062 5.64322 160.039 4.95284 159.585 4.52065C159.107 4.11091 158.417 4.15021 158.007 4.60485C157.446 5.21104 156.621 5.57587 155.757 5.57587C154.892 5.57587 154.067 5.20543 153.528 4.60485C153.096 4.15021 152.406 4.12775 151.951 4.53749C151.496 4.94723 151.452 5.66006 151.867 6.1147C152.86 7.18115 154.264 7.80418 155.757 7.80418ZM152.709 8.47773C152.08 8.47773 151.586 8.97727 151.586 9.58346V23.1442C151.586 23.7728 152.086 24.2667 152.709 24.2667C153.315 24.2667 153.809 23.7672 153.809 23.1442V20.3995L157.721 13.7145V23.1442C157.721 23.7728 158.221 24.2667 158.827 24.2667C159.455 24.2667 159.949 23.7672 159.949 23.1442V9.58346C159.949 8.97727 159.45 8.47773 158.827 8.47773C158.417 8.47773 158.047 8.69663 157.856 9.03901L153.809 15.9597V9.57785C153.809 8.97166 153.315 8.47773 152.709 8.47773Z" fill="white"/>
<path d="M156.273 38.8604C155.678 38.8604 155.106 38.5573 154.657 38.0353V33.7246H156.29C156.885 33.7246 157.457 34.0277 157.907 34.5497V38.0353C157.463 38.5517 156.885 38.8604 156.273 38.8604ZM159.759 34.2242C159.759 34.0277 159.725 33.8818 159.596 33.7022C158.771 32.5347 157.564 31.8668 156.29 31.8668H154.657V29.2455H156.2C156.722 29.2455 157.132 28.8302 157.132 28.3138C157.132 27.8086 156.717 27.3989 156.2 27.3989C153.736 27.3989 153.736 27.3989 153.736 27.3989C153.214 27.3989 152.804 27.8143 152.804 28.3138V38.3609C152.804 38.5405 152.877 38.737 152.967 38.8829C153.792 40.0504 154.999 40.7183 156.273 40.7183C157.564 40.7183 158.771 40.056 159.596 38.8829C159.686 38.7201 159.759 38.5405 159.759 38.3441V34.2242Z" fill="white"/>
<path d="M142.258 27.3933C141.753 27.3933 141.326 27.8086 141.326 28.3082C141.326 28.8302 141.758 29.2399 142.258 29.2399H143.981V38.0241C143.532 38.5461 142.959 38.8492 142.364 38.8492C142.095 38.8492 141.842 38.793 141.59 38.6864C141.124 38.4731 140.585 38.6864 140.366 39.1523C140.17 39.6181 140.383 40.1738 140.849 40.3759C141.332 40.5892 141.837 40.7014 142.359 40.7014C143.633 40.7014 144.84 40.0391 145.665 38.866C145.755 38.7201 145.828 38.5236 145.828 38.3272V29.2455H147.77V39.6125C147.77 40.1177 148.185 40.5274 148.701 40.5274C149.206 40.5274 149.616 40.1121 149.616 39.6125V29.2455H150.801C151.306 29.2455 151.715 28.8302 151.715 28.3138C151.715 27.8086 151.3 27.3989 150.801 27.3989H142.258V27.3933Z" fill="white"/>
<path d="M134.119 29.9079C134.551 29.3859 135.141 29.0828 135.736 29.0828C136.33 29.0828 136.903 29.369 137.352 29.9079V35.9641H134.119V29.9079ZM139.025 29.0659C138.216 27.8985 137.01 27.2305 135.736 27.2305C134.439 27.2305 133.238 27.8929 132.43 29.0659C132.306 29.2287 132.25 29.4252 132.25 29.6048V39.5957C132.25 40.1008 132.665 40.5274 133.182 40.5274C133.687 40.5274 134.119 40.0952 134.119 39.5957V37.8164H137.352V39.5957C137.352 40.1008 137.767 40.5274 138.267 40.5274C138.789 40.5274 139.199 40.0952 139.199 39.5957V29.6048C139.204 29.4252 139.148 29.2287 139.025 29.0659Z" fill="white"/>
<path d="M128.961 38.0296C128.512 38.5685 127.939 38.8547 127.344 38.8547C126.749 38.8547 126.177 38.5685 125.728 38.0296V29.9079C126.177 29.369 126.749 29.0828 127.344 29.0828C127.939 29.0828 128.512 29.3859 128.961 29.9079V32.0183L127.451 33.2812C127.215 33.4608 127.108 33.7134 127.108 33.9828C127.108 34.2859 127.215 34.5216 127.451 34.7237L128.961 35.9641V38.0296ZM129.483 33.9996L130.471 33.1689C130.684 32.9893 130.813 32.7367 130.813 32.4505V29.6048C130.813 29.3522 130.757 29.2287 130.65 29.0659C129.825 27.8985 128.618 27.2305 127.344 27.2305C126.048 27.2305 124.846 27.8929 124.038 29.0659C123.932 29.2287 123.875 29.4083 123.875 29.5879V38.3552C123.875 38.6246 123.965 38.7705 124.038 38.8772C124.846 40.0447 126.053 40.7126 127.344 40.7126C128.618 40.7126 129.842 40.0503 130.65 38.8772C130.757 38.7144 130.813 38.5348 130.813 38.3384V35.5263C130.813 35.2401 130.689 34.9875 130.471 34.8079L129.483 33.9996Z" fill="white"/>
<path d="M116.422 27.3933C115.9 27.3933 115.49 27.8086 115.49 28.3082V39.5732C115.49 40.0952 115.906 40.5106 116.422 40.5106C116.927 40.5106 117.337 40.0952 117.337 39.5732V37.2888L120.587 31.7376V39.5732C120.587 40.0952 121.002 40.5106 121.502 40.5106C122.024 40.5106 122.433 40.0952 122.433 39.5732V28.3082C122.433 27.803 122.018 27.3933 121.502 27.3933C121.159 27.3933 120.856 27.5729 120.693 27.8591L117.331 33.6067V28.3082C117.337 27.8086 116.921 27.3933 116.422 27.3933Z" fill="white"/>
<path d="M108.564 27.3933C108.042 27.3933 107.632 27.8086 107.632 28.3082C107.632 28.8302 108.048 29.2399 108.564 29.2399H110.18V39.5732C110.18 40.0952 110.596 40.5106 111.112 40.5106C111.617 40.5106 112.027 40.0952 112.027 39.5732V29.2455H113.644C114.166 29.2455 114.575 28.8302 114.575 28.3138C114.575 27.8086 114.16 27.3989 113.644 27.3989H108.564V27.3933Z" fill="white"/>
<path d="M105.819 35.7116C105.297 35.7116 104.882 36.1269 104.882 36.6433V38.0241C104.433 38.5461 103.86 38.8492 103.265 38.8492C102.67 38.8492 102.081 38.5629 101.649 38.0241V29.9023C102.081 29.3634 102.67 29.0772 103.265 29.0772C103.86 29.0772 104.433 29.3634 104.882 29.9023V31.109C104.882 31.6142 105.297 32.0239 105.797 32.0239C106.319 32.0239 106.728 31.6086 106.728 31.109V29.5992C106.728 29.4027 106.655 29.2063 106.549 29.0603C105.74 27.8928 104.534 27.2249 103.26 27.2249C101.969 27.2249 100.762 27.8872 99.9535 29.0379C99.8469 29.2007 99.7739 29.3803 99.7739 29.5767V38.344C99.7739 38.5405 99.8469 38.7201 99.9535 38.8828C100.762 40.0335 101.969 40.6958 103.26 40.6958C104.534 40.6958 105.757 40.0335 106.565 38.8604C106.672 38.6976 106.728 38.518 106.728 38.3216V36.6321C106.734 36.1269 106.319 35.7116 105.819 35.7116Z" fill="white"/>
<path d="M84.0635 35.5488V32.8715C84.3947 32.5796 84.984 32.3158 85.5734 32.1587V36.2616C84.984 36.1045 84.3947 35.8407 84.0635 35.5488ZM87.3583 36.2616V32.1587C87.9476 32.3158 88.5538 32.5796 88.885 32.8715V35.5488C88.5538 35.8407 87.9476 36.1045 87.3583 36.2616ZM90.6698 32.5291C90.6698 32.3551 90.6193 32.1811 90.4959 32.0239C90.03 31.328 89.1937 30.9126 88.5875 30.6712C88.189 30.5309 87.7568 30.4131 87.3583 30.3401V29.6666H88.6604C89.1432 29.6666 89.5417 29.2512 89.5417 28.7629C89.5417 28.2577 89.1432 27.8592 88.6604 27.8592H84.2712C83.7885 27.8592 83.39 28.2577 83.39 28.7629C83.39 29.2456 83.7885 29.6666 84.2712 29.6666H85.5734V30.3401C85.1749 30.4074 84.7427 30.5309 84.3442 30.6881C83.738 30.9182 82.9073 31.3336 82.4358 32.0239C82.3291 32.1811 82.2786 32.3551 82.2786 32.5291V35.8968C82.2786 36.0708 82.3291 36.2448 82.4358 36.402C82.9017 37.0755 83.738 37.5133 84.3442 37.7378C84.7427 37.895 85.1749 38.0128 85.5734 38.0858V38.7425H84.2712C83.7885 38.7425 83.39 39.141 83.39 39.6462C83.39 40.1289 83.7885 40.5274 84.2712 40.5274H88.6548C89.1375 40.5274 89.5361 40.1289 89.5361 39.6462C89.5361 39.141 89.1375 38.7425 88.6548 38.7425H87.3583V38.0858C87.7568 38.0185 88.189 37.895 88.5875 37.7378C89.1937 37.5077 90.0244 37.0755 90.4959 36.402C90.6193 36.2448 90.6698 36.0708 90.6698 35.8968V32.5291Z" fill="white"/>
<path fill-rule="evenodd" clip-rule="evenodd" d="M94.1389 33.0567H98.0174V34.589H94.1445L94.0827 38.3833C94.4756 38.7426 94.964 38.9334 95.4691 38.9334C96.1314 38.9334 96.7825 38.5742 97.2484 37.9343C97.5515 37.5358 98.1296 37.4348 98.545 37.7266C98.9603 38.0017 99.067 38.5573 98.7807 38.9502C97.9556 40.0728 96.7488 40.7295 95.4747 40.7295C94.1782 40.7295 92.281 40.3142 92.1687 38.9502C92.1295 38.4563 92.1968 38.3497 92.1519 37.9511L92.1575 33.9548L92.1519 30.0089C92.1968 29.6104 92.1295 29.5038 92.1687 29.0098C92.281 27.6459 94.1838 27.2305 95.4747 27.2305C96.7488 27.2305 97.9556 27.8873 98.7807 29.0098C99.067 29.4027 98.9603 29.9584 98.545 30.2334C98.1296 30.5253 97.5571 30.4243 97.2484 30.0258C96.7825 29.3859 96.137 29.0267 95.4691 29.0267C94.964 29.0267 94.4813 29.2175 94.0883 29.5767L94.1389 33.0567Z" fill="white"/>
<path d="M158.361 48.9411C158.086 48.9411 157.828 48.812 157.62 48.565V44.8942C157.822 44.6585 158.08 44.5182 158.361 44.5182C158.631 44.5182 158.889 44.6585 159.091 44.8942V48.565C158.889 48.812 158.631 48.9411 158.361 48.9411ZM153.377 43.7604C153.152 43.7604 152.962 43.9457 152.962 44.1758C152.962 44.4115 153.147 44.5968 153.377 44.5968H153.629V48.8569H153.394C153.169 48.8569 152.978 49.0421 152.978 49.2723C152.978 49.508 153.164 49.6932 153.394 49.6932H155.246C155.482 49.6932 155.667 49.508 155.667 49.2723C155.667 49.0421 155.482 48.8569 155.246 48.8569H154.477L154.471 44.5968H155.459V45.0289C155.459 45.2591 155.645 45.4499 155.88 45.4499C156.11 45.4499 156.301 45.2535 156.301 45.0289V44.1758C156.301 43.9457 156.105 43.7604 155.88 43.7604H153.377ZM150.907 48.9411C150.632 48.9411 150.374 48.812 150.166 48.565V44.8942C150.368 44.6585 150.627 44.5182 150.907 44.5182C151.177 44.5182 151.435 44.6585 151.637 44.8942V48.565C151.435 48.812 151.177 48.9411 150.907 48.9411ZM152.473 44.7595C152.473 44.6809 152.451 44.5911 152.4 44.5182C152.024 43.9906 151.485 43.6875 150.907 43.6875C150.324 43.6875 149.779 43.9906 149.414 44.5182C149.358 44.5911 149.336 44.6809 149.336 44.7595V48.711C149.336 48.8008 149.369 48.8794 149.414 48.9523C149.779 49.4743 150.324 49.7718 150.907 49.7718C151.485 49.7718 152.03 49.4687 152.395 48.9411C152.445 48.8738 152.473 48.7896 152.473 48.6885V44.7595ZM147.725 46.4827L148.651 44.3442C148.741 44.1253 148.634 43.8783 148.421 43.7885C148.202 43.7099 147.961 43.8109 147.871 44.0242L146.799 46.4827H146.411V44.1758C146.411 43.9457 146.226 43.7604 145.996 43.7604C145.76 43.7604 145.575 43.9457 145.575 44.1758V49.2723C145.575 49.508 145.76 49.6932 145.996 49.6932C146.221 49.6932 146.411 49.508 146.411 49.2723V47.3134H147.848V49.2723C147.848 49.508 148.033 49.6932 148.264 49.6932C148.499 49.6932 148.685 49.508 148.685 49.2723V46.9036C148.685 46.6679 148.499 46.4827 148.264 46.4827H147.725ZM144.509 47.5211C144.273 47.5211 144.088 47.7063 144.088 47.942V48.565C143.886 48.8008 143.627 48.9411 143.358 48.9411C143.089 48.9411 142.825 48.812 142.628 48.565V44.8942C142.825 44.6529 143.089 44.5182 143.358 44.5182C143.627 44.5182 143.886 44.6473 144.088 44.8942V45.4387C144.088 45.6688 144.273 45.854 144.503 45.854C144.739 45.854 144.924 45.6688 144.924 45.4387V44.7539C144.924 44.6641 144.89 44.5743 144.845 44.5126C144.481 43.9849 143.936 43.6818 143.358 43.6818C142.774 43.6818 142.23 43.9849 141.865 44.5013C141.814 44.5743 141.786 44.6529 141.786 44.7427V48.7054C141.786 48.7952 141.82 48.8738 141.865 48.9467C142.23 49.4687 142.774 49.7662 143.358 49.7662C143.936 49.7662 144.486 49.4631 144.851 48.9355C144.901 48.8625 144.924 48.7839 144.924 48.6941V47.9308C144.924 47.7063 144.739 47.5211 144.509 47.5211ZM137.667 44.1814C137.667 43.9457 137.481 43.7604 137.251 43.7604C137.015 43.7604 136.83 43.9457 136.83 44.1814V48.5819C136.673 48.812 136.482 48.9411 136.286 48.9411C136.089 48.9411 135.898 48.812 135.736 48.5819V44.1814C135.736 43.9457 135.55 43.7604 135.32 43.7604C135.085 43.7604 134.899 43.9457 134.899 44.1814V48.5819C134.748 48.812 134.551 48.9411 134.355 48.9411H134.349C134.332 48.9411 134.057 48.9355 133.805 48.5819V44.1814C133.805 43.9457 133.62 43.7604 133.39 43.7604C133.154 43.7604 132.969 43.9457 132.969 44.1814V48.7054C132.969 48.7952 133.008 48.885 133.036 48.9243C133.507 49.7269 134.203 49.7774 134.349 49.7774H134.355C134.703 49.7774 135.034 49.6315 135.32 49.3789C135.595 49.6315 135.932 49.7774 136.286 49.7774C136.808 49.7774 137.285 49.4687 137.61 48.9243C137.65 48.8513 137.667 48.7671 137.667 48.7054V44.1814ZM130.746 48.9411C130.471 48.9411 130.213 48.812 130.005 48.565V44.8942C130.207 44.6585 130.465 44.5182 130.746 44.5182C131.015 44.5182 131.273 44.6585 131.476 44.8942V48.565C131.273 48.812 131.015 48.9411 130.746 48.9411ZM132.312 44.7595C132.312 44.6809 132.289 44.5911 132.239 44.5182C131.863 43.9906 131.324 43.6875 130.746 43.6875C130.162 43.6875 129.618 43.9906 129.253 44.5182C129.197 44.5911 129.174 44.6809 129.174 44.7595V48.711C129.174 48.8008 129.208 48.8794 129.253 48.9523C129.618 49.4743 130.162 49.7718 130.746 49.7718C131.324 49.7718 131.868 49.4687 132.233 48.9411C132.284 48.8738 132.312 48.7896 132.312 48.6885V44.7595ZM128.102 43.7604C127.872 43.7604 127.687 43.9457 127.687 44.1758V46.4714H126.227V44.1758C126.227 43.9457 126.031 43.7604 125.807 43.7604C125.571 43.7604 125.386 43.9457 125.386 44.1758V49.2723C125.386 49.508 125.571 49.6932 125.807 49.6932C126.037 49.6932 126.227 49.508 126.227 49.2723V47.3078H127.687V49.2723C127.687 49.508 127.872 49.6932 128.102 49.6932C128.338 49.6932 128.523 49.508 128.523 49.2723V44.1758C128.523 43.9457 128.332 43.7604 128.102 43.7604ZM122.422 44.8942C122.624 44.6529 122.882 44.5182 123.152 44.5182C123.421 44.5182 123.685 44.6473 123.881 44.8942V46.3648H122.422V44.8942ZM123.157 48.9411C122.888 48.9411 122.63 48.8008 122.428 48.565V47.2011H123.887V48.565C123.69 48.8008 123.421 48.9411 123.157 48.9411ZM124.729 44.7595C124.729 44.6641 124.695 44.5743 124.65 44.5182C124.285 43.9906 123.741 43.6875 123.157 43.6875C122.579 43.6875 122.035 43.9906 121.664 44.5182C121.625 44.5743 121.591 44.6585 121.591 44.7539V46.3704H121.153V44.1814C121.153 43.9513 120.957 43.766 120.732 43.766C120.497 43.766 120.312 43.9513 120.312 44.1814V49.2891C120.312 49.5136 120.497 49.7045 120.732 49.7045C120.963 49.7045 121.153 49.5192 121.153 49.2891V47.2123H121.591V48.7222C121.591 48.812 121.631 48.9187 121.664 48.9579C122.04 49.4856 122.579 49.7887 123.157 49.7887C123.741 49.7887 124.285 49.4799 124.65 48.9579C124.701 48.8906 124.729 48.8176 124.729 48.7166V44.7595ZM114.906 43.7604C114.671 43.7604 114.485 43.9457 114.485 44.1758V49.2667C114.485 49.5024 114.671 49.6876 114.906 49.6876C115.136 49.6876 115.322 49.5024 115.322 49.2667V48.2339L116.792 45.7249V49.2667C116.792 49.5024 116.977 49.6876 117.208 49.6876C117.443 49.6876 117.629 49.5024 117.629 49.2667V44.1758C117.629 43.9457 117.443 43.7604 117.208 43.7604C117.056 43.7604 116.916 43.839 116.843 43.9737L115.322 46.5725V44.1758C115.322 43.9457 115.131 43.7604 114.906 43.7604ZM110.236 48.9411C109.961 48.9411 109.703 48.812 109.496 48.565V44.8942C109.698 44.6585 109.956 44.5182 110.236 44.5182C110.506 44.5182 110.764 44.6585 110.966 44.8942V48.565C110.764 48.812 110.506 48.9411 110.236 48.9411ZM111.802 44.7595C111.802 44.6809 111.78 44.5911 111.729 44.5182C111.353 43.9906 110.815 43.6875 110.236 43.6875C109.653 43.6875 109.108 43.9906 108.743 44.5182C108.687 44.5911 108.665 44.6809 108.665 44.7595V48.711C108.665 48.8008 108.699 48.8794 108.743 48.9523C109.108 49.4743 109.653 49.7718 110.236 49.7718C110.815 49.7718 111.359 49.4687 111.724 48.9411C111.774 48.8738 111.802 48.7896 111.802 48.6885V44.7595ZM105.252 43.7604C105.028 43.7604 104.837 43.9457 104.837 44.1758C104.837 44.4115 105.022 44.5968 105.252 44.5968H105.505V48.8569H105.269C105.045 48.8569 104.854 49.0421 104.854 49.2723C104.854 49.508 105.039 49.6932 105.269 49.6932H107.121C107.357 49.6932 107.542 49.508 107.542 49.2723C107.542 49.0421 107.357 48.8569 107.121 48.8569H106.352L106.347 44.5968H107.335V45.0289C107.335 45.2591 107.52 45.4499 107.756 45.4499C107.986 45.4499 108.177 45.2535 108.177 45.0289V44.1758C108.177 43.9457 107.98 43.7604 107.756 43.7604H105.252ZM102.783 48.9411C102.508 48.9411 102.249 48.812 102.042 48.565V44.8942C102.244 44.6585 102.502 44.5182 102.783 44.5182C103.052 44.5182 103.31 44.6585 103.512 44.8942V48.565C103.31 48.812 103.052 48.9411 102.783 48.9411ZM104.349 44.7595C104.349 44.6809 104.326 44.5911 104.276 44.5182C103.9 43.9906 103.361 43.6875 102.783 43.6875C102.199 43.6875 101.654 43.9906 101.29 44.5182C101.233 44.5911 101.211 44.6809 101.211 44.7595V48.711C101.211 48.8008 101.245 48.8794 101.29 48.9523C101.654 49.4743 102.199 49.7718 102.783 49.7718C103.361 49.7718 103.905 49.4687 104.27 48.9411C104.32 48.8738 104.349 48.7896 104.349 48.6885V44.7595ZM99.6001 46.4827L100.526 44.3442C100.616 44.1253 100.509 43.8783 100.296 43.7885C100.077 43.7099 99.8358 43.8109 99.746 44.0242L98.6739 46.4827H98.2867V44.1758C98.2867 43.9457 98.1014 43.7604 97.8713 43.7604C97.6356 43.7604 97.4503 43.9457 97.4503 44.1758V49.2723C97.4503 49.508 97.6356 49.6932 97.8713 49.6932C98.0958 49.6932 98.2867 49.508 98.2867 49.2723V47.3134H99.7236V49.2723C99.7236 49.508 99.9088 49.6932 100.139 49.6932C100.375 49.6932 100.56 49.508 100.56 49.2723V46.9036C100.56 46.6679 100.375 46.4827 100.139 46.4827H99.6001ZM96.3839 47.5211C96.1482 47.5211 95.9629 47.7063 95.9629 47.942V48.565C95.7609 48.8008 95.5027 48.9411 95.2333 48.9411C94.9638 48.9411 94.7 48.812 94.5036 48.565V44.8942C94.7 44.6529 94.9638 44.5182 95.2333 44.5182C95.5027 44.5182 95.7609 44.6473 95.9629 44.8942V45.4387C95.9629 45.6688 96.1482 45.854 96.3783 45.854C96.614 45.854 96.7993 45.6688 96.7993 45.4387V44.7539C96.7993 44.6641 96.7656 44.5743 96.7207 44.5126C96.3558 43.9849 95.8114 43.6818 95.2333 43.6818C94.6495 43.6818 94.1051 43.9849 93.7402 44.5013C93.6897 44.5743 93.6617 44.6529 93.6617 44.7427V48.7054C93.6617 48.7952 93.6953 48.8738 93.7402 48.9467C94.1051 49.4687 94.6495 49.7662 95.2333 49.7662C95.8114 49.7662 96.3614 49.4631 96.7263 48.9355C96.7768 48.8625 96.7993 48.7839 96.7993 48.6941V47.9308C96.7993 47.7063 96.614 47.5211 96.3839 47.5211ZM90.5297 43.7604C90.2939 43.7604 90.1087 43.9457 90.1087 44.1758C90.1087 44.4115 90.2939 44.5968 90.5297 44.5968H91.2594V49.2667C91.2594 49.5024 91.4446 49.6876 91.6803 49.6876C91.9104 49.6876 92.0957 49.5024 92.0957 49.2667V44.5968H92.8253C93.0611 44.5968 93.2463 44.4115 93.2463 44.1758C93.2463 43.9457 93.0611 43.7604 92.8253 43.7604H90.5297ZM83.6876 44.9055C83.8841 44.6641 84.1422 44.5294 84.4173 44.5294C84.6867 44.5294 84.9449 44.6585 85.1469 44.9055V48.2451H83.6876V44.9055ZM86.3313 48.4528C86.2583 48.3237 86.1292 48.2507 85.9833 48.2395V44.7539C85.9889 44.6641 85.944 44.5575 85.9103 44.5182C85.5342 43.9906 84.9954 43.6818 84.4173 43.6818C83.8335 43.6818 83.2891 43.9906 82.9243 44.5182C82.885 44.5855 82.8457 44.6473 82.8457 44.7539V48.2395C82.6997 48.2395 82.5538 48.3181 82.4696 48.4528C82.3966 48.5819 82.3966 48.7447 82.4696 48.8738L82.9018 49.6315C83.0141 49.8336 83.2779 49.9009 83.4687 49.783C83.6708 49.6708 83.7437 49.4182 83.6315 49.2161L83.5585 49.0871H85.2704L85.1975 49.2274C85.0852 49.4294 85.1638 49.682 85.3658 49.7943C85.4332 49.8279 85.4949 49.8448 85.5623 49.8448C85.7138 49.8448 85.8654 49.7662 85.9384 49.6259L86.3425 48.8625C86.4155 48.7278 86.4042 48.5763 86.3313 48.4528ZM87.7569 46.2918H89.525V46.9878H87.7569L87.7289 48.7166C87.9085 48.8794 88.1274 48.9692 88.3575 48.9692C88.6606 48.9692 88.9525 48.8064 89.1658 48.5145C89.3061 48.3349 89.5643 48.2844 89.7551 48.4191C89.9459 48.5426 89.9908 48.7952 89.8618 48.9748C89.4857 49.4856 88.9356 49.783 88.3575 49.783C87.7682 49.783 86.9038 49.5922 86.8533 48.9748C86.8364 48.7503 86.8645 48.6998 86.8476 48.5201L86.8533 46.7016L86.8476 44.9055C86.8701 44.7202 86.8364 44.6753 86.8533 44.4508C86.9038 43.8334 87.7682 43.6426 88.3575 43.6426C88.9356 43.6426 89.4857 43.94 89.8618 44.4508C89.9908 44.6304 89.9459 44.883 89.7551 45.0065C89.5643 45.1412 89.3061 45.0907 89.1658 44.9111C88.9525 44.6192 88.6606 44.4564 88.3575 44.4564C88.1274 44.4564 87.9085 44.5406 87.7289 44.709L87.7569 46.2918ZM139.339 46.275H141.107V46.971H139.345L139.317 48.6998C139.496 48.8625 139.715 48.9523 139.945 48.9523C140.248 48.9523 140.54 48.7896 140.754 48.4977C140.894 48.3181 141.152 48.2676 141.343 48.4023C141.534 48.5258 141.579 48.7783 141.45 48.9579C141.074 49.4687 140.523 49.7662 139.945 49.7662C139.356 49.7662 138.492 49.5754 138.441 48.9579C138.424 48.7334 138.452 48.6829 138.435 48.5033L138.441 46.6847L138.435 44.8886C138.458 44.7034 138.424 44.6585 138.441 44.434C138.492 43.8166 139.356 43.6257 139.945 43.6257C140.523 43.6257 141.074 43.9232 141.45 44.434C141.579 44.6136 141.534 44.8662 141.343 44.9897C141.152 45.1244 140.894 45.0738 140.754 44.8942C140.54 44.6024 140.248 44.4396 139.945 44.4396C139.715 44.4396 139.496 44.5238 139.317 44.6922L139.339 46.275ZM159.927 44.7595C159.927 44.6809 159.905 44.5911 159.854 44.5182C159.478 43.9906 158.939 43.6875 158.361 43.6875C157.777 43.6875 157.233 43.9906 156.868 44.5182C156.812 44.5911 156.79 44.6809 156.79 44.7595V48.711C156.79 48.8008 156.823 48.8794 156.868 48.9523C157.233 49.4743 157.777 49.7718 158.361 49.7718C158.939 49.7718 159.484 49.4687 159.849 48.9411C159.899 48.8738 159.927 48.7896 159.927 48.6885V44.7595Z" fill="white"/>
<path d="M155.049 55.2724C155.47 54.7672 156.043 54.4697 156.621 54.4697C157.199 54.4697 157.755 54.7504 158.193 55.2724V61.1547H155.049V55.2724ZM150.043 63.1584C149.605 63.6804 149.049 63.9611 148.471 63.9611C147.893 63.9611 147.337 63.6804 146.9 63.1584V55.2724C147.337 54.7504 147.893 54.4697 148.471 54.4697C149.049 54.4697 149.605 54.7672 150.043 55.2724V57.3211L148.578 58.5447C148.353 58.7187 148.247 58.9656 148.247 59.2238C148.247 59.5213 148.353 59.7458 148.578 59.9423L150.043 61.1434V63.1584ZM150.548 59.2463L151.508 58.438C151.715 58.264 151.839 58.0171 151.839 57.742V54.9805C151.839 54.7335 151.788 54.6157 151.682 54.4585C150.879 53.3247 149.712 52.6792 148.471 52.6792C147.214 52.6792 146.046 53.3247 145.261 54.4585C145.154 54.6157 145.103 54.7897 145.103 54.9637V63.4784C145.103 63.7422 145.193 63.8769 145.261 63.9835C146.046 65.1173 147.214 65.7628 148.471 65.7628C149.712 65.7628 150.896 65.1173 151.682 63.9835C151.788 63.8264 151.839 63.6524 151.839 63.4615V60.7337C151.839 60.453 151.715 60.2117 151.508 60.0377L150.548 59.2463ZM138.385 52.8308C137.88 52.8308 137.476 53.2293 137.476 53.7232C137.476 54.2284 137.88 54.6325 138.385 54.6325H139.956V64.6683C139.956 65.1735 140.355 65.5776 140.866 65.5776C141.354 65.5776 141.758 65.1735 141.758 64.6683V54.6325H143.33C143.835 54.6325 144.239 54.2284 144.239 53.7232C144.239 53.2349 143.84 52.8308 143.33 52.8308H138.385ZM135.713 60.9077C135.208 60.9077 134.804 61.3062 134.804 61.817V63.1584C134.366 63.6636 133.81 63.9611 133.232 63.9611C132.654 63.9611 132.082 63.6804 131.661 63.1584V55.2724C132.082 54.7504 132.654 54.4697 133.232 54.4697C133.81 54.4697 134.366 54.7504 134.804 55.2724V56.4398C134.804 56.9282 135.208 57.3323 135.696 57.3323C136.201 57.3323 136.606 56.9338 136.606 56.4398V54.9749C136.606 54.784 136.538 54.5932 136.432 54.4529C135.646 53.3191 134.478 52.6736 133.238 52.6736C131.981 52.6736 130.813 53.3191 130.027 54.4361C129.921 54.5932 129.853 54.7672 129.853 54.958V63.4728C129.853 63.6636 129.921 63.8376 130.027 63.9948C130.813 65.1117 131.981 65.7572 133.238 65.7572C134.478 65.7572 135.663 65.1117 136.448 63.9779C136.555 63.8208 136.606 63.6468 136.606 63.4559V61.817C136.606 61.3118 136.201 60.9077 135.713 60.9077ZM120.115 52.8308C119.61 52.8308 119.206 53.2349 119.206 53.7232V60.7337C118.768 61.2388 118.212 61.5363 117.634 61.5363C117.056 61.5363 116.5 61.2388 116.062 60.7169V53.7232C116.062 53.2349 115.664 52.8308 115.153 52.8308C114.665 52.8308 114.261 53.2349 114.261 53.7232V61.0312C114.261 61.222 114.311 61.396 114.418 61.5363C115.221 62.6701 116.388 63.3324 117.628 63.3324C118.167 63.3324 118.712 63.209 119.2 62.9676V64.6795C119.2 65.1847 119.599 65.5888 120.109 65.5888C120.598 65.5888 121.002 65.1847 121.002 64.6795V53.7232C121.007 53.2349 120.603 52.8308 120.115 52.8308ZM109.507 61.7833C108.928 61.7833 108.373 61.4858 107.935 60.9806V55.2724C108.373 54.7504 108.928 54.4697 109.507 54.4697C110.102 54.4697 110.64 54.7504 111.078 55.2724V60.9806C110.64 61.4858 110.102 61.7833 109.507 61.7833ZM112.874 54.9637C112.874 54.7728 112.824 54.5988 112.717 54.4361C111.931 53.3191 110.747 52.668 109.507 52.668C108.878 52.668 108.249 52.8252 107.71 53.1395C107.536 52.9486 107.306 52.8252 107.031 52.8252C106.543 52.8252 106.139 53.2293 106.139 53.7344V64.6739C106.139 65.1791 106.543 65.5832 107.031 65.5832C107.536 65.5832 107.941 65.1791 107.941 64.6739V63.035C108.289 63.3661 108.867 63.5738 109.512 63.5738C110.753 63.5738 111.92 62.9283 112.706 61.7945C112.829 61.6542 112.88 61.4634 112.88 61.2725V54.9637H112.874ZM101.374 63.9611C100.779 63.9611 100.223 63.6804 99.7851 63.1584V55.2724C100.223 54.7672 100.779 54.4697 101.374 54.4697C101.952 54.4697 102.507 54.7672 102.945 55.2724V63.1584C102.507 63.6861 101.952 63.9611 101.374 63.9611ZM104.741 54.9749C104.741 54.8009 104.691 54.6101 104.584 54.4529C103.781 53.3191 102.614 52.6736 101.374 52.6736C100.116 52.6736 98.9488 53.3191 98.163 54.4529C98.0395 54.6101 97.989 54.8009 97.989 54.9749V63.4728C97.989 63.6636 98.0564 63.8376 98.163 63.9948C98.9488 65.1117 100.116 65.7572 101.374 65.7572C102.614 65.7572 103.781 65.1117 104.567 63.9779C104.674 63.8376 104.741 63.6468 104.741 63.4391V54.9749ZM94.7953 63.1584C94.3575 63.6804 93.8018 63.9611 93.2237 63.9611C92.6456 63.9611 92.0899 63.6804 91.6521 63.1584V55.2724C92.0899 54.7504 92.6456 54.4697 93.2237 54.4697C93.8018 54.4697 94.3575 54.7672 94.7953 55.2724V57.3211L93.3303 58.5447C93.1058 58.7187 92.9992 58.9656 92.9992 59.2238C92.9992 59.5213 93.1058 59.7458 93.3303 59.9423L94.7953 61.1434V63.1584ZM95.3005 59.2463L96.2603 58.438C96.4679 58.264 96.5914 58.0171 96.5914 57.742V54.9805C96.5914 54.7335 96.5409 54.6157 96.4342 54.4585C95.6316 53.3247 94.4641 52.6792 93.2237 52.6792C91.9664 52.6792 90.7989 53.3247 90.0131 54.4585C89.9065 54.6157 89.856 54.7897 89.856 54.9637V63.4784C89.856 63.7422 89.9458 63.8769 90.0131 63.9835C90.7989 65.1173 91.9664 65.7628 93.2237 65.7628C94.4641 65.7628 95.6484 65.1173 96.4342 63.9835C96.5409 63.8264 96.5914 63.6524 96.5914 63.4615V60.7337C96.5914 60.453 96.4679 60.2117 96.2603 60.0377L95.3005 59.2463ZM83.143 52.8308C82.6378 52.8308 82.2337 53.2293 82.2337 53.7232C82.2337 54.2284 82.6378 54.6325 83.143 54.6325H84.7146V64.6683C84.7146 65.1735 85.1131 65.5776 85.6239 65.5776C86.1122 65.5776 86.5163 65.1735 86.5163 64.6683V54.6325H88.0879C88.5931 54.6325 88.9972 54.2284 88.9972 53.7232C88.9972 53.2349 88.5931 52.8308 88.0879 52.8308H83.143ZM124.336 58.3819H128.029V59.8412H124.341L124.285 63.4559C124.661 63.7983 125.122 63.9779 125.604 63.9779C126.239 63.9779 126.856 63.6355 127.299 63.0237C127.591 62.6477 128.136 62.5466 128.534 62.8273C128.927 63.0911 129.028 63.6187 128.759 63.9948C127.973 65.0668 126.822 65.6898 125.61 65.6898C124.375 65.6898 122.568 65.2913 122.461 63.9948C122.422 63.5233 122.489 63.4279 122.444 63.0406L122.45 59.235H122.455L122.45 55.4744C122.495 55.0928 122.427 54.9917 122.467 54.5202C122.573 53.2237 124.386 52.8252 125.616 52.8252C126.834 52.8252 127.979 53.4482 128.764 54.5202C129.039 54.8963 128.938 55.4239 128.54 55.6877C128.147 55.9684 127.597 55.8673 127.305 55.4913C126.862 54.8851 126.244 54.5371 125.61 54.5371C125.133 54.5371 124.667 54.7167 124.291 55.0591L124.336 58.3819ZM159.815 54.4529C159.029 53.3191 157.861 52.6736 156.621 52.6736C155.364 52.6736 154.196 53.3191 153.41 54.4529C153.287 54.6101 153.236 54.8009 153.236 54.9749V64.6795C153.236 65.1679 153.641 65.5888 154.146 65.5888C154.634 65.5888 155.055 65.1679 155.055 64.6795V62.9508H158.198V64.6795C158.198 65.1679 158.602 65.5888 159.091 65.5888C159.596 65.5888 160 65.1679 160 64.6795V54.9749C159.989 54.8009 159.933 54.6101 159.815 54.4529Z" fill="white"/>
</svg>
