<svg width="200" height="100" viewBox="0 0 200 100" fill="none" xmlns="http://www.w3.org/2000/svg">
<path fill-rule="evenodd" clip-rule="evenodd" d="M20.8847 76.8763C7.89463 77.4922 0.136757 79.7806 3.56649 81.9786C6.99623 84.1822 20.3084 85.4648 33.2984 84.8433C46.2885 84.2274 54.0463 81.939 50.6166 79.7411C47.1869 77.5374 33.8747 76.2548 20.8847 76.8763Z" fill="#C5C6C6" fill-opacity="0.3"/>
<path d="M16.0087 36.7142C17.28 30.4988 20.156 24.5773 17.7038 17.9156C19.1446 18.5654 19.913 19.4807 20.495 20.5543C21.6364 22.6732 21.4047 24.9276 20.8736 27.1256C20.043 30.5441 18.4722 33.6348 16.4211 36.4882C16.3703 36.556 16.2573 36.5786 16.0087 36.7142Z" fill="#0070BB"/>
<path d="M22.0654 26.216C23.2972 28.4479 23.1221 30.5103 22.3028 32.5444C20.9919 35.8159 18.8109 38.4829 16.3021 40.9068C15.8501 41.3419 15.3811 41.7657 14.8217 42.1273C14.8669 40.7769 14.7991 39.3982 15.7088 38.3473C18.5114 35.1153 20.5003 31.4539 21.6869 27.3517C21.766 27.041 21.8846 26.7415 22.0654 26.216Z" fill="#0070BB"/>
<path d="M20.512 37.9457C21.3086 40.1549 17.9128 44.2232 14.5678 46.0652C14.4379 44.8503 14.3983 43.8898 15.5171 42.9462C17.3195 41.4263 18.879 39.6125 20.512 37.9457Z" fill="#0070BB"/>
<path d="M27.0886 67.3784C26.8117 67.3671 26.5292 67.2372 26.2241 66.9546C24.964 65.7794 23.6193 64.6889 22.3932 63.4741C21.3761 62.4683 20.6077 61.2817 20.3421 59.824C20.0257 58.0724 20.5794 56.479 21.1727 54.8856C22.1558 52.2412 23.2859 49.6364 24.1052 46.9412C24.6815 45.0371 24.7437 43.003 24.2182 41.0254C24.1278 40.675 23.7831 40.1835 23.5063 40.1496C23.2011 40.11 22.7209 40.4434 22.5175 40.7485C22.0089 41.5226 21.5343 42.3362 21.2009 43.2007C20.3534 45.3817 19.6641 47.6249 18.777 49.7833C18.1893 51.2072 16.9293 51.8231 15.5958 51.4954C14.3641 51.1959 13.364 50.3766 13.2622 49.1336C13.0927 47.122 12.9515 45.0314 13.3188 43.0708C14.0476 39.1777 15.1212 35.3524 16.0648 31.4989C16.8219 28.4082 17.5169 25.3175 16.7767 22.1024C16.2287 19.6954 15.2738 17.5087 13.5843 15.6893C13.2736 15.3503 12.7368 15.226 12.3017 15C12.183 15.5029 11.9231 16.0171 11.9683 16.503C12.1209 18.2207 12.4204 19.9271 12.5729 21.6448C12.6859 22.8709 12.782 24.1253 12.6577 25.3457C12.4034 27.8036 11.0304 29.8603 9.99072 32.0301C7.60629 36.9967 4.75853 41.7599 3.41941 47.1898C2.80917 49.676 2.51536 52.196 2.97868 54.6878C4.43081 62.5531 9.04147 67.9152 16.3699 70.9664C18.0876 71.684 19.8844 72.2094 21.7264 72.8479C21.0992 73.5486 20.5229 74.1871 19.9579 74.8312C19.3928 75.481 18.8165 76.1251 18.2797 76.7975C17.7768 77.4303 17.3305 78.1084 16.8558 78.7638C17.161 78.8429 17.2966 78.8034 17.4039 78.7243C20.1839 76.6336 23.3594 75.4188 26.6704 74.5204C26.8004 74.4865 26.9473 74.4526 27.0886 74.4413V67.3784Z" fill="#E72D34"/>
<path d="M38.169 36.7142C36.8977 30.4988 34.0217 24.5773 36.4739 17.9156C35.0331 18.5654 34.2646 19.4807 33.6827 20.5543C32.5413 22.6732 32.773 24.9276 33.3041 27.1256C34.1347 30.5441 35.7055 33.6348 37.7565 36.4882C37.813 36.556 37.9204 36.5786 38.169 36.7142Z" fill="#E72D34"/>
<path d="M32.2586 27.0635C31.0777 29.1993 31.2472 31.1713 32.0326 33.1206C33.2926 36.2509 35.3719 38.8048 37.7789 41.1215C38.214 41.5396 38.6604 41.9408 39.1972 42.2911C39.152 40.9972 39.2198 39.6806 38.3496 38.6749C35.6714 35.5785 33.7616 32.081 32.6315 28.1483C32.5411 27.8602 32.4337 27.572 32.2586 27.0635Z" fill="#E72D34"/>
<path d="M33.7445 38.2961C32.9817 40.4093 36.2363 44.3024 39.4344 46.0652C39.5587 44.9013 39.5926 43.9859 38.5247 43.0819C36.7957 41.6241 35.3096 39.8895 33.7445 38.2961Z" fill="#E72D34"/>
<path d="M27.0886 67.3784C27.3655 67.3671 27.648 67.2371 27.9531 66.9546C29.2131 65.7794 30.5579 64.6888 31.784 63.474C32.8011 62.4683 33.5695 61.2817 33.8351 59.8239C34.1515 58.0723 33.5978 56.4789 33.0045 54.8856C32.0213 52.2412 30.8913 49.6364 30.072 46.9412C29.4956 45.0371 29.4335 43.0029 29.959 41.0253C30.0494 40.675 30.394 40.1834 30.6709 40.1495C30.976 40.11 31.4563 40.4434 31.6597 40.7485C32.1682 41.5226 32.6429 42.3362 32.9762 43.2007C33.8238 45.3817 34.5131 47.6249 35.4002 49.7833C35.9878 51.2072 37.2479 51.8231 38.5813 51.4954C39.8131 51.1959 40.8132 50.3766 40.9149 49.1335C41.0844 47.122 41.2257 45.0314 40.8584 43.0708C40.1295 39.1777 39.056 35.3524 38.1124 31.4989C37.3552 28.4082 36.6602 25.3175 37.4004 22.1024C37.9485 19.6954 38.9034 17.5087 40.5928 15.6893C40.9036 15.3503 41.4404 15.226 41.8755 15C41.9941 15.5029 42.254 16.0171 42.2088 16.503C42.0563 18.2207 41.7568 19.9271 41.6042 21.6448C41.4912 22.8709 41.3952 24.1253 41.5195 25.3457C41.7738 27.8036 43.1468 29.8603 44.1864 32.03C46.5709 36.9967 49.4186 41.7599 50.7577 47.1955C51.368 49.6816 51.6618 52.2017 51.1985 54.6934C49.7463 62.5587 45.1357 67.9208 37.8072 70.972C36.0895 71.6896 34.2927 72.2151 32.4507 72.8535C33.0779 73.5542 33.6543 74.1927 34.2193 74.8368C34.7843 75.4866 35.3607 76.1307 35.8974 76.8031C36.4003 77.436 36.8467 78.114 37.3213 78.7694C37.0162 78.8485 36.8806 78.809 36.7732 78.7299C33.9933 76.6393 30.8178 75.4244 27.5067 74.526C27.3768 74.4921 27.2299 74.4582 27.0886 74.4469V67.3784Z" fill="#E72D34"/>
<path d="M74.9926 35.9774C75.5768 35.9774 76.0442 36.4448 76.0442 37.029V42.9163C76.0442 43.5006 75.5768 43.968 74.9926 43.968C74.4263 43.968 73.9679 43.5006 73.9679 42.9163V38.0626H70.3995V42.9163C70.3995 43.5006 69.9322 43.968 69.3749 43.968C68.7906 43.968 68.3232 43.5006 68.3232 42.9163V30.2788C68.3232 29.7125 68.7906 29.2541 69.3749 29.2541C69.9411 29.2541 70.3995 29.7215 70.3995 30.2788V35.9863H71.3703L74.0308 29.9013C74.2555 29.3799 74.8577 29.1193 75.397 29.317C75.9184 29.5417 76.179 30.1439 75.9633 30.6922L73.6623 35.9953H74.9926V35.9774Z" fill="white"/>
<path d="M85.4548 31.7087V42.9171C85.4548 43.4834 84.9874 43.9688 84.4032 43.9688C83.8369 43.9688 83.3785 43.4834 83.3785 42.9171V40.9217H79.7472V42.9171C79.7472 43.4834 79.2619 43.9688 78.6956 43.9688C78.1114 43.9688 77.644 43.4834 77.644 42.9171V31.7087C77.644 31.511 77.7069 31.2863 77.8417 31.1065C78.7495 29.7942 80.0978 29.0482 81.5539 29.0482C82.983 29.0482 84.3313 29.7942 85.2391 31.1065C85.3919 31.2863 85.4548 31.502 85.4548 31.7087ZM79.7472 38.8454H83.3785V32.0503C82.8752 31.448 82.228 31.1245 81.5629 31.1245C80.8978 31.1245 80.2326 31.466 79.7472 32.0503V38.8454Z" fill="white"/>
<path d="M93.7425 35.9774C94.3268 35.9774 94.7941 36.4448 94.7941 37.029V42.9163C94.7941 43.5006 94.3268 43.968 93.7425 43.968C93.1762 43.968 92.7178 43.5006 92.7178 42.9163V38.0626H89.1495V42.9163C89.1495 43.5006 88.6821 43.968 88.1248 43.968C87.5406 43.968 87.0732 43.5006 87.0732 42.9163V30.2788C87.0732 29.7125 87.5406 29.2541 88.1248 29.2541C88.6911 29.2541 89.1495 29.7215 89.1495 30.2788V35.9863H90.1202L92.7808 29.9013C93.0055 29.3799 93.6077 29.1193 94.147 29.317C94.6683 29.5417 94.929 30.1439 94.7132 30.6922L92.4122 35.9953H93.7425V35.9774Z" fill="white"/>
<path d="M107.441 37.65C107.683 37.8478 107.827 38.1354 107.827 38.459V41.6049C107.827 41.8296 107.764 42.0273 107.647 42.2071C106.74 43.5194 105.373 44.2654 103.935 44.2654C102.488 44.2654 101.131 43.5194 100.223 42.2071C100.142 42.0903 100.043 41.9285 100.043 41.6229V31.8076C100.043 31.6099 100.106 31.4032 100.223 31.2234C101.131 29.9111 102.479 29.1651 103.935 29.1651C105.364 29.1651 106.713 29.9111 107.647 31.2234C107.764 31.4032 107.827 31.547 107.827 31.8256V35.0075C107.827 35.3311 107.683 35.6097 107.441 35.8164L106.335 36.7422L107.441 37.65ZM105.751 38.9444L104.061 37.5512C103.8 37.3265 103.675 37.0658 103.675 36.7242C103.675 36.4186 103.791 36.14 104.061 35.9423L105.751 34.5311V32.1762C105.247 31.5919 104.6 31.2504 103.935 31.2504C103.27 31.2504 102.623 31.5739 102.12 32.1762V41.2633C102.623 41.8656 103.27 42.1891 103.935 42.1891C104.6 42.1891 105.247 41.8656 105.751 41.2633V38.9444Z" fill="white"/>
<path d="M116.429 41.6229C116.429 41.8656 116.312 42.1262 116.249 42.2251C115.324 43.5374 113.975 44.2834 112.519 44.2834C111.09 44.2834 109.742 43.5374 108.807 42.2251C108.484 41.7577 108.609 41.1195 109.068 40.778C109.535 40.4544 110.2 40.5802 110.515 41.0386C111.036 41.7847 111.764 42.2071 112.51 42.2071C113.175 42.2071 113.841 41.8656 114.344 41.2813V37.9916H111.54C111.135 37.9916 110.794 37.7669 110.614 37.4074C110.434 37.0658 110.47 36.6434 110.713 36.3198L114.038 31.8885C113.598 31.4841 113.05 31.2593 112.51 31.2593C111.764 31.2593 111.036 31.6818 110.515 32.4278C110.191 32.8952 109.526 33.0121 109.068 32.6705C108.6 32.3469 108.484 31.6998 108.807 31.2414C109.733 29.9291 111.081 29.1651 112.519 29.1651C113.966 29.1651 115.324 29.9291 116.249 31.2414C116.51 31.6279 116.474 32.1043 116.214 32.4548C115.989 32.7334 113.634 35.9243 113.634 35.9243H115.387C115.971 35.9243 116.438 36.3917 116.438 36.949V41.6229H116.429Z" fill="white"/>
<path d="M128.087 42.9085C128.15 43.4748 127.7 44.077 127.062 44.077C126.514 44.077 126.092 43.6725 126.038 43.1512L125.13 35.2505L123.817 39.2592V43.0254C123.817 43.6096 123.35 44.077 122.793 44.077C122.209 44.077 121.741 43.6096 121.741 43.0254V39.2592L120.429 35.2505L119.521 43.1512C119.458 43.6725 119.018 44.077 118.496 44.077C117.813 44.077 117.409 43.4927 117.472 42.9085L118.901 30.2889C118.964 29.7047 119.467 29.3002 120.051 29.3631C120.456 29.3991 120.797 29.7047 120.914 30.0642L122.793 35.7448L124.644 30.0642C124.761 29.7047 125.112 29.3991 125.507 29.3631C126.092 29.3002 126.595 29.7047 126.658 30.2889L128.087 42.9085Z" fill="white"/>
<path d="M136.913 31.8256V43.034C136.913 43.6003 136.446 44.0857 135.861 44.0857C135.295 44.0857 134.837 43.6003 134.837 43.034V41.0386H131.205V43.034C131.205 43.6003 130.72 44.0857 130.154 44.0857C129.57 44.0857 129.102 43.6003 129.102 43.034V31.8256C129.102 31.6279 129.165 31.4032 129.3 31.2234C130.208 29.9111 131.556 29.1651 133.012 29.1651C134.441 29.1651 135.789 29.9111 136.697 31.2234C136.85 31.4032 136.913 31.6279 136.913 31.8256ZM131.205 38.9623H134.837V32.1672C134.333 31.5649 133.686 31.2414 133.021 31.2414C132.356 31.2414 131.691 31.5829 131.205 32.1672V38.9623Z" fill="white"/>
<path d="M77.3838 59.4288C78.2017 59.4288 78.8579 60.0849 78.8579 60.9029V69.1811C78.8579 69.999 78.2017 70.6552 77.3838 70.6552C76.5928 70.6552 75.9367 69.999 75.9367 69.1811V62.35H70.9212V69.1811C70.9212 69.999 70.2651 70.6552 69.4741 70.6552C68.6561 70.6552 68 69.999 68 69.1811V51.4112C68 50.6202 68.6561 49.9641 69.4741 49.9641C70.2651 49.9641 70.9212 50.6202 70.9212 51.4112V59.4288H72.2784L76.0176 50.8719C76.3322 50.1349 77.1771 49.7664 77.9411 50.054C78.6781 50.3686 79.0466 51.2135 78.732 51.9775L75.4963 59.4288H77.3838Z" fill="white"/>
<path d="M92.0617 63.653C92.0617 63.9676 91.9809 64.2732 91.7741 64.5069C90.4978 66.3495 88.6012 67.4011 86.5879 67.4011C85.5362 67.4011 84.6014 67.0596 84.0352 66.5203V69.1808C84.0352 69.9988 83.379 70.6549 82.5611 70.6549C81.7701 70.6549 81.114 69.9988 81.114 69.1808V51.4379C81.114 50.6199 81.7701 49.9638 82.5611 49.9638C83.0105 49.9638 83.379 50.1615 83.6667 50.4492C84.5475 49.9368 85.5632 49.6852 86.5879 49.6852C88.6012 49.6852 90.5247 50.7368 91.8011 52.5794C91.9719 52.8311 92.0528 53.1187 92.0528 53.4333V63.653H92.0617ZM89.1495 63.1676V53.9007C88.4395 53.0468 87.5586 52.5974 86.5969 52.5974C85.6621 52.5974 84.7542 53.0468 84.0442 53.9007V63.1676C84.7542 63.9856 85.6621 64.471 86.5969 64.471C87.5586 64.471 88.4395 63.9946 89.1495 63.1676Z" fill="white"/>
<path d="M105.301 67.1944C105.301 67.509 105.184 67.7876 105.049 68.0123C105.049 68.0393 105.049 68.0393 105.049 68.0393C103.746 69.8819 101.849 70.9335 99.8091 70.9335C97.7958 70.9335 95.8992 69.8819 94.5959 68.0393C94.4521 67.8146 94.3442 67.5 94.3442 67.1854V51.4289C94.3442 50.6379 95.0004 50.0357 95.8183 49.9548H99.7013C100.492 49.9548 101.175 50.6379 101.175 51.4289C101.175 52.2198 100.492 52.903 99.7013 52.903H97.2654V56.9836H99.8451C101.858 56.9836 103.755 58.0353 105.058 59.8779C105.229 60.1655 105.31 60.3902 105.31 60.6958V67.1944H105.301ZM102.38 66.718V61.2171C101.67 60.3633 100.762 59.9138 99.8271 59.9138H97.2475V66.718C97.9575 67.5359 98.8654 68.0213 99.8001 68.0213C100.762 68.0213 101.67 67.5359 102.38 66.718ZM114.712 69.4954C114.712 70.2864 114.056 70.9425 113.238 70.9425H107.431C106.64 70.9425 105.957 70.2864 105.957 69.4954C105.957 68.6774 106.64 68.0213 107.431 68.0213H108.878V52.9119H107.431C106.64 52.9119 105.957 52.2288 105.957 51.4379C105.957 50.6469 106.64 49.9638 107.431 49.9638H113.238C114.056 49.9638 114.712 50.6469 114.712 51.4379C114.712 52.2288 114.056 52.9119 113.238 52.9119H111.791V68.0213H113.238C114.056 68.0213 114.712 68.6685 114.712 69.4954Z" fill="white"/>
<path d="M131.889 49.964C132.68 49.964 133.336 50.6201 133.336 51.4111C133.336 52.229 132.68 52.8852 131.889 52.8852H130.019V69.208C130.019 69.9989 129.363 70.6551 128.572 70.6551C127.754 70.6551 127.098 69.9989 127.098 69.208V52.8852H124.033V67.2036C124.033 67.5182 123.916 67.8238 123.781 68.0574C122.478 69.9001 120.581 70.9517 118.568 70.9517C117.75 70.9517 116.95 70.7809 116.186 70.4393C115.449 70.1248 115.108 69.2529 115.422 68.5158C115.764 67.7788 116.609 67.4373 117.346 67.7788C117.741 67.9496 118.137 68.0305 118.568 68.0305C119.503 68.0305 120.411 67.5451 121.121 66.7272V52.8941H118.397C117.606 52.8941 116.923 52.238 116.923 51.4201C116.923 50.6291 117.606 49.9729 118.397 49.9729H131.889V49.964Z" fill="white"/>
<path d="M146 53.4241V69.1806C146 69.9716 145.344 70.6547 144.526 70.6547C143.735 70.6547 143.079 69.9716 143.079 69.1806V66.3763H137.973V69.1806C137.973 69.9716 137.29 70.6547 136.499 70.6547C135.681 70.6547 135.025 69.9716 135.025 69.1806V53.4241C135.025 53.1365 135.106 52.8309 135.313 52.5702C136.589 50.7276 138.486 49.676 140.526 49.676C142.539 49.676 144.436 50.7276 145.712 52.5702C145.919 52.8219 146 53.1365 146 53.4241ZM137.982 63.4551H143.088V53.9005C142.378 53.0466 141.47 52.5972 140.535 52.5972C139.6 52.5972 138.666 53.0826 137.982 53.9005V63.4551Z" fill="white"/>
<path d="M145.192 41.9193V41.9283L142.918 36.787L143.385 35.7353L145.542 30.8187C145.785 30.2974 145.542 29.6862 145.021 29.4525C144.5 29.2278 143.871 29.4525 143.655 30.0008L141.92 33.9556L141.803 34.5039L141.704 33.9556L139.97 30.0008C139.727 29.4525 139.125 29.2368 138.604 29.4525C138.082 29.6952 137.839 30.2974 138.055 30.8187L140.158 35.6095L140.68 36.7959L140.23 37.8206H140.239L138.127 42.6204C137.866 43.3035 138.37 44.0945 139.071 44.0945C139.475 44.0945 139.853 43.8518 140.042 43.4653L141.713 39.6362L141.83 39.088L141.929 39.6362L143.601 43.4653C143.781 43.8518 144.167 44.0945 144.572 44.0945C145.336 44.0945 145.785 43.2496 145.516 42.6204L145.192 41.9193Z" fill="white"/>
</svg>
