<svg width="24" height="24" viewBox="0 0 24 24" xmlns="http://www.w3.org/2000/svg" fill="none"><path d="M21.456 21.615l-2.889-.636-.895 2.827c-.064.203-.34.233-.446.048l-3.574-6.209c1.761-.381 3.327-1.286 4.53-2.542l3.54 6.151c.106.184-.057.407-.265.362z" fill="#FD646F"/><path d="M21.457 21.616l-2.671-.588c-.124-.027-.248.044-.286.165l-.828 2.614c-.065.203-.34.233-.446.048l-3.062-5.32-.512-.889c1.761-.382 3.327-1.286 4.53-2.542l.508.883 3.032 5.268c.106.185-.057.407-.265.362zM10.405 17.571l-3.631 6.306c-.106.185-.382.155-.446-.048l-.828-2.614c-.038-.121-.162-.193-.286-.165l-2.671.588c-.208.046-.371-.177-.265-.362l3.44-6.041c1.261 1.195 2.898 2.042 4.687 2.336z" fill="#f35"/><path d="M20.896 8.923c0 2.398-.944 4.576-2.479 6.18-1.203 1.257-2.769 2.161-4.53 2.542-.608.132-1.239.201-1.887.201-.494 0-.978-.04-1.45-.118-1.697-.279-3.233-1.04-4.462-2.139l-.197-.18c-.229-.217-.447-.447-.653-.687-.197-.231-.382-.472-.555-.723-.52-.752-.927-1.588-1.198-2.484-.248-.82-.381-1.69-.381-2.592 0-4.928 3.983-8.923 8.896-8.923.899 0 1.766.134 2.583.383.894.271 1.727.679 2.477 1.201.25.174.491.359.721.558.308.264.597.548.866.851 1.399 1.577 2.249 3.654 2.249 5.931z" fill="#FF9F00"/><path d="M12 15.315c3.519 0 6.372-2.862 6.372-6.391 0-3.53-2.853-6.391-6.372-6.391-3.519 0-6.372 2.861-6.372 6.391s2.853 6.391 6.372 6.391z" fill="#FDBF00"/><path d="M12.22 5.389l.875 1.788c.036.073.105.123.185.135l1.967.283c.201.029.282.276.136.418l-1.427 1.389c-.058.056-.084.138-.071.217l.34 1.964c.035.201-.176.354-.356.258l-1.756-.93c-.072-.038-.158-.038-.229 0l-1.756.93c-.18.095-.391-.058-.356-.258l.34-1.964c.014-.08-.013-.161-.071-.217l-1.427-1.389c-.146-.142-.065-.389.136-.418l1.967-.283c.08-.012.15-.062.185-.135l.875-1.788c.09-.183.351-.183.44 0z" fill="#FF7816"/></svg>