<svg width="24" height="24" viewBox="0 0 24 24" xmlns="http://www.w3.org/2000/svg" fill="none"><g clip-path="url(#a)"><path d="M7.932 23.066c-.536 0-.946-.126-1.23-.378-.284-.252-.436-.602-.456-1.05h.876c.048.476.306.714.774.714.476 0 .714-.206.714-.618 0-.412-.23-.618-.69-.618h-.336v-.648h.312c.436 0 .654-.19.654-.57 0-.16-.052-.288-.156-.384-.1-.1-.246-.15-.438-.15-.204 0-.368.058-.492.174-.12.112-.192.27-.216.474h-.858c.024-.404.172-.73.444-.978.28-.256.66-.384 1.14-.384.46 0 .826.11 1.098.33.264.216.396.494.396.834 0 .456-.236.766-.708.93.26.06.464.176.612.348.148.172.222.392.222.66 0 .408-.148.73-.444.966-.292.232-.698.348-1.218.348zM11.72 23.066c-.504 0-.894-.128-1.17-.384-.256-.232-.396-.552-.42-.96h.894c.024.192.084.336.18.432.1.112.27.168.51.168.216 0 .382-.068.498-.204.116-.14.174-.326.174-.558 0-.232-.062-.414-.186-.546-.124-.136-.294-.204-.51-.204-.348 0-.622.114-.822.342h-.54l.06-2.442h2.718v.738h-1.992l-.018 1.074c.212-.264.53-.396.954-.396.388 0 .704.126.948.378.244.256.366.612.366 1.068 0 .456-.15.818-.45 1.086-.296.272-.694.408-1.194.408zM15.831 22.304c.588 0 .882-.454.882-1.362v-.192c0-.9-.298-1.35-.894-1.35-.604 0-.906.45-.906 1.35v.204c0 .9.306 1.35.918 1.35zm-.024.762c-.576 0-1.028-.188-1.356-.564-.34-.372-.51-.886-.51-1.542v-.204c0-.652.174-1.168.522-1.548.34-.372.79-.558 1.35-.558s1.01.18 1.35.54c.344.376.516.892.516 1.548v.198c0 .656-.166 1.176-.498 1.56-.344.38-.802.57-1.374.57z" fill="#FF7816"/><path d="M17.793 5.096c-3.513-.73-5.794 2.962-5.794 2.962s-2.281-3.692-5.794-2.962c-3.513.73-5.292 6.566.411 10.946h10.767c5.703-4.38 3.924-10.216.411-10.946z" fill="#FDBF00"/><path d="M19.183 14.343c-.49.58-1.087 1.151-1.799 1.698h-5.384v-7.984s.577-.933 1.597-1.769c1.009-.826 2.451-1.556 4.198-1.193 3.074.639 4.82 5.187 1.389 9.248z" fill="#FF7816"/><path fill="#FF9F00" d="M11 0h2v17h-2zM-2.5 15.5v2h-7v-2zM6 15h12v2h-12z"/></g><defs><clipPath id="a"><path fill="#fff" d="M0 0h24v24h-24z"/></clipPath></defs></svg>