<svg width="180" height="226" viewBox="0 0 180 226" fill="none" xmlns="http://www.w3.org/2000/svg">
<path d="M33.3001 109.144C31.7822 109.144 30.2626 108.721 29.1981 108.016C27.8308 107.029 26.9204 105.618 26.6176 105.054C25.5549 103.361 25.0979 101.528 26.6176 98.707C27.5279 96.8748 29.5028 95.6052 31.3253 94.1941C33.4524 91.3736 34.9703 88.6945 30.7195 87.142L31.7822 86.1552C34.8197 87.7061 35.7301 90.1039 32.3879 94.7582C30.1103 96.8732 29.8074 99.2711 31.9328 101.81C32.8449 103.08 34.0599 104.208 35.5778 105.336C37.0974 106.465 39.2245 107.31 41.8051 108.157C45.907 111.119 48.7922 114.081 50.1595 117.183C52.5901 120.919 54.0947 125.11 54.5643 129.453C54.7166 130.723 54.7166 132.838 53.9568 135.658C52.1343 141.724 49.0968 146.519 46.0593 151.032C43.0218 153.994 39.5274 156.251 35.5795 157.943V154.841C41.3499 153.994 44.5397 150.468 46.0593 145.954C49.552 133.543 48.0324 123.952 44.2368 114.504C43.4753 112.953 41.9574 111.683 40.5901 110.272C39.0722 109.709 37.402 109.427 35.5778 109.285C34.8197 109.285 34.0599 109.144 33.3001 109.144ZM35.5778 169.789L18.2631 176.983C14.1612 177.97 12.1881 179.662 10.9731 181.354L11.7329 184.175L10.8208 184.599L9.15064 181.637C8.84602 180.649 8.99833 179.662 10.3656 178.956C12.3387 176.841 13.706 174.726 13.1003 173.034C14.4676 170.918 16.1378 170.214 18.1126 170.353H23.8829C26.9204 170.214 29.6551 169.791 31.9328 168.944L33.6047 168.38L25.0979 161.045C24.3399 160.341 22.5156 158.366 21.9081 157.66C21.3024 156.955 19.0229 154.981 18.2631 154.134C4.74583 139.609 1.70833 128.466 0.341019 118.03C-0.418789 107.874 -0.264751 98.707 4.59352 86.438C8.23852 81.5009 11.1254 76.4239 18.4154 73.0393C24.3399 71.4868 29.9597 73.462 35.5778 77.1295V83.0518C34.5151 81.6423 33.3001 80.3727 32.0851 79.103C25.8578 73.7448 20.0856 71.7696 15.0733 77.5521C11.5806 79.6671 8.84602 86.295 8.69544 88.553C7.48044 103.503 5.20102 127.197 19.3276 144.686C20.5426 142.429 23.2754 141.301 26.1624 142.005C28.4401 142.569 29.6551 144.827 34.2104 147.223C34.6674 147.223 35.1226 147.365 35.5778 147.506V149.904C34.5151 149.904 33.1478 149.763 31.6299 149.48C28.7429 149.199 27.3774 150.749 26.0101 152.583V152.866L28.7447 154.276C29.8074 154.558 30.8701 154.84 32.2374 154.981C33.4524 154.981 34.5151 154.981 35.5778 154.84V157.941C34.8197 158.224 34.0599 158.507 33.4524 158.788C30.7178 159.213 29.1999 159.213 27.9831 158.93L26.6158 158.507L26.7699 158.93C27.9849 160.905 29.6551 162.597 31.6299 164.29L35.5778 167.11V169.789ZM35.5778 167.11L35.8824 167.391L36.6422 167.11C38.1601 166.263 39.6797 165.418 41.1976 164.431C47.8818 157.943 52.1343 152.866 55.1718 148.352V156.251C50.0072 161.328 44.5397 165.276 38.617 168.661L38.0095 168.944L38.1601 169.084C43.7799 170.918 49.3997 172.329 55.1718 172.61V174.585L52.1343 174.302C46.6651 173.457 42.262 172.329 38.617 170.778L36.1853 169.649L35.5795 169.789V167.11H35.5778ZM55.1718 172.61C55.9316 172.751 56.6914 172.751 57.6018 172.751H60.3364L62.0066 172.329L63.2216 172.187L66.562 168.238L68.2339 166.123L69.146 164.995L77.0435 154.276L77.8051 153.43L77.0435 152.583L73.0939 148.07L69.146 142.569V117.888L75.0705 102.939L69.146 84.4629L67.6264 79.5257C67.3218 78.3975 66.8666 77.2693 66.5637 76.2825V60.7688C67.4741 62.8838 68.2339 65.0004 69.146 67.1154C71.4388 72.5284 73.616 77.983 75.6762 83.4761L77.0435 87.285L78.8678 91.9377L80.3839 88.2702L82.9662 82.2064L84.6382 78.5389V94.7582C83.726 97.5788 82.8174 100.399 82.0558 103.361L81.6006 101.952L82.0558 103.784L83.8783 111.119C84.1812 111.964 84.3335 112.951 84.6382 113.939V131.993L83.1185 128.466C82.1615 125.942 81.2498 123.403 80.3839 120.85C80.2333 120.286 79.927 119.581 79.7782 119.018L78.2551 113.939L77.0435 117.041L75.221 122.12L70.2087 133.261C72.3053 137.16 74.5858 140.972 77.0435 144.686C77.4987 145.39 78.1062 146.095 78.5614 146.659L80.0845 148.776L80.3839 148.069V157.096L79.0166 158.93C78.4108 159.777 77.8051 160.622 77.0435 161.328C74.6077 164.39 71.9702 167.31 69.146 170.071L68.6891 170.495L67.6264 171.482H67.7787L69.146 171.059V173.034C68.8414 173.174 68.5385 173.174 68.2339 173.315L66.5637 173.738L64.8918 174.162L63.9814 175.008C63.2216 175.713 62.6141 176.419 62.0066 177.124C61.5514 177.687 61.0945 178.111 60.7916 178.675C61.2468 178.675 61.7037 178.817 62.0066 178.817V182.201C59.8795 182.06 57.6018 182.06 55.4764 182.06C55.3241 182.201 55.1718 182.201 55.1718 182.201C53.8045 182.343 52.4372 182.482 51.2222 183.047C48.1847 184.599 44.9949 185.586 41.1976 186.573C37.0974 186.714 34.5168 186.15 37.402 182.624C41.8051 180.226 48.0324 179.098 55.1718 178.956H55.3241L57.9064 178.675L61.0945 175.008L55.1718 174.585V172.61ZM80.3839 148.069L84.6382 138.762V150.751L83.726 152.302L84.6382 153.289V160.481L82.8174 158.93L80.6885 156.673L80.3839 157.096V148.07V148.069ZM55.1718 148.352C57.4495 144.967 58.9691 142.005 60.3364 139.043L62.0066 135.519L63.3739 132.979L62.0066 129.736L59.1214 122.401C57.7541 119.439 56.3868 116.619 55.1718 113.939V100.399C57.2989 104.631 59.8795 109.849 62.0066 114.362C63.8291 118.171 65.4993 121.556 66.4114 123.671L66.5637 123.812L66.7143 124.235L69.146 117.888V142.571L67.3218 139.892L66.5637 141.303L64.5889 144.404C63.8291 145.674 62.9187 146.944 62.0066 148.213C59.9737 151.065 57.6875 153.754 55.1718 156.252V148.353V148.352ZM66.4114 124.376V124.518L66.5637 124.658V124.518L66.4114 124.376ZM35.5778 77.1279C35.5778 77.1407 35.5864 77.2677 35.7301 77.2677C41.1993 81.7821 46.6668 87.4232 52.1343 95.1793C53.0447 96.5904 53.9568 98.4241 55.1718 100.398V113.938C51.982 107.873 48.7922 102.514 45.7564 97.1545C42.7172 91.9361 39.0722 87.142 35.5795 83.0502L35.5778 77.1279ZM35.5778 147.505C39.3751 148.067 41.1976 146.658 40.4395 142.286L42.1097 142.428C42.8695 147.363 41.1976 150.042 35.5795 149.901V147.505H35.5778ZM46.3622 39.3295L42.2603 39.4709C41.3499 39.7521 40.4395 40.5991 39.6797 41.5859L38.0095 40.4577C36.7945 38.7654 39.3768 37.4957 41.5022 36.2261H55.1718V38.7654C54.412 38.6239 53.8045 38.3427 53.3493 37.9184L48.6416 37.6371V38.6239C50.767 39.3295 52.7418 40.5991 55.1718 42.7141C55.627 43.2782 56.0839 43.7009 56.6914 44.2666L56.3868 43.8423C56.9544 43.0522 57.7414 42.4192 58.6645 42.0102L61.5514 41.5859L60.9439 41.1632C60.6393 40.5991 60.6393 39.8936 60.7916 39.188C58.6645 39.188 56.842 39.3295 55.1718 38.7654V36.2261H62.0066V50.0475L61.8543 50.1889L62.0066 50.4718V50.6132L66.5637 60.7671V76.2809C64.8918 71.4852 63.6768 66.6911 62.0066 61.6125V50.6132V61.6125C60.7916 57.3825 59.1214 53.1509 56.842 48.4982C56.2362 47.7911 55.627 47.0871 55.1718 46.5214C52.7418 43.4196 50.3118 40.4577 46.3622 39.3295ZM62.0066 36.2277H69.146V40.4577L66.5637 40.8804L63.8291 41.3046L66.5637 41.0218L69.146 40.5991V46.0988C68.8414 45.9589 68.5385 45.6761 68.2339 45.5363L66.5637 46.3816L64.5889 47.227C65.3487 47.7911 65.9562 48.3552 66.562 48.638V51.4586C65.4993 50.753 64.5889 50.0475 63.5262 49.3436L62.0066 50.0475V36.2277ZM62.0066 185.162C63.5262 185.02 65.0441 185.02 66.5637 185.02V187.699C66.2591 187.699 65.9562 187.699 65.6516 187.841C62.3112 188.124 61.3991 190.943 66.4114 191.508H66.5637V193.482C64.8918 193.342 63.5262 193.201 62.0066 192.919V185.162ZM58.8168 191.931C55.3241 190.099 53.5016 188.263 57.2989 186.148C58.8168 185.584 60.487 185.301 62.0066 185.162V192.918C60.9439 192.636 59.8795 192.355 58.8168 191.931ZM62.0066 208.854H56.9943C56.5391 208.854 56.3868 208.714 56.3868 208.431C56.3868 208.292 56.6914 208.15 57.2989 208.15C58.057 208.009 58.5139 207.867 58.6662 207.727C58.8168 207.445 58.9691 207.163 58.9691 206.739V199.266C58.9691 198.7 58.9691 198.419 58.8168 198.136C58.8168 197.995 58.6645 197.855 58.3616 197.713C58.2093 197.572 57.7541 197.431 57.1466 197.431C56.9943 197.431 56.3868 197.291 56.2345 197.291C55.9316 197.149 55.6287 197.149 55.6287 197.008C55.6287 196.727 56.5391 196.585 56.996 196.585H62.0066V208.856V208.854ZM62.0066 209.984C63.5262 210.124 65.0441 210.265 66.5637 210.829V213.931C63.5262 214.214 62.0066 215.625 62.4618 217.881C62.9187 219.432 64.5889 220.983 66.5637 221.549V224.088C65.0441 223.522 63.5262 222.958 62.0066 222.111V209.984ZM57.2989 219.01C56.3868 218.164 55.627 217.317 55.1718 216.331C54.7166 215.342 54.5643 214.355 55.1718 213.086C55.1718 213.086 55.1718 212.946 55.3241 212.804L59.8795 210.124C60.641 209.984 61.3991 209.984 62.0066 209.984V222.113C60.3364 221.266 58.6662 220.279 57.2989 219.011V219.01ZM66.5637 182.481C65.0441 182.341 63.5262 182.341 62.0066 182.2V178.815C63.5262 178.955 65.0441 178.955 66.5637 179.096V182.481ZM66.5637 208.714L62.0066 208.856V196.585H65.8039C66.2591 196.585 66.4097 196.727 66.4097 197.008C66.4097 197.291 66.1068 197.431 65.4993 197.431C65.0441 197.431 64.5889 197.572 64.4366 197.713C64.1337 197.855 63.9814 197.995 63.9814 198.277C63.8291 198.419 63.8291 198.842 63.8291 199.264V207.727C63.8291 207.867 63.9814 207.867 64.1337 207.867H66.5637V208.714ZM69.146 53.0095C68.2339 52.5868 67.4741 52.0227 66.5637 51.4586V48.638C67.6264 49.4834 68.2339 49.9077 69.146 50.3304V53.0095ZM66.5637 182.481V179.096C67.4741 179.238 68.2339 179.379 69.146 179.519C71.8806 179.802 74.4612 180.226 77.0435 180.93C78.1062 181.071 79.0166 181.353 80.0828 181.636L80.3839 181.777L84.6382 183.328L86.156 183.89V188.969C85.7008 189.11 85.2457 189.252 84.6382 189.392C83.726 189.674 82.8174 190.099 81.9035 190.38L80.3839 190.803V188.263L84.6382 186.712L85.0933 186.571L84.6382 186.43L81.1455 185.584C80.8408 185.443 80.6885 185.443 80.3839 185.301C79.3195 185.02 78.2551 184.598 77.0435 184.456C74.4612 183.751 71.7266 183.186 69.146 182.905C68.2339 182.764 67.4741 182.622 66.5637 182.481ZM66.5637 185.02C66.8666 185.02 67.1695 185.162 67.4741 185.162C67.9293 185.162 68.5385 185.162 69.146 185.301V187.841C68.0816 187.699 67.3218 187.699 66.5637 187.699V185.02ZM69.146 185.301C70.5133 185.443 71.8806 185.866 73.2445 186.43L77.0435 188.263V191.931C74.7658 192.636 72.4864 193.059 70.207 193.482H69.146V191.225C70.2087 191.084 71.2714 190.944 72.4864 190.803L75.1847 189.927C73.6633 188.676 71.2558 187.982 69.1443 187.841L69.146 185.301ZM66.5637 193.482V191.508C67.3218 191.367 68.0816 191.367 69.146 191.225V193.482H66.5637ZM69.146 197.431H68.9937C68.5385 197.431 68.2339 197.291 68.2339 197.008C68.2339 196.727 68.5385 196.585 68.9937 196.585H69.146V197.431ZM69.146 196.585H77.0435V197.572C76.7424 197.572 76.5849 197.713 76.436 197.713C76.1349 197.855 75.9774 197.995 75.9774 198.276C75.9774 198.419 75.8285 198.842 75.8285 199.264V206.175C75.8285 206.739 75.9774 207.022 75.9774 207.303C75.9774 207.445 76.2837 207.727 76.5849 207.867C76.7406 207.867 76.8912 208.009 77.0435 208.009V209.841C75.9774 211.818 75.3733 214.214 69.2949 213.791H69.146V211.678C71.8806 212.101 74.1566 211.959 75.0705 209.844L75.221 209.561C75.0705 209.28 74.7658 209.139 74.3072 208.999C73.8763 208.822 73.4124 208.726 72.9416 208.716H69.146V207.869H70.0564C70.361 207.869 70.5116 207.869 70.6639 207.729C70.8162 207.729 70.9651 207.446 70.9651 207.165V198.843C70.9651 198.421 70.8162 198.279 70.8162 197.996C70.6639 197.856 70.5116 197.715 70.2087 197.715C70.0564 197.574 69.7535 197.432 69.146 197.432V196.587V196.585ZM69.146 208.714H66.5637V207.867H69.146V208.714ZM66.5637 210.829L67.4741 211.254C67.9293 211.393 68.5385 211.535 69.146 211.676V213.791C68.0816 213.791 67.3218 213.791 66.5637 213.933V210.829ZM66.5637 224.088V221.549C66.5637 221.549 66.7143 221.549 66.7143 221.689C67.6264 222.113 68.2339 222.536 69.146 222.817C71.7266 223.664 74.3072 223.241 76.7424 221.972C76.8912 221.83 76.8912 221.83 77.0435 221.83V224.369C75.5951 224.958 74.0584 225.339 72.4864 225.498C71.4237 225.498 70.5133 225.356 69.6012 225.215C69.4489 225.075 69.2949 225.075 69.146 225.075C68.2339 224.792 67.4741 224.368 66.5637 224.087V224.088ZM77.0435 221.83C78.1062 221.407 79.1689 220.561 80.3839 219.432C81.7512 218.163 83.2708 216.331 84.6382 214.497V219.151C83.3397 220.488 81.916 221.714 80.3839 222.817C80.0828 222.958 79.927 223.1 79.6258 223.383C78.8678 223.664 77.9539 224.087 77.0435 224.369V221.83ZM69.146 173.033V171.057C71.5726 170.071 74.3072 168.801 77.0435 167.109L80.3839 165.133C80.8408 164.852 81.296 164.571 81.7512 164.147L84.6382 161.89V165.98C83.2708 166.826 81.9035 167.812 80.3839 168.52C79.3195 169.082 78.2551 169.648 77.0435 170.212C74.7658 171.34 72.0312 172.186 69.146 173.033ZM75.3733 15.7768L77.0435 10.417L80.3839 7.31518C80.9511 6.95131 81.5085 6.57458 82.0558 6.18536L80.9897 4.49304C80.8408 4.07036 80.5362 3.50626 80.6885 2.94215L82.511 1.53108L84.6382 0.547506V28.6146C82.9662 28.8959 81.7512 28.0505 81.7512 26.0754L80.3839 24.8057C79.1689 23.6775 77.9539 22.4079 77.0435 20.9968C75.9774 19.4459 75.221 17.6138 75.3733 15.78V15.7768ZM77.3464 15.7768C77.3464 17.8918 78.4126 19.7255 80.3839 21.5593C81.1455 22.1218 81.9035 22.6875 82.8174 23.3914C83.4231 18.4575 83.726 13.5204 83.1185 8.72465C82.1362 9.12537 81.2164 9.64701 80.3839 10.2755C78.2551 11.828 77.3464 13.8016 77.3464 15.7768ZM71.4237 40.4577C73.4003 40.8804 75.221 42.0086 77.0435 43.4196V57.0996C76.2837 55.83 75.5274 54.7018 74.7658 53.4338C72.637 53.9963 70.8162 53.715 69.146 53.0095V50.3304C70.2087 50.8945 71.1191 51.0359 72.3341 51.3172L73.2445 50.4718C72.1835 48.9193 70.9651 47.37 69.146 46.1004V40.5991L71.4237 40.4577ZM77.0435 43.4196C77.6493 43.8423 78.2551 44.2666 78.8678 44.6893C79.4753 45.2518 80.0828 45.8175 80.3839 46.2402C81.7512 48.0723 81.296 49.342 80.3839 50.6116C80.0828 50.8945 79.7781 51.3188 79.4753 51.6C79.7764 52.0227 80.0828 52.4454 80.3839 52.8696C81.9035 54.9846 83.2708 57.0996 84.6382 59.2163C85.2439 59.9202 85.7008 60.7672 86.156 61.6125V73.883L84.6382 70.7812L81.9035 65.28C81.4483 64.4346 80.8408 63.4479 80.3839 62.6009C79.3195 60.7671 78.2551 58.9334 77.0435 57.0996V43.4196ZM77.0435 32.7C76.2837 30.3038 73.7031 29.5982 70.0564 30.1607C69.4507 29.8795 69.7535 29.3154 70.361 28.6114L77.0418 28.8927H77.9539L80.3839 30.4436L81.9035 31.432C85.7008 33.6884 84.1812 35.5221 81.9035 37.073C81.4483 37.4957 80.8408 37.6371 80.3839 37.9184C79.3397 38.4843 78.2154 38.9117 77.0435 39.188C75.6762 39.6123 74.3072 39.8952 73.0939 40.035L69.146 40.4577V36.2261H73.8537C75.3733 36.2261 76.5849 35.9448 77.0435 34.5338C77.1976 34.2525 77.1976 33.9713 77.3464 33.547C77.1976 33.2657 77.1976 32.9829 77.0435 32.7016V32.7ZM80.3839 191.225L80.8408 191.508C81.7512 192.354 82.8174 193.482 83.5755 194.61C83.8783 195.034 84.3335 195.598 84.6382 196.021V200.675C83.8766 198.842 82.8174 197.291 81.6006 195.88L80.3839 194.61V191.225ZM77.8051 191.648L77.1976 191.931H77.0418V188.263L78.5614 188.971L80.3857 188.263V190.803L80.0828 190.944L80.3839 191.225V194.61L77.8051 191.648ZM78.7137 188.969H78.5614L77.0435 189.392L78.7137 188.969ZM77.0435 208.009H77.9539C78.1062 208.009 79.477 208.009 80.3839 208.15C80.8408 208.15 81.1455 208.292 81.1455 208.431L81.4483 211.254C81.4483 211.816 80.9897 211.535 80.5362 211.535H80.3839C80.2277 211.537 80.0739 211.499 79.9399 211.424C79.806 211.349 79.6972 211.241 79.6258 211.112C79.4753 210.829 79.1689 210.265 79.0183 209.842C78.8678 209.701 78.1062 209.842 77.1976 209.701H77.0418L77.0435 208.009ZM77.0435 196.585H77.8051C78.2551 196.585 79.6258 196.727 79.6258 197.008C79.6258 197.149 78.2568 197.431 77.6493 197.431C77.3464 197.431 77.1976 197.431 77.0435 197.572V196.585ZM86.156 154.838V160.762L85.5468 161.185L85.8531 161.326L86.156 161.185V164.852L85.5468 165.415C85.2456 165.558 84.941 165.839 84.6382 165.98V161.89L85.5468 161.185L84.6382 160.479V153.29L86.156 154.838ZM86.156 161.186L86.7635 160.621L86.6112 160.479L86.156 160.762V154.838L89.3458 158.223L89.4981 158.083L91.4712 155.966V164.147L89.4981 162.596L89.3458 162.454L86.156 164.852V161.185V161.186ZM91.473 155.966L92.688 154.838V160.903L92.0805 160.479L91.9281 160.621L92.688 161.185V164.852L91.473 164.147V155.966ZM86.156 148.35L84.6382 150.748V138.762L86.156 135.519L84.6382 131.993V113.939C85.0933 115.49 85.7008 117.041 86.156 118.735C86.6112 119.863 87.0681 120.85 87.371 121.978L89.4981 127.197L89.6505 127.48L91.473 122.825V145.814L91.016 144.967L89.6487 142.288L89.4981 142.569L88.1308 145.108L86.1578 148.352L86.156 148.35ZM91.473 122.824L91.9281 121.977C92.0805 121.271 92.3851 120.707 92.688 120.002V147.505L91.473 145.812V122.825V122.824ZM84.6347 94.7582V78.5389L86.1543 75.1543L86.4589 74.5902L86.1543 73.8846V61.6141L89.4947 67.8209L89.6487 68.1021L90.4068 66.6927C90.8637 65.9855 91.1683 65.423 91.4712 64.7175C91.9264 64.155 92.2276 63.4479 92.6862 62.8854V88.8343L91.4712 86.1552L89.6487 81.6423L89.4964 81.9236L88.5843 84.0402C87.8262 86.1552 86.9141 88.2702 86.1543 90.3868C85.6991 91.7963 85.0916 93.2073 84.6364 94.7582H84.6347ZM92.6862 62.8838C93.1414 61.897 93.7489 60.9102 94.3564 59.9218V71.4868L92.9891 74.4488L94.3564 77.5505V94.0527L93.2903 90.2438L92.6845 88.8343V62.8838H92.6862ZM86.156 1.25143C86.6112 1.53268 86.9158 1.95697 87.217 2.52108L89.4981 1.67251C90.258 1.53108 90.8655 1.53108 91.4712 1.53108H92.688V5.05715C92.3851 4.91733 92.2293 4.7759 92.0805 4.7759C91.7758 4.63447 91.6218 4.49304 91.473 4.49304C90.8655 4.07036 90.1057 4.07036 89.4981 4.21179C89.1935 4.35322 88.7383 4.49304 88.4355 4.77429L86.9158 6.32679L87.6757 12.675C88.2814 12.675 88.8872 12.3921 89.4981 12.1093L91.4712 10.8396V17.8918C91.016 17.6105 90.1039 17.6105 89.4981 17.6105H89.1935C88.7383 17.7504 88.4355 18.0332 88.2814 18.7388C88.7383 19.1614 87.9785 22.9688 88.4355 22.9688C88.7383 22.5461 89.0412 21.5593 89.4981 20.8538C89.801 20.2896 90.258 19.7255 90.5591 19.4427L91.473 18.8802V20.4311C91.016 21.4179 91.016 22.6875 91.1683 23.9571C91.3206 24.097 91.473 24.3798 91.473 24.5196V28.7513C90.8655 28.47 90.258 28.0473 89.4981 27.623C89.3458 27.4832 89.1935 27.2004 88.8889 27.0605C87.5233 26.2136 86.7635 27.0605 86.156 28.1871C85.7017 28.4554 85.1765 28.6022 84.6382 28.6114V0.545898L86.156 1.25143ZM91.473 10.8413L92.688 9.85447V13.0993L92.0805 14.0877C92.1998 14.3387 92.4159 14.5393 92.6862 14.6502C93.1432 15.0745 93.7507 15.3573 94.3582 15.4971C94.9639 15.6386 95.4208 15.78 95.8778 15.6386C96.6341 15.9214 97.548 16.3441 98.3043 16.6254C99.3705 16.9082 100.433 17.3325 101.193 17.7536C102.256 18.3177 102.713 18.8818 102.713 19.4459L101.193 23.6775C100.585 25.0886 99.5228 26.2168 98.3043 27.345C98.1555 27.6263 98.0032 27.7677 97.8543 27.9075C96.4853 28.6147 95.4208 29.0373 94.3582 29.1771H92.688C92.2293 29.0373 91.9264 28.8959 91.473 28.7545V24.5245L92.688 25.7941C93.1432 26.0754 93.5983 26.2168 94.3582 26.3566C94.8133 26.3566 95.2703 26.3566 95.8778 26.2168L98.3043 24.2416C99.2182 23.2548 99.6733 22.268 99.5228 21.9852C99.5228 20.7155 99.0693 20.01 98.3043 19.5873C98.1555 19.5873 98.0032 19.4459 97.8543 19.3061C96.9405 18.8818 95.7272 18.5989 94.3582 18.8818C93.9012 18.8818 93.446 19.0232 93.1432 19.1646C92.8385 19.3061 92.688 19.3061 92.688 19.4459C92.1877 19.658 91.7652 20.0017 91.473 20.4343V18.8818C92.2293 18.4591 92.0787 18.0364 91.473 17.895V10.8413ZM85.398 202.509C85.2457 201.805 84.941 201.239 84.6364 200.677V196.023C85.2457 196.868 85.7008 197.715 86.156 198.421C87.217 200.394 88.1308 202.369 88.7383 204.343L89.4981 206.037L90.258 204.343C90.7132 203.215 91.016 202.228 91.473 201.1C91.9282 200.394 92.2293 199.69 92.688 198.985V205.473C92.3851 206.177 92.0805 206.882 91.9264 207.588L91.473 208.293L91.016 209.28C91.1684 209.561 91.3207 209.842 91.473 209.986V215.485C91.3207 215.344 91.1684 215.062 91.016 214.78L89.4981 212.24L88.8889 213.229C87.9785 214.921 87.0681 216.331 86.156 217.46C85.7008 218.023 85.0933 218.589 84.6382 219.153V214.498C85.2439 213.793 85.7008 212.947 86.156 212.242C86.8764 211.318 87.4874 210.325 87.9785 209.28V209.139L87.217 207.588C86.9158 206.601 86.6112 205.754 86.156 204.626C86.0037 203.92 85.7008 203.215 85.3962 202.511L85.398 202.509ZM91.473 209.986C91.9282 210.689 92.2293 211.255 92.688 211.818V217.036C92.2293 216.613 91.9264 216.049 91.473 215.485V209.986ZM89.4981 185.022L91.4712 184.316V188.548L89.4981 187.842L86.9158 188.689C86.7635 188.689 86.4606 188.829 86.156 188.971V183.892L89.3458 185.162L89.4981 185.022ZM91.4712 184.316L92.688 184.035V188.829H92.3851L91.473 188.548V184.316H91.4712ZM94.3582 153.006L95.4208 152.019L94.3582 150.327V138.337L98.3043 146.801L99.2182 148.633L100.585 147.084C100.738 146.659 101.041 146.376 101.193 146.095L105.295 139.89C106.549 137.867 107.715 135.796 108.788 133.685V133.543L105.293 125.363L103.926 122.401L101.193 115.349L100.89 114.362L99.5228 119.158C99.2181 120.286 98.7612 121.273 98.3043 122.401V86.5779L100.585 91.7962L101.193 89.9641L103.623 83.6159C104.23 82.2064 104.686 80.7954 105.293 79.3859V100.118L104.23 103.361L105.293 105.901L109.09 115.773V144.122L106.053 148.352L105.293 149.34L101.646 153.57L105.293 158.366V164.854L101.193 160.199L100.281 158.93L98.763 156.815L98.3043 157.238L96.3312 159.213L94.3582 160.764V153.006ZM105.293 79.3859C106.508 76.1411 107.725 73.0377 109.09 69.9359V87.8475L105.293 100.118V79.3859ZM105.293 158.366L109.09 163.444V168.803C107.723 167.533 106.508 166.263 105.293 164.854V158.366ZM94.3582 160.764L93.446 161.469L94.3582 162.314V166.263L92.688 164.854V161.186L93.2937 161.609L93.446 161.469L92.688 160.905V154.84L94.3582 153.007V160.764ZM94.3582 162.314L97.3974 164.571L98.3043 165.278L101.193 167.11L105.295 169.225V171.906C103.775 171.342 102.56 170.778 101.193 170.214C100.281 169.789 99.3705 169.225 98.3043 168.803C97.3937 168.237 96.4822 167.673 95.5697 167.11L94.3582 166.263V162.314ZM105.293 169.225C106.508 169.789 107.874 170.353 109.09 170.918V173.174C107.816 172.773 106.55 172.35 105.293 171.904V169.225ZM94.3582 132.415L93.1432 135.517L94.3582 138.339V150.327L92.688 147.506V120.003C93.2937 118.311 93.8995 116.479 94.3582 114.785C94.8133 113.515 95.1197 112.246 95.4208 111.119L97.0928 104.208V104.067L97.2416 103.08L94.3582 94.0527V77.5521L96.4853 82.065L98.3043 86.5779V122.401C97.5712 124.431 96.8125 126.453 96.0284 128.466L94.3582 132.415ZM94.3582 1.67411C96.0284 1.81554 97.3974 1.95697 98.3043 2.37965V7.59804C97.548 8.72626 96.1824 9.9959 94.3582 11.5468V1.67411ZM94.3582 11.5468C93.9012 11.9695 93.292 12.3938 92.8385 12.8164L92.688 13.0977V9.85447C92.9908 9.29036 93.446 8.58483 93.7506 8.02233C94.2058 6.75268 93.5983 5.76429 92.688 5.05876V1.53268C93.2937 1.53268 93.7507 1.67411 94.3582 1.67411V11.5468ZM93.7506 202.511C93.292 203.497 92.9908 204.626 92.688 205.473V198.985C93.1432 197.996 93.7507 197.009 94.3582 196.023C94.6628 195.6 95.1197 195.036 95.4208 194.612C96.3069 193.52 97.2702 192.483 98.3043 191.51V195.036L97.548 195.881C96.333 197.292 95.2703 198.983 94.3582 200.818C94.0655 201.351 93.8607 201.922 93.7506 202.511ZM98.3043 191.51V191.368L99.0693 190.946L98.3043 190.663L97.2416 190.382C96.333 190.099 95.4208 189.674 94.3582 189.393C93.7507 189.253 93.1432 188.971 92.688 188.831V184.035L94.3582 183.328V186.431L93.9012 186.573L94.3582 186.714L97.3974 187.842L98.3043 188.125V190.664V188.125L100.585 188.971L101.193 188.548V189.11L100.738 188.971H100.585L101.193 189.112V188.548L103.166 187.701C103.928 187.278 104.533 186.995 105.295 186.714C106.498 186.145 107.773 185.719 109.09 185.444V187.984C107.723 188.265 106.356 188.689 105.293 189.253C104.838 189.403 104.423 189.643 104.078 189.957L101.953 189.395L103.775 189.957C104.23 190.099 104.838 190.24 105.293 190.382C105.75 190.521 106.358 190.663 106.813 190.804L109.09 191.227V193.625H108.936L105.293 192.778L102.105 191.932L101.344 191.791L101.193 191.932L98.3043 195.034V191.51ZM109.09 185.444C110.003 185.303 110.913 185.163 111.977 185.163C112.128 185.163 112.433 185.022 112.737 185.022V187.701C111.673 187.701 110.305 187.842 109.09 187.984V185.444ZM94.3582 183.329L98.3043 181.918L99.2182 181.637C99.8257 181.496 100.585 181.354 101.193 181.073L105.295 180.226V183.611C103.928 183.894 102.56 184.318 101.193 184.599C100.281 184.88 99.3705 185.162 98.3043 185.444C98.3043 185.444 98.1555 185.444 98.1555 185.586L94.3582 186.431V183.329ZM94.3582 214.357C95.7272 216.191 97.0928 217.742 98.3043 219.153C99.3705 220.139 100.433 220.985 101.193 221.409C101.646 221.69 102.105 221.832 102.408 221.973C103.32 222.396 104.23 222.819 105.293 222.96C106.508 223.384 107.725 223.384 109.09 223.101V225.216C108.332 225.358 107.42 225.499 106.66 225.499C106.204 225.499 105.75 225.358 105.293 225.358C103.926 225.077 102.559 224.652 101.193 224.088C100.738 223.807 100.132 223.666 99.5228 223.384C99.2181 223.101 98.7612 222.819 98.3043 222.537C97.0928 221.551 95.7272 220.562 94.3582 219.011V214.357ZM109.09 223.101C110.321 222.787 111.498 222.312 112.585 221.69C112.585 221.551 112.735 221.551 112.735 221.551V224.23C111.673 224.512 110.607 224.935 109.395 225.216H109.09V223.101ZM92.688 217.036V211.819C93.1432 212.665 93.7507 213.512 94.3582 214.359V219.011C93.7195 218.416 93.1588 217.753 92.688 217.036ZM98.3043 196.587V200.536C97.8543 200.113 97.548 198.703 97.8543 198.138C97.8543 198.138 97.8543 197.856 98.0032 197.575C98.1555 197.151 98.3043 196.868 98.3043 196.587ZM97.3974 37.0746C95.1197 35.6636 93.5983 33.8314 97.3974 31.5734L98.3043 31.0109L101.193 29.0341H101.345L105.293 28.8943L108.788 28.7529C108.936 28.7529 108.936 28.8943 109.09 28.8943V30.1639C107.573 30.0225 106.356 30.0225 105.293 30.3054C103.471 30.728 102.256 31.7148 101.953 33.69C102.256 35.6636 103.471 36.2293 105.293 36.2293V39.8952C103.926 39.7538 102.559 39.4725 101.193 39.0498C100.281 38.6255 99.3705 38.2029 98.3043 37.7802C98.0032 37.4973 97.6985 37.3559 97.3974 37.0746ZM105.293 36.2277H109.09V40.4593L106.204 40.0366C105.901 39.8952 105.598 39.8952 105.293 39.8952V36.2277ZM94.3582 59.9218C95.6177 57.8697 96.9335 55.8477 98.3043 53.858V63.8705C96.898 66.3204 95.5819 68.814 94.3582 71.347V59.9218ZM98.3043 53.858C98.9118 53.1525 99.3705 52.3071 99.9762 51.6016C99.3705 50.8961 98.763 50.332 98.3043 49.485C98.1555 48.9225 98.0032 48.2154 98.3043 47.37C98.763 46.5246 99.3705 45.6777 100.585 44.6909L101.193 44.1268V58.935C100.281 60.4859 99.3705 62.1782 98.3043 63.8721V53.8564V53.858ZM101.193 196.023V197.996C101.041 198.138 100.738 198.279 100.433 198.421C99.9762 198.702 99.3705 200.677 98.9118 200.677C98.763 200.818 98.6106 200.818 98.306 200.536V196.587C98.4618 196.445 98.6106 196.304 98.763 196.164C99.0693 196.023 99.5228 196.023 100.281 196.023H101.193ZM105.295 209.28H103.623C102.863 209.28 102.256 209.139 102.256 208.997C102.256 208.857 104.23 208.435 104.23 208.293C104.383 208.293 104.686 208.152 104.99 208.01H105.293L105.295 209.28ZM104.533 197.291C103.471 197.291 102.56 197.432 102.105 197.574C101.802 197.715 101.646 197.856 101.193 197.996V196.023H109.09V209.28H105.293V208.01C105.598 207.869 105.75 207.729 105.75 207.588C105.901 207.446 105.901 207.305 105.901 207.024V198.279C105.901 197.856 105.901 197.715 105.75 197.574C105.75 197.574 105.445 197.432 105.293 197.432C104.99 197.292 104.838 197.292 104.535 197.292L104.533 197.291ZM105.295 211.395C106.204 211.959 107.573 212.101 109.09 211.819V213.793C107.807 213.909 106.511 213.765 105.293 213.37L105.295 211.395ZM101.498 208.997L103.775 209.421C104.078 210.408 104.535 210.972 105.293 211.395V213.37C103.015 212.383 102.713 210.408 101.498 208.999V208.997ZM101.193 44.1268C102.56 43.1384 103.928 42.1516 105.295 41.4461C106.204 41.0234 106.965 40.6007 107.874 40.4593L109.09 40.6007V47.0888C107.874 48.0755 106.965 49.3452 106.204 50.4734L107.117 51.3188C107.874 51.1789 108.485 51.0375 109.09 50.8961L112.737 48.9209C113.343 48.4982 114.104 47.9341 115.015 47.2286L112.737 46.2418V41.0234L109.09 40.4609V36.2261H117.291V50.0475L116.079 49.3436C115.003 50.1867 113.887 50.9867 112.737 51.7414C111.52 52.4454 110.305 53.0111 109.09 53.4338C107.874 53.715 106.66 53.8564 105.293 53.5736C105.143 53.5736 104.838 53.5736 104.687 53.4338C103.471 55.2659 102.408 57.0997 101.193 58.9334V44.1268ZM117.289 36.2277H124.28V38.767C122.609 39.3311 120.633 39.1896 118.66 39.1896C118.812 40.0366 118.812 40.7421 118.509 41.3063L118.054 41.5875L120.938 42.0102C121.862 42.4194 122.649 43.053 123.217 43.8439L124.28 42.8572V46.5247C123.824 47.2286 123.217 47.9341 122.61 48.6396C120.33 53.2939 118.66 57.6654 117.291 61.897L112.737 76.4239V61.1914C114.202 57.7868 115.72 54.4018 117.289 51.0375C117.289 50.8961 117.289 50.7547 117.447 50.6148L117.748 50.1905L117.291 50.0491L117.289 36.2277ZM109.09 40.5991L112.737 41.0234V46.2418L111.214 45.5363C110.305 45.9605 109.698 46.5246 109.09 47.0888V40.5991ZM109.09 183.047C107.723 183.188 106.508 183.471 105.293 183.611V180.226C106.508 179.945 107.725 179.803 109.09 179.664V183.047ZM112.433 197.575C112.279 197.715 112.279 197.856 112.279 198.279V207.588C112.279 207.729 112.433 207.869 112.737 208.01H113.192C113.497 208.152 113.648 208.152 113.798 208.293C113.949 208.433 115.927 208.856 115.927 208.997C115.927 209.421 114.104 209.28 112.737 209.28H109.09V196.021H112.735V197.432C112.585 197.432 112.433 197.574 112.433 197.574V197.575ZM112.737 168.238V174.162L110.762 173.738C110.155 173.598 109.698 173.315 109.09 173.176V170.918L111.372 171.764L112.279 171.906L110.458 170.353C110.003 169.791 109.544 169.367 109.09 168.803V163.443L110.762 165.982L112.737 168.238ZM112.737 168.238L116.533 172.61L117.291 172.751L118.961 173.034C119.875 173.174 120.789 173.174 121.697 173.174C122.61 173.174 123.368 173.174 124.28 173.034V174.866L118.66 175.291L121.545 178.534L124.127 178.817H124.28C131.417 179.098 137.645 180.086 142.049 182.624C144.936 186.009 142.354 186.714 138.252 186.573C134.457 185.444 131.265 184.458 128.075 182.907C126.86 182.482 125.495 182.343 124.28 182.2C124.127 182.2 124.127 182.2 123.975 182.06C121.697 182.06 119.572 182.06 117.291 182.201C115.776 182.201 114.255 182.343 112.737 182.482V179.098L117.289 178.675C117.748 178.675 118.205 178.675 118.66 178.534C118.205 178.111 117.748 177.547 117.291 176.983C116.685 176.277 116.079 175.572 115.47 174.866L115.169 174.726L112.737 174.162V168.238ZM109.698 213.793H109.092V211.819C109.85 211.678 110.762 211.536 111.825 211.254L112.737 210.831C114.182 210.281 115.728 209.994 117.289 209.986V222.115C115.776 222.96 114.255 223.524 112.737 224.23V221.551C114.714 220.986 116.384 219.434 116.839 217.883C117.289 215.627 115.621 214.216 112.737 213.934C111.825 213.793 110.913 213.793 109.698 213.793ZM112.737 193.625H109.09V191.227C110.458 191.368 111.825 191.51 112.737 191.51H113.042C118.054 191.086 117.14 188.265 113.8 187.842C113.497 187.701 113.192 187.701 112.737 187.701V185.022C114.255 185.022 115.776 185.022 117.291 185.163V193.061V185.163C118.961 185.303 120.482 185.586 122.154 186.15C125.798 188.265 124.127 190.24 120.631 191.932C119.572 192.355 118.509 192.778 117.291 193.061C115.925 193.342 114.407 193.483 112.737 193.625ZM109.09 183.047V179.662C110.305 179.381 111.52 179.239 112.737 179.099V182.482C111.52 182.624 110.305 182.765 109.09 183.047ZM109.09 144.122V115.772L112.585 124.659L112.735 124.093V141.724L111.977 140.173L109.09 144.122ZM112.737 76.4239C112.433 77.4107 111.976 78.3975 111.673 79.5257L109.09 87.8475V69.9359C110.305 66.9739 111.52 64.012 112.735 61.193V76.4239H112.737ZM109.09 30.1639V28.8943C109.544 29.4584 109.698 29.8811 109.09 30.1639ZM112.737 197.432V196.023H117.748C118.509 196.023 119.117 196.023 119.267 196.164C119.572 196.304 119.875 196.727 120.179 197.574C120.633 198.421 120.33 201.522 119.267 200.675C118.812 200.675 118.205 198.702 117.597 198.421L117.291 198.279C116.841 197.996 116.384 197.856 116.079 197.574C115.236 197.375 114.367 197.28 113.497 197.292C113.192 197.292 112.886 197.432 112.735 197.432H112.737ZM112.737 124.093L113.648 122.12C114.556 120.003 115.925 117.324 117.291 114.504C119.572 109.708 122.154 104.491 124.28 100.259V114.081C122.912 116.901 121.545 119.722 120.178 122.824L117.291 129.876V114.504V129.876L115.925 133.261L117.291 136.083L118.961 139.467L124.28 149.057V156.815C121.85 154.417 119.42 151.736 117.291 148.634C116.384 147.365 115.47 146.095 114.556 144.686L112.737 141.724V124.94L112.886 124.658L112.737 124.799V124.093ZM117.289 222.113V209.986C118.054 209.986 118.66 209.986 119.418 210.125L123.824 212.806C124.127 213.229 124.28 213.512 124.28 213.934C124.432 214.64 124.432 215.204 124.28 215.766C123.975 217.036 122.912 218.024 122.002 219.013C120.57 220.217 118.989 221.258 117.291 222.115L117.289 222.113ZM143.723 150.187C138.105 150.328 136.277 147.648 137.191 142.714L138.863 142.571C138.105 146.942 139.926 148.353 143.723 147.789V150.187ZM143.723 147.789V150.187C144.786 150.187 146.153 150.046 147.517 149.764C150.558 149.481 151.922 151.174 153.142 152.866L153.291 153.149L150.556 154.56C149.345 154.983 148.128 155.264 146.91 155.264C145.847 155.264 144.634 155.264 143.723 155.124V158.367C144.329 158.65 145.09 158.931 145.847 159.214C148.431 159.496 149.949 159.496 151.165 159.354L152.529 158.792L152.38 159.354C151.316 161.188 149.494 163.022 147.517 164.572L143.723 167.393V170.074L161.038 177.266C164.987 178.254 166.96 179.946 168.174 181.78L167.417 184.601L168.33 185.023L170.15 182.061C170.457 180.933 170.303 179.946 168.783 179.241C166.81 177.126 165.595 175.009 166.048 173.317C164.833 171.202 163.161 170.496 161.19 170.638C159.215 170.779 157.24 170.779 155.42 170.638C152.38 170.496 149.494 170.074 147.216 169.227L145.698 168.664L154.201 161.329C154.963 160.624 156.785 158.79 157.393 157.945C157.999 157.239 160.278 155.264 161.038 154.419C174.555 139.892 177.591 128.891 178.808 118.312C179.72 108.159 179.415 98.9914 174.706 86.8607C171.064 81.7854 168.025 76.8482 160.885 73.3222C154.963 71.7713 149.189 73.7448 143.723 77.4123V83.3363C144.786 81.9252 146.001 80.6571 147.064 79.3875C153.443 74.0277 159.214 72.0525 164.226 77.835C167.566 80.093 170.457 86.7209 170.605 88.9773C171.822 103.786 174.1 127.48 159.975 144.97C158.606 142.712 156.029 141.584 152.988 142.289C150.859 142.995 149.494 145.11 145.089 147.508C144.634 147.508 144.177 147.649 143.721 147.789H143.723ZM138.711 110.838C137.344 112.107 135.673 113.236 135.066 114.928C131.265 124.236 129.597 133.828 133.243 146.238C134.607 150.751 137.949 154.277 143.723 155.124V158.367C139.777 156.535 136.277 154.277 133.243 151.315C130.054 146.944 127.016 142.007 125.344 135.943C124.584 133.122 124.584 131.147 124.738 129.738C125.19 125.787 126.559 121.416 128.989 117.467C130.358 114.365 133.394 111.402 137.498 108.581C140.076 107.736 142.051 106.889 143.723 105.761C145.239 104.633 146.458 103.363 147.216 102.093C149.345 99.5539 148.886 97.2991 146.761 95.0427C143.42 90.3884 144.481 87.9905 147.366 86.5795L148.431 87.5679C144.329 88.9773 145.696 91.6564 147.825 94.4786C149.646 95.888 151.771 97.1577 152.529 98.9914C154.052 101.812 153.594 103.646 152.685 105.338C152.38 105.901 151.47 107.312 149.95 108.3C148.886 109.145 147.368 109.428 146.001 109.428C145.239 109.568 144.481 109.568 143.723 109.568C141.748 109.851 140.078 109.992 138.711 110.838ZM143.723 170.074L143.116 169.932L140.686 171.061C137.042 172.611 132.636 173.881 127.016 174.587L124.281 174.868V173.036C130.054 172.753 135.521 171.343 141.139 169.368L141.293 169.227L140.686 168.946C134.625 165.647 129.101 161.563 124.281 156.816V149.059C127.319 153.43 131.419 158.367 138.105 164.714C139.619 165.701 141.141 166.546 142.659 167.393L143.42 167.676L143.723 167.393V170.074ZM124.281 100.259C125.344 98.4273 126.104 96.735 126.86 95.4654C132.636 87.8491 138.105 82.2064 143.571 77.5538C143.571 77.5538 143.571 77.4123 143.723 77.4123V83.3363C140.078 87.4264 136.584 92.2221 133.544 97.4389C130.509 102.799 127.319 108.159 124.281 114.083V100.259ZM124.281 36.2309H137.949C140.078 37.5005 142.659 38.91 141.445 40.6023L139.775 41.7305C139.014 40.6023 138.105 39.8984 137.191 39.4741L133.093 39.3327C128.991 40.4609 126.711 43.4229 124.281 46.5263V42.8588L124.434 42.7173C126.711 40.7438 128.686 39.3327 130.509 38.6272V37.6404L126.104 37.9232C125.563 38.3152 124.944 38.6027 124.281 38.7686V36.2309Z" fill="white"/>
</svg>
