<svg width="18" height="20" viewBox="0 0 18 20" xmlns="http://www.w3.org/2000/svg" fill="none"><path d="M4 4v-3c0-.265.105-.52.293-.707.188-.188.442-.293.707-.293h12c.265 0 .52.105.707.293.188.188.293.442.293.707v14c0 .265-.105.52-.293.707-.188.188-.442.293-.707.293h-3v3c0 .552-.45 1-1.007 1h-11.986c-.132.001-.263-.024-.385-.074-.122-.05-.233-.123-.327-.216s-.168-.203-.219-.325c-.051-.122-.077-.252-.077-.384l.003-14c0-.552.45-1 1.007-1h2.99zm-1.997 2l-.003 12h10v-12h-9.997zm3.997-2h8v10h2v-12h-10v2z" fill="#fff"/></svg>